<svg width="192" height="40" viewBox="0 0 192 40" fill="none" xmlns="http://www.w3.org/2000/svg">
<path d="M16.72 21.5C16.3454 21.5 16.0417 21.8029 16.0417 22.1765V22.5242L16.0426 22.5411C16.1132 23.949 17.1782 25.359 18.9902 25.498L19.0161 25.5H19.374C19.7486 25.5 20.0522 25.1971 20.0522 24.8235C20.0522 24.4499 19.7486 24.1471 19.374 24.1471H19.0699C18.0284 24.0559 17.4447 23.2751 17.3982 22.489V22.1765C17.3982 21.8029 17.0946 21.5 16.72 21.5Z" fill="white"/>
<path fill-rule="evenodd" clip-rule="evenodd" d="M18.5801 10.5693C15.0745 10.7233 12.3644 13.5934 12.1884 17.0888C12.1001 18.842 12.0313 20.4095 12.0313 21.8667C12.0313 23.2258 12.0912 24.5866 12.1709 26.1507C12.3481 29.6288 15.0537 32.473 18.5418 32.629C19.0701 32.6526 19.5821 32.6667 20.0522 32.6667C20.5371 32.6667 21.0664 32.6517 21.6122 32.6267C25.0777 32.4682 27.7732 29.6575 27.944 26.2016C28.0184 24.697 28.0731 23.3525 28.0731 21.8667C28.0731 20.2072 28.0123 18.6763 27.9316 17.0226C27.7626 13.5561 25.0651 10.7296 21.589 10.5722C21.0514 10.5479 20.5302 10.5333 20.0522 10.5333C19.5934 10.5333 19.0948 10.5467 18.5801 10.5693ZM14.1379 17.4897C14.2708 14.8255 16.299 12.6494 18.9116 12.5293C19.3106 12.511 19.6973 12.5 20.0522 12.5C20.4249 12.5 20.8325 12.5121 21.2526 12.5321C23.8378 12.6553 25.8528 14.7905 25.9778 17.4274C25.9897 17.6787 26.0009 17.8929 26.0111 18.0871C26.0454 18.7453 26.0679 19.1765 26.0679 20.0706C26.0679 20.9527 26.0434 21.4546 26.0064 22.2096C26.0004 22.3309 25.9942 22.4588 25.9877 22.5958C25.8625 25.2225 23.8496 27.3427 21.2744 27.4669C20.8467 27.4876 20.4313 27.5 20.0522 27.5C19.6869 27.5 19.2879 27.4884 18.8765 27.4691C16.28 27.3472 14.2561 25.1954 14.1241 22.5474C14.1155 22.3746 14.1073 22.2163 14.0996 22.068L14.0995 22.0669C14.0618 21.338 14.0366 20.8517 14.0366 20.0706C14.0366 19.3204 14.0598 18.9084 14.0951 18.2828C14.108 18.0555 14.1224 17.7998 14.1379 17.4897Z" fill="white"/>
<path fill-rule="evenodd" clip-rule="evenodd" d="M11.4471 2.5H28.6573C32.4347 2.5 33.4109 2.89092 34.3542 3.39411C35.3726 3.93732 36.1569 4.71951 36.7015 5.73525C37.206 6.6761 37.5979 7.6498 37.5979 11.4173V12.0106C37.5979 12.2835 37.3786 12.5056 37.1053 12.5171C37.0212 12.5207 36.9361 12.5247 36.8505 12.5293C34.5645 12.6494 32.7898 14.8255 32.6735 17.4897C32.6601 17.7979 32.6475 18.0525 32.6363 18.2787L32.6361 18.2815L32.6361 18.2827C32.6052 18.9083 32.5849 19.3204 32.5849 20.0706C32.5849 20.8517 32.6069 21.3382 32.64 22.0671C32.6467 22.2156 32.6539 22.3741 32.6615 22.5474C32.7769 25.1953 34.5479 27.3472 36.8198 27.4691C36.9158 27.4743 37.0111 27.4788 37.1053 27.4828C37.3786 27.4944 37.5979 27.7165 37.5979 27.9893V28.5827C37.5979 32.3502 37.206 33.3239 36.7015 34.2648C36.1569 35.2805 35.3726 36.0627 34.3542 36.6059C33.4109 37.1091 32.4347 37.5 28.6573 37.5H11.4471C7.66978 37.5 6.69353 37.1091 5.75023 36.6059C4.73184 36.0627 3.9476 35.2805 3.40298 34.2648C2.89847 33.3239 2.50653 32.3502 2.50653 28.5827V27.9893C2.50653 27.7165 2.72583 27.4944 2.99911 27.4828C3.10655 27.4783 3.21546 27.4729 3.32529 27.4669C5.57858 27.3426 7.33982 25.2225 7.44935 22.5958C7.45497 22.461 7.46038 22.335 7.4655 22.2154L7.46575 22.2094C7.49808 21.4544 7.51959 20.9527 7.51959 20.0706C7.51959 19.1765 7.49988 18.7449 7.46981 18.0867C7.46093 17.8925 7.45116 17.6786 7.44073 17.4273C7.33135 14.7904 5.56825 12.6553 3.3062 12.5321C3.20283 12.5265 3.10033 12.5215 2.99912 12.5171C2.72584 12.5056 2.50653 12.2835 2.50653 12.0106V11.4173C2.50653 7.6498 2.89847 6.6761 3.40298 5.73525C3.9476 4.71951 4.73184 3.93732 5.75023 3.39411C6.69353 2.89092 7.66978 2.5 11.4471 2.5ZM18.5037 8.8376C14.0407 9.03355 10.6705 12.6763 10.4528 17.0018C10.3645 18.7549 10.2935 20.3614 10.2935 21.8666C10.2935 23.2735 10.3555 24.6723 10.4353 26.2386C10.6551 30.5532 14.0266 34.1621 18.4641 34.3605C19.0102 34.3849 19.5492 34.3999 20.0523 34.3999C20.571 34.3999 21.1281 34.384 21.6919 34.3582C26.0971 34.1566 29.4671 30.5898 29.6798 26.2868C29.7546 24.7742 29.811 23.3958 29.811 21.8666C29.811 20.1646 29.7486 18.6005 29.6675 16.9383C29.4574 12.6284 26.0888 9.0407 21.6679 8.8406C21.1123 8.81545 20.5637 8.79995 20.0523 8.79995C19.5612 8.79995 19.0361 8.8142 18.5037 8.8376Z" fill="white"/>
<path d="M156.018 9.915C155.264 10.6578 154.134 10.9794 152.647 10.9794C151.164 10.9794 150.004 10.6578 149.271 9.915C148.517 9.1994 148.172 8.0988 148.172 6.68115V6.5H150.586V6.68115C150.586 7.44205 150.754 7.9312 151.036 8.19845L151.045 8.2075C151.332 8.5019 151.861 8.64685 152.642 8.64685C153.424 8.64685 153.927 8.5019 154.214 8.2075L154.222 8.19845C154.513 7.9312 154.703 7.43755 154.703 6.68115V6.5H157.117V6.68115C157.117 8.10335 156.742 9.2039 156.018 9.915Z" fill="white"/>
<path fill-rule="evenodd" clip-rule="evenodd" d="M140.252 24.2227C140.485 23.9011 140.644 23.498 140.755 22.9636L140.79 22.8141H143.596L143.565 23.0224C143.424 23.9373 143.164 24.7209 142.749 25.355C142.343 26.0117 141.844 26.528 141.227 26.9175C140.613 27.307 139.916 27.5743 139.139 27.7509C138.332 27.9275 137.471 27.9864 136.532 27.9864C135.362 27.9864 134.33 27.8687 133.407 27.6014C132.48 27.3659 131.664 26.9175 131.02 26.3152C130.376 25.7082 129.882 24.8975 129.533 23.892C129.184 22.9092 129.012 21.6728 129.012 20.2098C129.012 18.7152 129.18 17.447 129.528 16.437C129.873 15.4315 130.367 14.5936 131.011 13.9596L131.016 13.955C131.655 13.3572 132.445 12.9088 133.372 12.6416H133.376C134.294 12.4061 135.327 12.2611 136.47 12.2611C138.645 12.2611 140.384 12.8227 141.668 13.9596C142.93 15.11 143.561 16.8446 143.561 19.1409V21.2651H131.841C131.858 22.0985 131.991 22.7915 132.194 23.3078C132.41 23.8603 132.732 24.2997 133.129 24.6258C133.527 24.9564 134.007 25.1738 134.577 25.287C135.159 25.4003 135.799 25.4591 136.523 25.4591C137.083 25.4591 137.582 25.432 138.076 25.3459H138.085C138.539 25.287 138.945 25.1512 139.325 24.9564L139.329 24.9519H139.334C139.695 24.7934 139.983 24.5533 140.252 24.2227ZM133.239 15.6082C132.842 15.9071 132.521 16.3193 132.277 16.8718C132.052 17.3836 131.916 18.0268 131.872 18.8511H140.688C140.675 18.0811 140.565 17.4651 140.366 16.9534C140.15 16.3963 139.881 15.9886 139.515 15.6625C139.144 15.3591 138.716 15.1417 138.204 15.0013C137.679 14.888 137.097 14.802 136.465 14.802C135.799 14.802 135.217 14.8609 134.665 14.9741C134.127 15.0828 133.641 15.3047 133.239 15.6082Z" fill="white"/>
<path d="M163.454 22.6601C163.507 22.0577 163.564 21.2832 163.564 20.3049V12.705H175.382V27.5607H172.544V15.2413H166.318V20.6537C166.318 22.9862 165.978 24.7345 165.334 25.8486C164.672 27.0172 163.59 27.5607 162.13 27.5607H161.504V24.8794H161.68C162.033 24.8794 162.311 24.8205 162.527 24.6982L162.536 24.6937L162.54 24.6892C162.743 24.5986 162.946 24.3767 163.105 24.0506C163.26 23.729 163.37 23.2897 163.454 22.6601Z" fill="white"/>
<path d="M124.454 22.6193C124.343 23.2081 124.154 23.6746 123.92 24.0279C123.651 24.4129 123.36 24.6846 123.015 24.902C122.64 25.1194 122.239 25.2598 121.775 25.3413C121.281 25.4274 120.783 25.4546 120.222 25.4546C119.468 25.4546 118.805 25.3957 118.227 25.2553C117.632 25.1149 117.155 24.8703 116.789 24.4944L116.785 24.4899C116.388 24.1094 116.092 23.5886 115.871 22.9137C115.655 22.2434 115.54 21.3376 115.54 20.2188C115.54 19.073 115.65 18.1626 115.871 17.4334C116.092 16.7269 116.388 16.1788 116.785 15.8029L116.789 15.7984C117.155 15.4225 117.632 15.1733 118.227 15.0375C118.805 14.8971 119.472 14.811 120.222 14.811C120.743 14.811 121.241 14.8654 121.691 14.9242C122.124 15.0103 122.526 15.1462 122.901 15.3636C123.245 15.581 123.54 15.8573 123.809 16.2151C124.048 16.5683 124.238 17.0077 124.343 17.5648L124.37 17.7097H127.212L127.172 17.4968C127 16.5276 126.74 15.6897 126.33 15.0239C125.923 14.3672 125.425 13.8282 124.842 13.407L124.838 13.4024C124.255 13.0129 123.554 12.714 122.777 12.5374C121.974 12.3607 121.14 12.2747 120.227 12.2747C119.053 12.2747 118.024 12.4196 117.106 12.6551H117.102C116.176 12.9223 115.359 13.3707 114.715 13.9686L114.711 13.9731C114.066 14.6072 113.572 15.4451 113.228 16.4506C112.879 17.4606 112.712 18.7288 112.712 20.2234C112.712 21.6863 112.883 22.9228 113.228 23.9056C113.572 24.9111 114.071 25.7218 114.715 26.3287C115.359 26.9311 116.176 27.3795 117.102 27.615C118.024 27.8822 119.057 28 120.227 28C121.171 28 122.031 27.9139 122.834 27.7373C123.615 27.5606 124.313 27.2617 124.926 26.8405C125.544 26.4193 126.038 25.8803 126.448 25.1919C126.859 24.5261 127.119 23.6882 127.265 22.6872L127.296 22.4789H124.489L124.454 22.6193Z" fill="white"/>
<path d="M189.158 22.6193L189.185 22.4698V22.4789H192L191.969 22.6872C191.824 23.6882 191.563 24.5261 191.153 25.1919C190.742 25.8803 190.248 26.4193 189.63 26.8405C189.017 27.2617 188.32 27.5606 187.539 27.7373C186.736 27.9139 185.875 28 184.931 28C183.762 28 182.729 27.8822 181.806 27.615C180.88 27.3795 180.063 26.9311 179.419 26.3287C178.775 25.7218 178.281 24.9111 177.932 23.9056C177.588 22.9228 177.416 21.6863 177.416 20.2234C177.416 18.7288 177.583 17.4606 177.932 16.4506C178.276 15.4451 178.771 14.6072 179.415 13.9731L179.419 13.9686C180.063 13.3707 180.88 12.9223 181.806 12.6551H181.811C182.729 12.4196 183.757 12.2747 184.931 12.2747C185.844 12.2747 186.678 12.3607 187.481 12.5374C188.262 12.714 188.96 13.0129 189.542 13.4024L189.547 13.407C190.129 13.8282 190.627 14.3672 191.033 15.0239C191.444 15.6897 191.704 16.5276 191.877 17.4968L191.916 17.7097H189.074L189.048 17.5648C188.942 17.0077 188.752 16.5683 188.514 16.2151C188.245 15.8573 187.949 15.581 187.605 15.3636C187.23 15.1462 186.828 15.0103 186.396 14.9242C185.946 14.8654 185.447 14.811 184.927 14.811C184.176 14.811 183.51 14.8971 182.932 15.0375C182.336 15.1733 181.86 15.4225 181.493 15.7984L181.489 15.8029C181.092 16.1788 180.796 16.7269 180.575 17.4334C180.355 18.1626 180.244 19.073 180.244 20.2188C180.244 21.3376 180.359 22.2434 180.575 22.9137C180.796 23.5886 181.092 24.1094 181.489 24.4899L181.493 24.4944C181.86 24.8703 182.336 25.1149 182.932 25.2553C183.51 25.3957 184.172 25.4546 184.927 25.4546C185.487 25.4546 185.985 25.4274 186.48 25.3413C186.943 25.2598 187.344 25.1194 187.72 24.902C188.064 24.6846 188.355 24.4129 188.624 24.0279C188.858 23.6746 189.048 23.2081 189.158 22.6193Z" fill="white"/>
<path fill-rule="evenodd" clip-rule="evenodd" d="M108.506 13.5202C107.337 12.6778 105.713 12.2701 103.688 12.2701C102.716 12.2701 101.83 12.3562 101.079 12.5374C100.298 12.714 99.6274 13.0129 99.0715 13.407L99.067 13.4115C98.5065 13.8372 98.0654 14.3762 97.717 15.0375C97.3641 15.7033 97.1345 16.5366 97.0197 17.5104L96.9976 17.7142H99.7513L99.7733 17.5602C99.857 16.9941 99.9894 16.5547 100.201 16.206L100.21 16.1969C100.395 15.8437 100.629 15.5764 100.942 15.3636C101.256 15.1507 101.627 15.0103 102.085 14.9288C102.531 14.8699 103.087 14.8155 103.696 14.8155C105.095 14.8155 106.035 15.0737 106.613 15.504C107.174 15.9207 107.473 16.6363 107.473 17.7052V18.7287C107.145 18.7247 106.845 18.703 106.559 18.6823L106.45 18.6744H106.432C106.075 18.6744 105.713 18.6472 105.346 18.6155H105.329C105.139 18.6155 104.954 18.611 104.755 18.6019H104.738C104.535 18.5929 104.318 18.5883 104.089 18.5883C103.877 18.5883 103.661 18.5838 103.427 18.5748H103.387C103.14 18.5657 102.875 18.5612 102.593 18.5612C101.366 18.5612 100.356 18.7061 99.5703 18.9778H99.5658C98.7893 19.2722 98.1712 19.6301 97.7255 20.092C97.2538 20.5495 96.9535 21.0658 96.777 21.6138C96.6006 22.1573 96.5429 22.7008 96.5429 23.2081C96.5429 24.0596 96.6577 24.816 96.9535 25.4319C97.2182 26.0343 97.6022 26.5506 98.1095 26.9175C98.5862 27.3115 99.1733 27.5833 99.8395 27.7599C100.51 27.9411 101.234 28 102.028 28C103.233 28 104.336 27.7916 105.324 27.3161C106.282 26.8541 107.001 26.1339 107.473 25.1692V27.5652H110.311V17.6961C110.306 15.7984 109.698 14.3717 108.506 13.5202ZM107.469 22.2977C107.416 22.9726 107.248 23.5161 106.993 23.9147C106.723 24.3268 106.379 24.6529 105.96 24.8658C105.523 25.0877 105.033 25.2553 104.486 25.3413C103.93 25.4274 103.405 25.4546 102.844 25.4546C101.609 25.4546 100.718 25.2825 100.166 24.9564C99.6495 24.6529 99.3803 24.0913 99.3803 23.1719C99.3803 22.8639 99.4069 22.5695 99.5086 22.3113L99.5172 22.2932C99.5878 22.0441 99.7598 21.7859 100.047 21.5776L100.056 21.5685C100.307 21.3647 100.722 21.1971 101.282 21.0522C101.834 20.939 102.611 20.8529 103.559 20.8529C103.828 20.8529 104.107 20.8575 104.402 20.8665H104.442C104.751 20.8756 105.077 20.8801 105.417 20.8801C106.048 20.9073 106.745 20.9345 107.473 20.9616V22.2977H107.469Z" fill="white"/>
<path fill-rule="evenodd" clip-rule="evenodd" d="M75.4189 20.0558C76.4386 20.1872 77.2682 20.477 77.8728 20.9798C78.4859 21.5459 78.8082 22.3838 78.8037 23.5252C78.8037 24.1049 78.6844 24.6167 78.5079 25.0968C78.327 25.5905 78.0272 26.0208 77.6121 26.3876C77.202 26.7499 76.7032 27.0534 76.1162 27.2617H76.1117C75.4941 27.4746 74.7968 27.5607 73.9937 27.5607H65.7417V12.705H73.3761C74.294 12.705 75.0795 12.8227 75.7192 13.0311H75.7282C76.3634 13.2666 76.8667 13.5383 77.2812 13.9052C77.6918 14.2721 77.9961 14.6706 78.1771 15.1371C78.3535 15.5901 78.4418 16.0475 78.4418 16.5367C78.4418 17.6101 78.1505 18.4751 77.5991 19.0413L77.5946 19.0458C77.0562 19.5712 76.3328 19.8973 75.4189 20.006V20.0558ZM73.1821 15.2413H68.5836V18.8465H73.6939C74.4614 18.8465 74.9602 18.6518 75.2204 18.3121C75.4811 17.9362 75.6355 17.5104 75.6355 16.9715C75.6355 16.7042 75.5868 16.4642 75.5297 16.2332C75.4856 16.0566 75.3748 15.9116 75.2119 15.7441C75.0439 15.5991 74.7968 15.4904 74.4614 15.3772C74.1396 15.2957 73.7024 15.2413 73.1821 15.2413ZM73.4332 25.0243C74.2363 25.0243 74.8544 24.8839 75.3267 24.6122C75.7633 24.3631 75.9974 23.9102 75.9974 23.2036C75.9974 22.6329 75.8385 22.1845 75.5297 21.8131C75.2424 21.4735 74.6379 21.2696 73.6583 21.2696H68.5836V25.0243H73.4332Z" fill="white"/>
<path d="M83.8654 22.7009V12.705H81.0235V27.5607H82.6913L91.4201 17.6735V27.5607H94.2575V12.705H92.5891L83.8654 22.7009Z" fill="white"/>
<path fill-rule="evenodd" clip-rule="evenodd" d="M56.2811 12.2701C58.3063 12.2701 59.9306 12.6778 61.0996 13.5202C62.2867 14.3717 62.8958 15.7984 62.8958 17.6961V27.5606H60.0584V25.1647C59.5862 26.1294 58.8713 26.8496 57.9093 27.3115C56.9207 27.7871 55.8179 27.9954 54.6132 27.9954C53.8186 27.9954 53.0948 27.9366 52.4245 27.7554C51.7578 27.5788 51.1713 27.307 50.6945 26.913C50.1872 26.5461 49.8031 26.0298 49.5383 25.4274C49.2427 24.8114 49.1279 24.0551 49.1279 23.2036C49.1279 22.6963 49.1853 22.1528 49.3618 21.6093C49.5383 21.0613 49.8384 20.5449 50.3105 20.0875C50.7607 19.6301 51.3783 19.2722 52.1463 18.9778H52.1508C52.9363 18.7061 53.9465 18.5612 55.1732 18.5612C55.4559 18.5612 55.7206 18.5657 55.9677 18.5748H56.0073C56.2415 18.5838 56.4575 18.5883 56.6696 18.5883C56.8987 18.5883 57.1152 18.5929 57.3183 18.6019H57.3358C57.5343 18.611 57.7198 18.6155 57.9093 18.6155H57.9268C58.2978 18.6472 58.6597 18.6744 59.0172 18.6744H59.0347L59.144 18.6823C59.4293 18.703 59.73 18.7247 60.0584 18.7287V17.6961C60.0584 16.6272 59.7581 15.9116 59.1977 15.4949C58.6196 15.0646 57.6797 14.8065 56.2811 14.8065C55.672 14.8065 55.116 14.8608 54.6704 14.9197C54.2072 15.0012 53.8407 15.1416 53.5274 15.3545C53.2141 15.5674 52.9805 15.8346 52.795 16.1879L52.7905 16.1924V16.2015C52.5829 16.5502 52.4466 16.9895 52.3624 17.5557L52.3403 17.7097H49.5869L49.6089 17.5059C49.7236 16.5321 49.9531 15.6987 50.306 15.0329C50.6549 14.3717 51.0961 13.8327 51.6565 13.407L51.661 13.4024C52.217 13.0084 52.8877 12.714 53.6733 12.5374C54.4232 12.3562 55.31 12.2701 56.2811 12.2701ZM59.5817 23.9147C59.8378 23.5161 60.0007 22.9726 60.0584 22.2977H60.0629V20.9616C59.3345 20.9345 58.6332 20.9073 58.0065 20.8801C57.6667 20.8801 57.3403 20.8756 57.031 20.8665H56.9914C56.6956 20.8575 56.4179 20.8529 56.1487 20.8529C55.1997 20.8529 54.4232 20.939 53.8718 21.0522C53.3113 21.1971 52.8962 21.3647 52.6451 21.5685L52.6361 21.5776C52.3493 21.7859 52.1774 22.0441 52.1067 22.2932L52.0977 22.3113C51.9964 22.5695 51.9698 22.8639 51.9698 23.1719C51.9698 24.0913 52.239 24.6529 52.7554 24.9564C53.3068 25.2825 54.1981 25.4546 55.4339 25.4546C55.9943 25.4546 56.5192 25.4274 57.0751 25.3413C57.6225 25.2553 58.1123 25.0877 58.549 24.8658C58.9686 24.6529 59.317 24.3268 59.5817 23.9147Z" fill="white"/>
<path d="M148.87 22.7009V12.705H146.032V27.5607H147.696L156.424 17.6735V27.5607H159.262V12.705H157.594L148.87 22.7009Z" fill="white"/>
</svg>
