<svg width="135" height="28" viewBox="0 0 135 28" fill="none" xmlns="http://www.w3.org/2000/svg">
<g clip-path="url(#clip0_418_13855)">
<path fill-rule="evenodd" clip-rule="evenodd" d="M7.99211 0L20.0079 0C22.7869 0 23.7947 0.289355 24.8106 0.832703C25.8266 1.37605 26.6239 2.17339 27.1673 3.18936C27.7106 4.20534 28 5.21308 28 7.99211V20.0079C28 22.7869 27.7106 23.7947 27.1673 24.8106C26.6239 25.8266 25.8266 26.6239 24.8106 27.1673C23.7947 27.7106 22.7869 28 20.0079 28H7.99211C5.21308 28 4.20534 27.7106 3.18936 27.1673C2.17339 26.6239 1.37605 25.8266 0.832703 24.8106C0.289355 23.7947 0 22.7869 0 20.0079L0 7.99211C0 5.21308 0.289355 4.20534 0.832703 3.18936C1.37605 2.17339 2.17339 1.37605 3.18936 0.832703C4.20534 0.289355 5.21308 0 7.99211 0Z" fill="#0C73FE"/>
<path fill-rule="evenodd" clip-rule="evenodd" d="M7.99211 0L20.0079 0C22.7869 0 23.7947 0.289355 24.8106 0.832703C25.8266 1.37605 26.6239 2.17339 27.1673 3.18936C27.7106 4.20534 28 5.21308 28 7.99211V20.0079C28 22.7869 27.7106 23.7947 27.1673 24.8106C26.6239 25.8266 25.8266 26.6239 24.8106 27.1673C23.7947 27.7106 22.7869 28 20.0079 28H7.99211C5.21308 28 4.20534 27.7106 3.18936 27.1673C2.17339 26.6239 1.37605 25.8266 0.832703 24.8106C0.289355 23.7947 0 22.7869 0 20.0079L0 7.99211C0 5.21308 0.289355 4.20534 0.832703 3.18936C1.37605 2.17339 2.17339 1.37605 3.18936 0.832703C4.20534 0.289355 5.21308 0 7.99211 0Z" fill="black" fill-opacity="0.2"/>
<path d="M11.6735 15.05C11.412 15.05 11.2 15.262 11.2 15.5235V15.767L11.2006 15.7788C11.2499 16.7643 11.9934 17.7513 13.2585 17.8486L13.2767 17.85H13.5265C13.788 17.85 14 17.638 14 17.3765C14 17.1149 13.788 16.9029 13.5265 16.9029H13.3142C12.587 16.8391 12.1795 16.2926 12.1471 15.7423V15.5235C12.1471 15.262 11.9351 15.05 11.6735 15.05Z" fill="white"/>
<path fill-rule="evenodd" clip-rule="evenodd" d="M12.9721 7.39852C10.5246 7.50626 8.6325 9.51534 8.50965 11.9621C8.44803 13.1894 8.39998 14.2866 8.39998 15.3067C8.39998 16.2581 8.44178 17.2106 8.49741 18.3055C8.62111 20.7401 10.5101 22.7311 12.9455 22.8403C13.3143 22.8568 13.6717 22.8667 14 22.8667C14.3385 22.8667 14.7081 22.8562 15.0891 22.8387C17.5087 22.7277 19.3906 20.7602 19.5099 18.3411C19.5618 17.2879 19.6 16.3467 19.6 15.3067C19.6 14.145 19.5575 13.0734 19.5012 11.9158C19.3832 9.48922 17.4999 7.51069 15.0729 7.40054C14.6976 7.3835 14.3337 7.37332 14 7.37332C13.6796 7.37332 13.3315 7.3827 12.9721 7.39852ZM9.87072 12.2427C9.96352 10.3778 11.3796 8.85454 13.2036 8.77049C13.4822 8.75765 13.7522 8.75 14 8.75C14.2602 8.75 14.5448 8.75843 14.8381 8.77244C16.643 8.85866 18.0498 10.3533 18.1371 12.1991C18.1454 12.375 18.1532 12.525 18.1603 12.6609C18.1843 13.1217 18.2 13.4236 18.2 14.0494C18.2 14.6668 18.1828 15.0182 18.157 15.5467C18.1529 15.6316 18.1485 15.7211 18.144 15.817C18.0566 17.6557 16.6512 19.1398 14.8533 19.2268C14.5546 19.2413 14.2647 19.25 14 19.25C13.7449 19.25 13.4663 19.2419 13.1791 19.2284C11.3663 19.143 9.95325 17.6367 9.86111 15.7832C9.85509 15.6622 9.84937 15.5514 9.844 15.4476L9.84396 15.4468C9.8176 14.9366 9.8 14.5962 9.8 14.0494C9.8 13.5243 9.81624 13.2359 9.84089 12.7979C9.84984 12.6388 9.85991 12.4599 9.87072 12.2427Z" fill="white"/>
<path fill-rule="evenodd" clip-rule="evenodd" d="M7.99211 1.75H20.0079C22.6451 1.75 23.3267 2.02365 23.9853 2.37588C24.6963 2.75612 25.2439 3.30366 25.6241 4.01466C25.9764 4.67328 26.25 5.35487 26.25 7.99211V8.40746C26.25 8.59843 26.0969 8.75393 25.9061 8.76201C25.8473 8.7645 25.788 8.76734 25.7282 8.77049C24.1322 8.85454 22.8931 10.3778 22.8119 12.2427C22.8025 12.4585 22.7937 12.6368 22.7859 12.7951L22.7858 12.7971L22.7858 12.7979C22.7642 13.2359 22.75 13.5243 22.75 14.0494C22.75 14.5962 22.7654 14.9367 22.7885 15.4469C22.7932 15.5509 22.7982 15.6619 22.8035 15.7832C22.8841 17.6367 24.1205 19.143 25.7067 19.2284C25.7738 19.232 25.8403 19.2352 25.9061 19.238C26.0969 19.2461 26.25 19.4016 26.25 19.5925V20.0079C26.25 22.6451 25.9764 23.3267 25.6241 23.9853C25.2439 24.6963 24.6963 25.2439 23.9853 25.6241C23.3267 25.9764 22.6451 26.25 20.0079 26.25H7.99211C5.35487 26.25 4.67328 25.9764 4.01466 25.6241C3.30366 25.2439 2.75612 24.6963 2.37588 23.9853C2.02364 23.3267 1.75 22.6451 1.75 20.0079V19.5925C1.75 19.4016 1.90311 19.2461 2.09391 19.238C2.16892 19.2348 2.24495 19.2311 2.32164 19.2268C3.89483 19.1398 5.12449 17.6557 5.20096 15.817C5.20489 15.7227 5.20866 15.6345 5.21223 15.5508L5.21241 15.5466C5.23499 15.0181 5.25 14.6669 5.25 14.0494C5.25 13.4236 5.23624 13.1214 5.21525 12.6607C5.20906 12.5248 5.20224 12.375 5.19496 12.1991C5.11856 10.3533 3.88762 8.85866 2.30831 8.77244C2.23614 8.7685 2.16458 8.76501 2.09392 8.76201C1.90311 8.75393 1.75 8.59843 1.75 8.40746V7.99211C1.75 5.35487 2.02364 4.67328 2.37588 4.01466C2.75612 3.30366 3.30366 2.75612 4.01466 2.37588C4.67328 2.02365 5.35487 1.75 7.99211 1.75ZM12.9188 6.18632C9.80289 6.32348 7.44993 8.8734 7.2979 11.9012C7.23628 13.1284 7.18671 14.253 7.18671 15.3066C7.18671 16.2914 7.22999 17.2706 7.2857 18.367C7.43916 21.3872 9.79302 23.9135 12.8912 24.0523C13.2725 24.0694 13.6488 24.0799 14 24.0799C14.3622 24.0799 14.7511 24.0688 15.1448 24.0507C18.2204 23.9096 20.5733 21.4129 20.7218 18.4008C20.774 17.3419 20.8134 16.377 20.8134 15.3066C20.8134 14.1152 20.7698 13.0204 20.7132 11.8568C20.5664 8.8399 18.2146 6.32851 15.128 6.18841C14.7401 6.17081 14.3571 6.15995 14 6.15995C13.6572 6.15995 13.2906 6.16996 12.9188 6.18632Z" fill="white"/>
<path d="M108.929 6.94128C108.402 7.46123 107.614 7.68633 106.575 7.68633C105.54 7.68633 104.73 7.46123 104.219 6.94128C103.692 6.44035 103.451 5.66994 103.451 4.6776V4.55078H105.137V4.6776C105.137 5.21023 105.254 5.55264 105.451 5.73969L105.457 5.74603C105.657 5.95211 106.027 6.05356 106.572 6.05356C107.118 6.05356 107.469 5.95211 107.669 5.74603L107.675 5.73969C107.879 5.55264 108.011 5.20706 108.011 4.6776V4.55078H109.696V4.6776C109.696 5.67311 109.434 6.44352 108.929 6.94128Z" fill="#0C131D"/>
<path fill-rule="evenodd" clip-rule="evenodd" d="M97.9212 16.9566C98.0845 16.7315 98.1954 16.4494 98.2724 16.0753L98.2971 15.9706H100.257L100.235 16.1165C100.136 16.7569 99.9546 17.3054 99.665 17.7492C99.3815 18.209 99.0334 18.5704 98.6021 18.843C98.1738 19.1157 97.687 19.3028 97.1448 19.4264C96.581 19.55 95.9802 19.5913 95.324 19.5913C94.5076 19.5913 93.7866 19.5088 93.1427 19.3218C92.4957 19.1569 91.9258 18.843 91.476 18.4214C91.0262 17.9965 90.6811 17.429 90.4377 16.7252C90.1943 16.0372 90.0742 15.1717 90.0742 14.1476C90.0742 13.1014 90.1912 12.2137 90.4346 11.5067C90.6749 10.8028 91.02 10.2163 91.4698 9.77246L91.4729 9.76929C91.9196 9.35079 92.4711 9.03692 93.1181 8.84987H93.1212C93.762 8.685 94.4829 8.58355 95.2809 8.58355C96.7997 8.58355 98.0136 8.97668 98.9102 9.77246C99.7913 10.5777 100.232 11.792 100.232 13.3994V14.8864H92.049C92.0613 15.4697 92.1538 15.9548 92.2955 16.3162C92.4464 16.703 92.6714 17.0105 92.9486 17.2388C93.2259 17.4702 93.5617 17.6224 93.9592 17.7017C94.3658 17.7809 94.8126 17.8222 95.3178 17.8222C95.7091 17.8222 96.0573 17.8031 96.4023 17.7429H96.4085C96.7258 17.7017 97.0092 17.6066 97.2742 17.4702L97.2773 17.4671H97.2804C97.533 17.3561 97.7333 17.1881 97.9212 16.9566ZM93.0257 10.9265C92.7484 11.1357 92.5235 11.4242 92.354 11.811C92.1969 12.1693 92.1014 12.6195 92.0706 13.1965H98.2262C98.217 12.6575 98.1399 12.2264 98.0013 11.8681C97.8503 11.4781 97.6624 11.1928 97.4067 10.9645C97.1479 10.7521 96.849 10.5999 96.4917 10.5017C96.125 10.4224 95.7183 10.3622 95.2778 10.3622C94.8126 10.3622 94.4059 10.4034 94.0208 10.4826C93.6449 10.5587 93.306 10.7141 93.0257 10.9265Z" fill="#0C131D"/>
<path d="M114.12 15.8628C114.157 15.4412 114.198 14.899 114.198 14.2142V8.89425H122.448V19.2932H120.467V10.6697H116.12V14.4583C116.12 16.0911 115.883 17.3149 115.433 18.0948C114.971 18.9128 114.216 19.2932 113.196 19.2932H112.759V17.4163H112.882C113.128 17.4163 113.323 17.3751 113.473 17.2895L113.48 17.2864L113.483 17.2832C113.624 17.2198 113.766 17.0644 113.877 16.8362C113.985 16.6111 114.062 16.3035 114.12 15.8628Z" fill="#0C131D"/>
<path d="M86.8916 15.8343C86.8146 16.2465 86.6821 16.573 86.5188 16.8203C86.3309 17.0898 86.1276 17.28 85.8872 17.4322C85.6254 17.5844 85.345 17.6827 85.0215 17.7397C84.6765 17.8 84.3283 17.819 83.937 17.819C83.4102 17.819 82.9481 17.7778 82.5445 17.6795C82.1286 17.5812 81.7958 17.41 81.5401 17.1469L81.537 17.1437C81.2598 16.8774 81.0533 16.5128 80.8993 16.0404C80.7483 15.5712 80.6682 14.9371 80.6682 14.154C80.6682 13.3519 80.7452 12.7146 80.8993 12.2042C81.0533 11.7096 81.2598 11.326 81.537 11.0628L81.5401 11.0597C81.7958 10.7965 82.1286 10.6221 82.5445 10.527C82.9481 10.4287 83.4133 10.3685 83.937 10.3685C84.3006 10.3685 84.6487 10.4066 84.963 10.4478C85.2649 10.508 85.5453 10.6031 85.8071 10.7553C86.0475 10.9075 86.2539 11.1009 86.4418 11.3513C86.6082 11.5986 86.7407 11.9062 86.8146 12.2961L86.8331 12.3976H88.8172L88.7894 12.2486C88.6693 11.5701 88.4875 10.9836 88.201 10.5175C87.9176 10.0578 87.5694 9.68053 87.1627 9.38568L87.1597 9.38251C86.753 9.10985 86.2631 8.9006 85.7209 8.77696C85.1602 8.65331 84.5779 8.59307 83.9401 8.59307C83.1206 8.59307 82.4028 8.69452 81.7619 8.85939H81.7589C81.1119 9.04644 80.5419 9.36031 80.0921 9.77881L80.089 9.78198C79.6392 10.2258 79.2941 10.8124 79.0538 11.5162C78.8104 12.2232 78.6934 13.1109 78.6934 14.1572C78.6934 15.1812 78.8135 16.0467 79.0538 16.7347C79.2941 17.4386 79.6423 18.0061 80.0921 18.4309C80.5419 18.8526 81.1119 19.1664 81.7589 19.3313C82.4028 19.5183 83.1237 19.6008 83.9401 19.6008C84.5994 19.6008 85.2002 19.5405 85.7609 19.4169C86.3062 19.2933 86.793 19.084 87.2213 18.7892C87.6526 18.4943 87.9977 18.117 88.2842 17.6351C88.5707 17.1691 88.7525 16.5825 88.8541 15.8819L88.8757 15.736H86.9163L86.8916 15.8343Z" fill="#0C131D"/>
<path d="M132.067 15.8343L132.085 15.7297V15.736H134.051L134.029 15.8819C133.928 16.5825 133.746 17.1691 133.459 17.6351C133.173 18.117 132.828 18.4943 132.396 18.7892C131.968 19.084 131.481 19.2933 130.936 19.4169C130.375 19.5405 129.775 19.6008 129.115 19.6008C128.299 19.6008 127.578 19.5183 126.934 19.3313C126.287 19.1664 125.717 18.8526 125.267 18.4309C124.817 18.0061 124.472 17.4386 124.229 16.7347C123.989 16.0467 123.868 15.1812 123.868 14.1572C123.868 13.1109 123.986 12.2232 124.229 11.5162C124.469 10.8124 124.814 10.2258 125.264 9.78198L125.267 9.77881C125.717 9.36031 126.287 9.04644 126.934 8.85939H126.937C127.578 8.69452 128.296 8.59307 129.115 8.59307C129.753 8.59307 130.335 8.65331 130.896 8.77696C131.441 8.9006 131.928 9.10985 132.335 9.38251L132.338 9.38568C132.744 9.68053 133.093 10.0578 133.376 10.5175C133.663 10.9836 133.844 11.5701 133.965 12.2486L133.992 12.3976H132.008L131.99 12.2961C131.916 11.9062 131.783 11.5986 131.617 11.3513C131.429 11.1009 131.223 10.9075 130.982 10.7553C130.72 10.6031 130.44 10.508 130.138 10.4478C129.824 10.4066 129.476 10.3685 129.112 10.3685C128.588 10.3685 128.123 10.4287 127.72 10.527C127.304 10.6221 126.971 10.7965 126.715 11.0597L126.712 11.0628C126.435 11.326 126.228 11.7096 126.074 12.2042C125.92 12.7146 125.843 13.3519 125.843 14.154C125.843 14.9371 125.923 15.5712 126.074 16.0404C126.228 16.5128 126.435 16.8774 126.712 17.1437L126.715 17.1469C126.971 17.41 127.304 17.5812 127.72 17.6795C128.123 17.7778 128.585 17.819 129.112 17.819C129.503 17.819 129.852 17.8 130.197 17.7397C130.52 17.6827 130.8 17.5844 131.062 17.4322C131.303 17.28 131.506 17.0898 131.694 16.8203C131.857 16.573 131.99 16.2465 132.067 15.8343Z" fill="#0C131D"/>
<path fill-rule="evenodd" clip-rule="evenodd" d="M75.7572 9.46493C74.9408 8.87524 73.807 8.5899 72.3929 8.5899C71.7151 8.5899 71.0958 8.65014 70.5721 8.77695C70.0268 8.9006 69.5585 9.10985 69.1703 9.38567L69.1672 9.38884C68.7759 9.68686 68.4678 10.0641 68.2245 10.527C67.978 10.9931 67.8178 11.5764 67.7377 12.2581L67.7223 12.4007H69.6447L69.6602 12.293C69.7187 11.8966 69.8111 11.5891 69.959 11.345L69.9652 11.3387C70.0946 11.0914 70.2578 10.9043 70.4766 10.7553C70.6953 10.6063 70.9541 10.508 71.2745 10.4509C71.5857 10.4097 71.9739 10.3717 72.3991 10.3717C73.3757 10.3717 74.0319 10.5524 74.4355 10.8536C74.8268 11.1453 75.0363 11.6462 75.0363 12.3944V13.1109C74.8071 13.1081 74.5972 13.0929 74.3981 13.0784L74.3215 13.0729H74.3092C74.0597 13.0729 73.807 13.0539 73.5513 13.0317H73.539C73.4065 13.0317 73.2771 13.0285 73.1385 13.0221H73.1262C72.9844 13.0158 72.8335 13.0126 72.6733 13.0126C72.5254 13.0126 72.3744 13.0095 72.2111 13.0031H72.1834C72.0109 12.9968 71.826 12.9936 71.6288 12.9936C70.7724 12.9936 70.0668 13.0951 69.5184 13.2853H69.5154C68.9731 13.4914 68.5418 13.7418 68.2306 14.0652C67.901 14.3854 67.6915 14.7469 67.5682 15.1305C67.445 15.5109 67.4049 15.8914 67.4049 16.2465C67.4049 16.8425 67.485 17.372 67.6915 17.8031C67.8763 18.2248 68.1444 18.5862 68.4987 18.843C68.8314 19.1189 69.2411 19.3091 69.7064 19.4327C70.1747 19.5596 70.6799 19.6008 71.2345 19.6008C72.0756 19.6008 72.8458 19.4549 73.5359 19.122C74.2045 18.7987 74.7066 18.2946 75.0363 17.6193V19.2964H77.0173V12.3881C77.0142 11.0597 76.5891 10.061 75.7572 9.46493ZM75.0332 15.6092C74.9963 16.0816 74.8792 16.4621 74.7005 16.7411C74.5126 17.0296 74.2722 17.2578 73.9796 17.4068C73.6746 17.5622 73.3326 17.6795 72.9505 17.7397C72.5624 17.8 72.1957 17.819 71.8045 17.819C70.9418 17.819 70.3195 17.6985 69.9344 17.4703C69.5739 17.2578 69.386 16.8647 69.386 16.2211C69.386 16.0055 69.4044 15.7994 69.4753 15.6187L69.4815 15.606C69.5308 15.4317 69.6509 15.251 69.8512 15.1051L69.8573 15.0988C70.0329 14.9561 70.3225 14.8388 70.7138 14.7373C71.0989 14.6581 71.6412 14.5979 72.3036 14.5979C72.4915 14.5979 72.6856 14.601 72.892 14.6074H72.9197C73.1354 14.6137 73.3634 14.6169 73.6006 14.6169C74.0412 14.6359 74.528 14.6549 75.0363 14.6739V15.6092H75.0332Z" fill="#0C131D"/>
<path fill-rule="evenodd" clip-rule="evenodd" d="M52.6567 14.0398C53.3684 14.1318 53.9476 14.3347 54.3697 14.6866C54.7979 15.0829 55.0228 15.6694 55.0197 16.4684C55.0197 16.8742 54.9366 17.2325 54.8133 17.5685C54.687 17.9141 54.4775 18.2153 54.1879 18.4721C53.9014 18.7257 53.5532 18.9381 53.1435 19.084H53.1404C52.7091 19.233 52.2223 19.2932 51.6616 19.2932H45.9003V8.89425H51.2302C51.8711 8.89425 52.4195 8.97668 52.8662 9.12252H52.8724C53.316 9.28738 53.6672 9.4776 53.9568 9.73441C54.2434 9.99121 54.4559 10.2702 54.5823 10.5968C54.7055 10.9138 54.7671 11.234 54.7671 11.5764C54.7671 12.3278 54.5638 12.9334 54.1787 13.3297L54.1756 13.3328C53.7997 13.7006 53.2944 13.9289 52.6567 14.005V14.0398ZM51.0947 10.6697H47.8844V13.1933H51.4521C51.9881 13.1933 52.3363 13.057 52.5181 12.8192C52.6998 12.5561 52.8077 12.2581 52.8077 11.8808C52.8077 11.6937 52.7738 11.5257 52.7337 11.364C52.7029 11.2404 52.6259 11.1389 52.5119 11.0216C52.3948 10.9201 52.2223 10.8441 51.9881 10.7648C51.7632 10.7077 51.4582 10.6697 51.0947 10.6697ZM51.2703 17.5178C51.831 17.5178 52.2623 17.4195 52.592 17.2293C52.897 17.0549 53.0603 16.7379 53.0603 16.2433C53.0603 15.8438 52.9494 15.5299 52.7337 15.27C52.5335 15.0322 52.1114 14.8895 51.4274 14.8895H47.8844V17.5178H51.2703Z" fill="#0C131D"/>
<path d="M58.5536 15.8914V8.89425H56.5695V19.2932H57.734L63.828 12.3722V19.2932H65.8091V8.89425H64.6445L58.5536 15.8914Z" fill="#0C131D"/>
<path fill-rule="evenodd" clip-rule="evenodd" d="M39.2949 8.5899C40.709 8.5899 41.8428 8.87524 42.6592 9.46493C43.488 10.061 43.9132 11.0597 43.9132 12.3881V19.2932H41.9321V17.6161C41.6025 18.2914 41.1034 18.7955 40.4318 19.1189C39.7416 19.4518 38.9714 19.5976 38.1303 19.5976C37.5758 19.5976 37.0705 19.5564 36.6022 19.4296C36.137 19.3059 35.7272 19.1157 35.3945 18.8399C35.0402 18.5831 34.7722 18.2216 34.5873 17.8C34.3809 17.3688 34.3008 16.8393 34.3008 16.2433C34.3008 15.8882 34.3408 15.5078 34.4641 15.1273C34.5873 14.7437 34.7968 14.3823 35.1265 14.062C35.4407 13.7418 35.872 13.4914 36.4081 13.2853H36.4112C36.9596 13.0951 37.6651 12.9936 38.5216 12.9936C38.7188 12.9936 38.9036 12.9968 39.0762 13.0031H39.1039C39.2672 13.0095 39.4181 13.0126 39.566 13.0126C39.7262 13.0126 39.8772 13.0158 40.0189 13.0221H40.0312C40.1699 13.0285 40.2993 13.0317 40.4318 13.0317H40.4441C40.7029 13.0539 40.9555 13.0729 41.2051 13.0729H41.2174L41.2939 13.0784C41.493 13.0929 41.7029 13.1081 41.9321 13.1109V12.3881C41.9321 11.6398 41.7226 11.1389 41.3314 10.8472C40.9278 10.546 40.2715 10.3653 39.2949 10.3653C38.8697 10.3653 38.4816 10.4034 38.1704 10.4446C37.8469 10.5017 37.5912 10.5999 37.3724 10.749C37.1537 10.898 36.9904 11.085 36.861 11.3323L36.8579 11.3355V11.3418C36.7131 11.5859 36.6176 11.8935 36.5591 12.2898L36.5437 12.3976H34.6212L34.6366 12.2549C34.7167 11.5733 34.8769 10.9899 35.1234 10.5239C35.3668 10.061 35.6749 9.68369 36.0661 9.38567L36.0692 9.3825C36.4574 9.10668 36.9257 8.9006 37.4741 8.77695C37.9979 8.65014 38.6171 8.5899 39.2949 8.5899ZM41.5994 16.7411C41.7781 16.4621 41.8921 16.0816 41.9321 15.6092H41.9352V14.6739C41.4269 14.6549 40.937 14.6359 40.4995 14.6169C40.2623 14.6169 40.0343 14.6137 39.8187 14.6074H39.7909C39.5845 14.601 39.3904 14.5979 39.2025 14.5979C38.5401 14.5979 37.9979 14.6581 37.6127 14.7373C37.2215 14.8388 36.9319 14.9561 36.7563 15.0988L36.7501 15.1051C36.5498 15.251 36.4297 15.4317 36.3804 15.606L36.3742 15.6187C36.3034 15.7994 36.2849 16.0055 36.2849 16.2211C36.2849 16.8647 36.4728 17.2578 36.8333 17.4703C37.2184 17.6985 37.8407 17.819 38.7034 17.819C39.0946 17.819 39.4613 17.8 39.8495 17.7397C40.2315 17.6795 40.5735 17.5622 40.8785 17.4068C41.1712 17.2578 41.4146 17.0296 41.5994 16.7411Z" fill="#0C131D"/>
<path d="M103.938 15.8914V8.89425H101.957V19.2932H103.119L109.213 12.3722V19.2932H111.194V8.89425H110.029L103.938 15.8914Z" fill="#0C131D"/>
</g>
<defs>
<clipPath id="clip0_418_13855">
<rect width="134.05" height="28" fill="white"/>
</clipPath>
</defs>
</svg>
