<svg width="78" height="28" viewBox="0 0 78 28" fill="none" xmlns="http://www.w3.org/2000/svg">
<g clip-path="url(#clip0_418_13862)">
<mask id="mask0_418_13862" style="mask-type:luminance" maskUnits="userSpaceOnUse" x="0" y="-3" width="73" height="28">
<path d="M72.9492 -2.94531H0.101562V24.1683H72.9492V-2.94531Z" fill="white"/>
</mask>
<g mask="url(#mask0_418_13862)">
<mask id="mask1_418_13862" style="mask-type:luminance" maskUnits="userSpaceOnUse" x="0" y="-3" width="73" height="28">
<path d="M72.9492 -2.94531H0.101562V24.1683H72.9492V-2.94531Z" fill="white"/>
</mask>
<g mask="url(#mask1_418_13862)">
<mask id="mask2_418_13862" style="mask-type:luminance" maskUnits="userSpaceOnUse" x="0" y="-3" width="73" height="28">
<path d="M72.916 -2.85938H0.183594V24.1181H72.916V-2.85938Z" fill="white"/>
</mask>
<g mask="url(#mask2_418_13862)">
<path d="M66.2241 0.692007C64.5275 0.692007 63.4174 1.96967 63.4174 3.53009C63.4174 5.21619 64.7056 6.34723 66.2974 6.34723C67.8892 6.34723 69.0203 5.21619 69.0203 3.53009C69.0203 1.96967 67.8788 0.692007 66.2136 0.692007M67.7112 5.28949C67.3028 5.28949 67.1771 5.09051 66.9048 4.73444L66.3288 3.95947C66.2031 3.78143 66.0984 3.63482 65.9727 3.63482V3.56151C66.6325 3.56151 66.8525 3.18449 66.8525 2.66086C66.8525 2.21054 66.6221 1.90683 66.1403 1.90683H65.8366V4.56688C65.8366 5.04862 65.8366 5.21619 66.2869 5.2476V5.32091H64.6951V5.2476C65.1454 5.21619 65.1454 5.04862 65.1454 4.56688V2.35716C65.1454 1.90683 65.1454 1.85447 64.716 1.80211V1.7288H66.2555C66.9362 1.7288 67.617 1.98014 67.617 2.55614C67.617 3.05882 67.2399 3.31017 66.7058 3.50915L66.7582 3.43584L67.6903 4.7135C67.973 5.11146 68.1196 5.21619 68.2663 5.21619V5.28949H67.6798H67.7112ZM66.2974 6.69283C64.3495 6.69283 63.0195 5.34186 63.0195 3.53009C63.0195 1.71833 64.36 0.335938 66.2241 0.335938C68.0882 0.335938 69.4287 1.79163 69.4287 3.53009C69.4287 5.26855 68.1406 6.69283 66.2974 6.69283ZM28.2922 0.54539C26.826 0.54539 25.9463 1.67643 25.9463 2.93315C25.9463 4.26318 26.8575 5.2476 28.3236 5.2476C29.7165 5.2476 30.5752 4.26318 30.5752 2.93315C30.5752 1.60313 29.6955 0.54539 28.3027 0.54539M26.9308 18.3908C26.9308 21.0508 26.7004 21.9305 25.6636 22.0352L24.9095 22.1085V22.3389H32.5127V22.1085L31.8005 22.0352C30.7952 21.9305 30.5333 21.0613 30.5333 18.3908V6.64046L30.4286 6.5881C29.1405 7.21646 26.7423 7.93907 24.8258 8.22183V8.47318L25.4541 8.44176C25.9882 8.42081 26.4595 8.61979 26.6689 9.01775C26.9412 9.5728 26.9203 10.4211 26.9203 11.6987V18.3803L26.9308 18.3908ZM50.4837 5.21619V18.4222C50.4837 21.0822 50.2324 21.941 49.2165 22.0352L48.4625 22.1085V22.3389H55.8876V22.1085L55.3116 22.0352C54.3062 21.9096 54.0968 21.0613 54.0968 18.3908V10.9657C54.9555 10.0127 55.9609 9.50997 57.4585 9.50997C59.354 9.50997 60.4641 10.7876 60.4641 13.4791V18.4222C60.4641 21.0822 60.1919 21.941 59.2493 22.0352L58.5686 22.1085V22.3389H65.9937V22.1085L65.3339 22.0352C64.3285 21.9096 64.0667 21.0613 64.0667 18.3908V12.6413C64.0667 8.77688 61.9931 7.26882 59.3226 7.26882C56.9977 7.26882 55.1545 9.02822 54.0968 10.3582V0.440664L53.9187 0.388301C52.6306 1.01666 50.3057 1.73927 48.3892 2.02203V2.27338L49.0175 2.24196C49.5202 2.22101 50.0229 2.36763 50.2324 2.76559C50.5151 3.32064 50.4837 3.91758 50.4837 5.20571M6.02738 18.3908C6.02738 21.0508 5.75509 21.9096 4.54026 22.0352L3.82812 22.1085V22.3389H11.9339V22.1085L11.2218 22.0352C10.0384 21.9096 9.70327 21.0613 9.70327 18.3908V0.974768H11.2218C14.196 0.974768 15.945 3.03788 15.945 6.27392C15.945 9.9184 13.1907 11.2694 11.0228 11.2694H10.7924V11.4998C11.3998 11.6045 12.1015 12.7041 12.8346 13.8561C13.8714 15.4898 15.1805 17.7205 16.2696 19.4799C17.5787 21.6163 18.7412 22.3389 21.3907 22.3389H24.0717V22.1085L23.6214 22.0352C22.0296 21.7839 20.511 18.9982 19.1286 16.8618C17.9452 15.029 16.0497 12.191 15.3166 11.1123C17.8196 10.0336 20.0398 8.3475 20.0398 5.3628C20.0398 1.96967 17.0132 0.34641 11.8292 0.34641H3.82812V0.576808L4.54026 0.650117C5.75509 0.775788 6.02738 1.63454 6.02738 4.29459V18.4012V18.3908ZM46.9754 17.5844C46.1376 19.061 44.6819 20.1397 42.6292 20.1397C40.0844 20.1397 37.7804 17.731 37.7804 13.9608C37.7804 10.5468 39.3722 7.8134 41.4458 7.8134C42.3255 7.8134 42.7549 8.26372 43.0063 8.74546C43.3204 9.3424 43.2785 10.1488 43.31 10.8819C43.3309 11.8349 43.8126 12.5156 44.9018 12.5156C45.991 12.5156 46.5984 11.8139 46.5984 10.7876C46.5984 8.55696 44.2001 7.26882 41.8019 7.26882C37.6338 7.26882 34.1988 10.4106 34.1988 15.2804C34.1988 19.5218 37.1521 22.5903 41.0898 22.5903C44.4724 22.5903 46.2423 20.2549 47.2267 17.7415L46.9754 17.5948V17.5844Z" fill="#002B4D"/>
</g>
</g>
</g>
</g>
<defs>
<clipPath id="clip0_418_13862">
<rect width="78" height="28" fill="white"/>
</clipPath>
</defs>
</svg>
