<svg width="253" height="125" viewBox="0 0 253 125" fill="none" xmlns="http://www.w3.org/2000/svg">
<circle cx="62.5" cy="62.5" r="62" stroke="#002D50"/>
<path d="M159.5 0.5C168.761 0.5 177.252 7.30709 183.457 18.5479C189.652 29.771 193.5 45.3093 193.5 62.5C193.5 79.6907 189.652 95.229 183.457 106.452C177.252 117.693 168.761 124.5 159.5 124.5C150.239 124.5 141.748 117.693 135.543 106.452C129.348 95.229 125.5 79.6907 125.5 62.5C125.5 45.3093 129.348 29.771 135.543 18.5479C141.748 7.30709 150.239 0.5 159.5 0.5Z" stroke="#002D50"/>
<path d="M212.5 0.5C214.809 0.5 217.111 2.08354 219.291 5.19824C221.461 8.29881 223.435 12.818 225.102 18.4473C228.432 29.6998 230.5 45.2753 230.5 62.5C230.5 79.7247 228.432 95.3002 225.102 106.553C223.435 112.182 221.461 116.701 219.291 119.802C217.111 122.916 214.809 124.5 212.5 124.5C210.191 124.5 207.889 122.916 205.709 119.802C203.539 116.701 201.565 112.182 199.898 106.553C196.568 95.3002 194.5 79.7247 194.5 62.5C194.5 45.2753 196.568 29.6998 199.898 18.4473C201.565 12.818 203.539 8.29881 205.709 5.19824C207.889 2.08354 210.191 0.5 212.5 0.5Z" stroke="#002D50"/>
<path d="M242 0.5C242.552 0.5 243.168 0.816645 243.838 1.5957C244.505 2.37136 245.172 3.54489 245.82 5.10352C247.116 8.2165 248.293 12.7516 249.286 18.3926C251.27 29.6664 252.5 45.261 252.5 62.5C252.5 79.739 251.27 95.3336 249.286 106.607C248.293 112.248 247.116 116.784 245.82 119.896C245.172 121.455 244.505 122.629 243.838 123.404C243.168 124.183 242.552 124.5 242 124.5C241.448 124.5 240.832 124.183 240.162 123.404C239.495 122.629 238.828 121.455 238.18 119.896C236.884 116.784 235.707 112.248 234.714 106.607C232.73 95.3336 231.5 79.739 231.5 62.5C231.5 45.261 232.73 29.6664 234.714 18.3926C235.707 12.7516 236.884 8.2165 238.18 5.10352C238.828 3.54489 239.495 2.37136 240.162 1.5957C240.832 0.816645 241.448 0.5 242 0.5Z" stroke="#002D50"/>
</svg>
