<svg width="3802" height="1782" viewBox="0 0 3802 1782" fill="none" xmlns="http://www.w3.org/2000/svg">
<g clip-path="url(#clip0_2024_215)">
<rect width="3802" height="1782" fill="#F5F3F0"/>
<path d="M1283 1132H3803" stroke="#002D50" stroke-width="2"/>
<path d="M-3 711L1283 711" stroke="#002D50" stroke-width="2"/>
<mask id="path-3-inside-1_2024_215" fill="white">
<path d="M1224.66 542.221C1228.92 552.528 1222.57 563.748 1212.24 565.962L1151 584.621L1089.76 565.964C1079.44 563.753 1073.08 552.53 1077.34 542.221L1084.87 524H1217.13L1224.66 542.221Z"/>
</mask>
<path d="M1224.66 542.221L1222.81 542.984L1222.81 542.984L1224.66 542.221ZM1212.24 565.962L1211.82 564.006L1211.74 564.024L1211.66 564.049L1212.24 565.962ZM1151 584.621L1150.42 586.534L1151 586.712L1151.58 586.534L1151 584.621ZM1089.76 565.964L1090.35 564.051L1090.27 564.026L1090.18 564.008L1089.76 565.964ZM1077.34 542.221L1075.49 541.457L1075.49 541.457L1077.34 542.221ZM1084.87 524V522H1083.53L1083.02 523.236L1084.87 524ZM1217.13 524L1218.98 523.236L1218.47 522H1217.13V524ZM1224.66 542.221L1222.81 542.984C1226.58 552.104 1220.96 562.046 1211.82 564.006L1212.24 565.962L1212.66 567.917C1224.17 565.449 1231.26 552.952 1226.51 541.457L1224.66 542.221ZM1212.24 565.962L1211.66 564.049L1150.42 582.708L1151 584.621L1151.58 586.534L1212.83 567.875L1212.24 565.962ZM1151 584.621L1151.58 582.708L1090.35 564.051L1089.76 565.964L1089.18 567.877L1150.42 586.534L1151 584.621ZM1089.76 565.964L1090.18 564.008C1081.04 562.051 1075.42 552.106 1079.19 542.984L1077.34 542.221L1075.49 541.457C1070.74 552.954 1077.83 565.455 1089.34 567.92L1089.76 565.964ZM1077.34 542.221L1079.19 542.985L1086.72 524.764L1084.87 524L1083.02 523.236L1075.49 541.457L1077.34 542.221ZM1084.87 524V526H1217.13V524V522H1084.87V524ZM1217.13 524L1215.28 524.764L1222.81 542.984L1224.66 542.221L1226.51 541.457L1218.98 523.236L1217.13 524Z" fill="#002D50" mask="url(#path-3-inside-1_2024_215)"/>
<path d="M1214.34 547.146C1219.86 552.288 1216.53 561.382 1209.26 561.99L1151.38 579.809L1092.06 562.006C1084.63 561.579 1081.17 552.344 1086.74 547.146H1214.34Z" fill="#F77D68"/>
<path d="M1151 583.504V664.773" stroke="#002D50" stroke-width="2"/>
<path d="M1151.02 664.516C1151.02 668.91 1150.18 673.018 1144.57 676.588C1137.58 681.03 1118.99 684.001 1118.99 684.001H1150.74" stroke="#002D50" stroke-width="2"/>
<path d="M1151.01 664.516C1151.01 668.91 1152.25 673.018 1157.86 676.588C1164.85 681.03 1183.44 684.001 1183.44 684.001H1150.73" stroke="#002D50" stroke-width="2"/>
<path d="M2613 0V1784" stroke="#002D50" stroke-width="2"/>
<path d="M1283 1786L1283 5.13792e-05" stroke="#002D50" stroke-width="2"/>
<path d="M2366 1133V1784" stroke="#002D50" stroke-width="2"/>
<path d="M1036 1784L1036 2.57492e-05" stroke="#002D50" stroke-width="2"/>
<path d="M1038 1059.5C1038 1039.13 1051.4 1020.53 1073.4 1006.96C1095.39 993.414 1125.83 985 1159.5 985C1193.17 985 1223.61 993.414 1245.6 1006.96C1267.6 1020.53 1281 1039.13 1281 1059.5C1281 1079.87 1267.6 1098.47 1245.6 1112.04C1223.61 1125.59 1193.17 1134 1159.5 1134C1125.83 1134 1095.39 1125.59 1073.4 1112.04C1051.4 1098.47 1038 1079.87 1038 1059.5Z" stroke="#002D50" stroke-width="2"/>
<path d="M1038 934C1038 927.452 1041.25 921.119 1047.32 915.258C1053.4 909.393 1062.24 904.065 1073.26 899.57C1095.28 890.582 1125.77 885 1159.5 885C1193.23 885 1223.72 890.582 1245.74 899.57C1256.76 904.065 1265.6 909.393 1271.68 915.258C1277.75 921.119 1281 927.452 1281 934C1281 940.548 1277.75 946.881 1271.68 952.742C1265.6 958.607 1256.76 963.935 1245.74 968.43C1223.72 977.418 1193.23 983 1159.5 983C1125.77 983 1095.28 977.418 1073.26 968.43C1062.24 963.935 1053.4 958.607 1047.32 952.742C1041.25 946.881 1038 940.548 1038 934Z" stroke="#002D50" stroke-width="2"/>
<path d="M1038 854C1038 850.44 1040.97 846.752 1047.13 843.188C1053.21 839.668 1062.07 836.462 1073.12 833.758C1095.19 828.353 1125.73 825 1159.5 825C1193.27 825 1223.81 828.353 1245.88 833.758C1256.93 836.462 1265.79 839.668 1271.87 843.188C1278.03 846.752 1281 850.44 1281 854C1281 857.56 1278.03 861.248 1271.87 864.812C1265.79 868.332 1256.93 871.538 1245.88 874.242C1223.81 879.647 1193.27 883 1159.5 883C1125.73 883 1095.19 879.647 1073.12 874.242C1062.07 871.538 1053.21 868.332 1047.13 864.812C1040.97 861.248 1038 857.56 1038 854Z" stroke="#002D50" stroke-width="2"/>
<path d="M2650 483C2650.96 483 2651.99 483.422 2653.12 484.424C2654.25 485.431 2655.41 486.977 2656.58 489.089C2658.93 493.312 2661.23 499.605 2663.44 507.8C2667.84 524.174 2671.82 547.914 2675.17 577.304C2681.86 636.069 2686 717.279 2686 807C2686 896.721 2681.86 977.931 2675.17 1036.7C2671.82 1066.09 2667.84 1089.83 2663.44 1106.2C2661.23 1114.4 2658.93 1120.69 2656.58 1124.91C2655.41 1127.02 2654.25 1128.57 2653.12 1129.58C2651.99 1130.58 2650.96 1131 2650 1131C2649.04 1131 2648.01 1130.58 2646.88 1129.58C2645.75 1128.57 2644.59 1127.02 2643.42 1124.91C2641.07 1120.69 2638.77 1114.4 2636.56 1106.2C2632.16 1089.83 2628.18 1066.09 2624.83 1036.7C2618.14 977.931 2614 896.721 2614 807C2614 717.279 2618.14 636.069 2624.83 577.304C2628.18 547.914 2632.16 524.174 2636.56 507.8C2638.77 499.605 2641.07 493.312 2643.42 489.089C2644.59 486.977 2645.75 485.431 2646.88 484.424C2648.01 483.422 2649.04 483 2650 483Z" stroke="#002D50" stroke-width="2"/>
<path d="M2774 483C2785.47 483 2796.66 491.701 2807.02 508.075C2817.35 524.4 2826.69 548.088 2834.55 577.449C2850.27 636.156 2860 717.315 2860 807C2860 896.685 2850.27 977.844 2834.55 1036.55C2826.69 1065.91 2817.35 1089.6 2807.02 1105.92C2796.66 1122.3 2785.47 1131 2774 1131C2762.53 1131 2751.34 1122.3 2740.98 1105.92C2730.65 1089.6 2721.31 1065.91 2713.45 1036.55C2697.73 977.844 2688 896.685 2688 807C2688 717.315 2697.73 636.156 2713.45 577.449C2721.31 548.088 2730.65 524.4 2740.98 508.075C2751.34 491.701 2762.53 483 2774 483Z" stroke="#002D50" stroke-width="2"/>
<circle cx="1160" cy="1258" r="122" stroke="#002D50" stroke-width="2"/>
<circle cx="1928" cy="1023" r="279" stroke="#002D50" stroke-width="2"/>
<path d="M1541 664V996" stroke="#E7C37D" stroke-width="24.7761"/>
<path d="M1658.07 712.617L1423.31 947.377" stroke="#E7C37D" stroke-width="24.7761"/>
<path d="M1707 830L1375 830" stroke="#E7C37D" stroke-width="24.7761"/>
<path d="M1658.07 947.383L1423.31 712.623" stroke="#E7C37D" stroke-width="24.7761"/>
<path d="M2484.23 947.675C2484.93 946.076 2487.19 946.076 2487.89 947.675L2510.25 998.841C2510.45 999.302 2510.82 999.671 2511.28 999.873L2562.44 1022.23C2564.04 1022.93 2564.04 1025.19 2562.44 1025.89L2511.28 1048.25C2510.82 1048.45 2510.45 1048.82 2510.25 1049.28L2487.89 1100.44C2487.19 1102.04 2484.93 1102.04 2484.23 1100.44L2461.87 1049.28C2461.67 1048.82 2461.3 1048.45 2460.84 1048.25L2409.68 1025.89C2408.08 1025.19 2408.08 1022.93 2409.68 1022.23L2460.84 999.873C2461.3 999.671 2461.67 999.302 2461.87 998.841L2484.23 947.675Z" fill="#F77D68"/>
<circle cx="2486.5" cy="1223.06" r="42.4888" fill="#E7C37D"/>
<circle cx="2486.49" cy="1197.49" r="41.4888" stroke="#002D50" stroke-width="2"/>
<circle cx="2486.51" cy="1315.51" r="41.4888" stroke="#002D50" stroke-width="2"/>
<path d="M2486.5 1266.45V1316.31" stroke="#002D50" stroke-width="2"/>
</g>
<defs>
<clipPath id="clip0_2024_215">
<rect width="3802" height="1782" fill="white"/>
</clipPath>
</defs>
</svg>
