<svg width="242" height="424" viewBox="0 0 242 424" fill="none" xmlns="http://www.w3.org/2000/svg">
<g clip-path="url(#clip0_2028_1414)">
<path d="M69.2656 413.82C70.6681 412.841 71.7002 412.008 71.7002 412.008C71.7002 412.008 70.5491 412.709 69.2656 413.82Z" stroke="black" stroke-width="1.91462" stroke-linecap="round" stroke-linejoin="round"/>
<path d="M190.118 41.9564C191.679 38.6618 201.933 36.9153 200.187 29.1089C198.453 21.2892 189.946 24.2398 189.946 24.2398C189.946 24.2398 197.236 11.5643 189.774 8.42847C182.311 5.30591 178.143 17.9814 178.143 17.9814C178.143 17.9814 173.804 5.1339 167.902 9.30173C162.001 13.4696 165.997 21.9772 165.997 21.9772C165.997 21.9772 160.784 20.0719 158.349 23.8825C155.915 27.7064 163.563 35.87 168.418 38.3046C169.503 38.847 170.509 41.6917 171.382 45.939C177.429 47.0239 183.608 48.1618 189.734 49.432C189.562 45.8067 189.602 43.0546 190.131 41.9564H190.118Z" fill="white" stroke="black" stroke-width="1.91462" stroke-linecap="round" stroke-linejoin="round"/>
<path d="M213.394 377.168C213.394 377.168 208.181 359.451 208.525 349.025C208.869 338.599 221.729 330.62 195.492 317.76C169.268 304.912 164.399 275.724 164.054 267.216C163.71 258.709 164.571 200.174 166.661 193.399C168.752 186.625 182.287 148.36 184.55 136.055C186.812 123.75 190.279 87.9731 190.808 75.4696C191.152 67.1736 190.041 56.5754 189.723 49.4305C183.597 48.1603 177.418 47.0225 171.371 45.9375C174.454 60.8226 175.91 92.9348 173.078 103.083C169.426 116.129 117.414 124.041 117.414 124.041C117.414 124.041 115.681 135.433 104.051 141.374C92.4207 147.315 71.8726 145.092 59.5014 129.744C55.4262 124.69 51.9464 120.006 49.062 115.679C46.5613 122.877 43.571 129.665 39.8398 136.016C46.4951 143.796 54.1163 151.602 60.9833 155.982C78.0648 166.871 87.4722 173.553 97.1178 175.286C97.1178 175.286 87.9485 191.6 86.943 233.172C85.9374 274.745 99.6846 300.903 99.6846 300.903C99.6846 300.903 81.5843 331.083 84.257 347.503C86.9297 363.923 95.6623 369.295 94.9875 378.345C94.3128 387.395 72.865 395.44 65.8127 398.457C58.7737 401.473 55.413 401.473 57.0933 404.159C58.7737 406.845 64.397 404.159 64.397 404.159C64.397 404.159 56.4318 408.34 57.7549 410.656C59.078 412.985 67.718 407.745 67.718 407.745C67.718 407.745 60.0836 412.31 61.3273 415.882C62.1609 418.251 66.461 415.75 69.2661 413.805C70.5495 412.694 71.7006 411.992 71.7006 411.992C71.7006 411.992 70.6686 412.826 69.2661 413.805C67.2417 415.552 64.8998 418.317 66.2229 420.95C68.3796 425.263 78.6735 416.213 84.0718 412.654C89.4701 409.081 105.877 404.94 111.619 395.043C117.348 385.146 107.451 368.29 108.497 357.533C109.542 346.776 129.164 336.164 130.553 316.026C130.553 316.026 139.233 314.981 146.179 309.08C146.179 309.08 157.121 328.53 168.408 334.788C179.694 341.047 189.591 339.829 192.555 345.558C195.505 351.288 188.731 377.34 186.481 381.865C184.219 386.377 183.002 391.074 184.391 392.291C185.78 393.508 191.589 389.34 193.282 385.173C193.282 385.173 191.337 394.382 196.021 395.07C200.705 395.771 202.094 385.345 202.094 385.345C202.094 385.345 202.253 393.244 206.963 394.024C209.517 394.448 210.007 391.259 209.98 388.666C209.689 386.972 209.742 385.517 209.742 385.517C209.742 385.517 209.967 386.972 209.98 388.666C210.403 391.087 211.528 393.985 214.611 393.68C219.824 393.164 213.394 377.181 213.394 377.181V377.168Z" fill="#E0E0DE"/>
<path d="M69.2661 413.805C66.461 415.75 62.1609 418.251 61.3273 415.882C60.0836 412.31 67.718 407.745 67.718 407.745C67.718 407.745 59.078 412.985 57.7549 410.656C56.4318 408.34 64.397 404.159 64.397 404.159C64.397 404.159 58.7737 406.845 57.0933 404.159C55.413 401.473 58.7737 401.473 65.8127 398.457C72.865 395.44 94.3128 387.395 94.9876 378.345C95.6623 369.295 86.9297 363.923 84.257 347.503C81.5843 331.083 99.6846 300.903 99.6846 300.903C99.6846 300.903 85.9374 274.745 86.943 233.172C87.9485 191.6 97.1178 175.286 97.1178 175.286C87.4722 173.553 78.0648 166.871 60.9833 155.982C54.1163 151.602 46.4951 143.796 39.8398 136.016C43.571 129.665 46.5613 122.877 49.062 115.679C51.9464 120.006 55.4262 124.69 59.5014 129.744C71.8726 145.092 92.4207 147.315 104.051 141.374C115.681 135.433 117.414 124.041 117.414 124.041C117.414 124.041 169.426 116.129 173.078 103.083C175.91 92.9348 174.454 60.8226 171.371 45.9375C177.418 47.0225 183.597 48.1603 189.723 49.4305C190.041 56.5754 191.152 67.1736 190.808 75.4696C190.279 87.9731 186.812 123.75 184.55 136.055C182.287 148.36 168.752 186.625 166.661 193.399C164.571 200.174 163.71 258.709 164.054 267.216C164.399 275.724 169.268 304.912 195.492 317.76C221.729 330.62 208.869 338.599 208.525 349.025C208.181 359.451 213.394 377.168 213.394 377.168V377.181C213.394 377.181 219.824 393.164 214.611 393.68C211.528 393.985 210.403 391.087 209.98 388.666M69.2661 413.805C70.5495 412.694 71.7006 411.992 71.7006 411.992C71.7006 411.992 70.6686 412.826 69.2661 413.805ZM69.2661 413.805C67.2417 415.552 64.8998 418.317 66.2229 420.95C68.3796 425.263 78.6735 416.213 84.0718 412.654C89.4701 409.081 105.877 404.94 111.619 395.043C117.348 385.146 107.451 368.29 108.497 357.533C109.542 346.776 129.164 336.164 130.553 316.026C130.553 316.026 139.233 314.981 146.179 309.08C146.179 309.08 157.121 328.53 168.408 334.788C179.694 341.047 189.591 339.829 192.555 345.558C195.505 351.288 188.731 377.34 186.481 381.865C184.219 386.377 183.002 391.074 184.391 392.291C185.78 393.508 191.589 389.34 193.282 385.173C193.282 385.173 191.337 394.382 196.021 395.07C200.705 395.771 202.094 385.345 202.094 385.345C202.094 385.345 202.253 393.244 206.963 394.024C209.517 394.448 210.007 391.259 209.98 388.666M209.98 388.666C209.689 386.972 209.742 385.517 209.742 385.517C209.742 385.517 209.967 386.972 209.98 388.666Z" stroke="black" stroke-width="1.91462" stroke-linecap="round" stroke-linejoin="round"/>
<path d="M39.1865 93.6132C38.1942 84.7085 30.7715 73.3165 28.0459 89.8952C28.0459 89.8952 23.8383 83.9544 20.1204 87.1695C16.4024 90.3847 20.1204 98.3102 20.1204 98.3102C20.1204 98.3102 12.9358 95.3464 10.4616 100.295C7.98733 105.243 12.4463 109.464 22.0918 112.931C22.0918 112.931 29.885 124.442 39.8084 136.032C43.5264 129.668 46.5166 122.894 49.0306 115.696C43.1824 106.911 39.8349 99.5937 39.1733 93.6132H39.1865Z" fill="white" stroke="black" stroke-width="1.91462" stroke-linecap="round" stroke-linejoin="round"/>
<path d="M209.988 388.657C209.975 386.95 209.75 385.508 209.75 385.508C209.75 385.508 209.697 386.976 209.988 388.657Z" stroke="black" stroke-width="1.91462" stroke-linecap="round" stroke-linejoin="round"/>
<path d="M155.776 78.5134C155.776 78.5134 135.731 79.003 130.28 80.7362C130.28 80.7362 113.939 57.4758 110.724 57.2244C107.509 56.973 110.724 84.4542 110.724 84.4542C110.724 84.4542 100.827 97.0768 110.473 117.863C120.118 138.649 133.985 136.916 148.592 134.945C163.199 132.973 174.088 115.389 174.34 88.8999C174.591 62.411 169.14 58.4549 167.658 58.9444C166.176 59.434 159.733 68.8414 155.776 78.5002V78.5134Z" fill="#E0E0DE" stroke="black" stroke-width="1.91462" stroke-linecap="round" stroke-linejoin="round"/>
<path d="M125.049 102.57C127.285 102.57 129.098 100.757 129.098 98.5214C129.098 96.2853 127.285 94.4727 125.049 94.4727C122.813 94.4727 121 96.2853 121 98.5214C121 100.757 122.813 102.57 125.049 102.57Z" fill="#F7DB6F" stroke="black" stroke-width="1.62743" stroke-linecap="round" stroke-linejoin="round"/>
<path d="M154.126 101.475C156.241 101.475 157.955 99.7605 157.955 97.6457C157.955 95.5308 156.241 93.8164 154.126 93.8164C152.011 93.8164 150.297 95.5308 150.297 97.6457C150.297 99.7605 152.011 101.475 154.126 101.475Z" fill="#F7DB6F" stroke="black" stroke-width="1.62743" stroke-linecap="round" stroke-linejoin="round"/>
<path d="M154.117 98.399C154.534 98.399 154.872 98.0613 154.872 97.6448C154.872 97.2283 154.534 96.8906 154.117 96.8906C153.701 96.8906 153.363 97.2283 153.363 97.6448C153.363 98.0613 153.701 98.399 154.117 98.399Z" fill="black" stroke="black" stroke-width="1.91462" stroke-linecap="round" stroke-linejoin="round"/>
<path d="M125.038 99.4973C125.578 99.4973 126.017 99.0589 126.017 98.5182C126.017 97.9774 125.578 97.5391 125.038 97.5391C124.497 97.5391 124.059 97.9774 124.059 98.5182C124.059 99.0589 124.497 99.4973 125.038 99.4973Z" fill="black" stroke="black" stroke-width="1.91462" stroke-linecap="round" stroke-linejoin="round"/>
<path d="M139.346 107.401C141.192 107.145 142.521 105.734 142.315 104.25C142.109 102.766 140.445 101.771 138.6 102.028C136.754 102.284 135.425 103.695 135.631 105.179C135.837 106.663 137.501 107.657 139.346 107.401Z" fill="black" stroke="black" stroke-width="1.91462" stroke-linecap="round" stroke-linejoin="round"/>
<path d="M126.863 120.016C126.863 120.016 127.856 127.676 132.632 125.559C137.409 123.442 139.354 107.406 139.354 107.406C139.354 107.406 137.409 123.562 142.952 124.117C148.496 124.673 149.171 119.566 149.171 119.566" stroke="black" stroke-width="1.62743" stroke-linecap="round" stroke-linejoin="round"/>
<path d="M97.6875 103.801L124.097 110.681" stroke="black" stroke-width="1.62743" stroke-linecap="round" stroke-linejoin="round"/>
<path d="M96.3203 111.703L123.603 112.643" stroke="black" stroke-width="1.62743" stroke-linecap="round" stroke-linejoin="round"/>
<path d="M150.625 111.704L177.259 105.75" stroke="black" stroke-width="1.62743" stroke-linecap="round" stroke-linejoin="round"/>
<path d="M96.8398 117.332L124.096 115.969" stroke="black" stroke-width="1.62743" stroke-linecap="round" stroke-linejoin="round"/>
<path d="M149.91 114.426L177.193 114.836" stroke="black" stroke-width="1.62743" stroke-linecap="round" stroke-linejoin="round"/>
<path d="M150.625 109.242L182.195 97.082" stroke="black" stroke-width="1.62743" stroke-linecap="round" stroke-linejoin="round"/>
<path d="M110.723 57.2227C110.723 57.2227 120.659 74.0528 120.99 81.8592" stroke="black" stroke-width="1.91462" stroke-linecap="round" stroke-linejoin="round"/>
<path d="M167.655 58.9531C167.655 58.9531 162.627 70.8348 162.164 78.3369" stroke="black" stroke-width="1.91462" stroke-linecap="round" stroke-linejoin="round"/>
<path d="M181.413 39.7617C181.413 39.7617 185.541 35.144 186.229 30.3146C186.917 25.4852 183.279 19.69 178.661 28.8327C178.661 28.8327 174.043 23.527 171.873 26.5702C169.703 29.6134 171.873 36.2157 181.413 39.7485V39.7617Z" fill="#D8B0C3" stroke="black" stroke-width="1.91462" stroke-linecap="round" stroke-linejoin="round"/>
<path d="M199.109 26.4361L203.767 22.7578" stroke="black" stroke-width="1.91462" stroke-linecap="round" stroke-linejoin="round"/>
<path d="M191.826 0.660156L189.762 8.42688" stroke="black" stroke-width="1.91462" stroke-linecap="round" stroke-linejoin="round"/>
<path d="M166.164 1.42969L169.154 8.89209" stroke="black" stroke-width="1.91462" stroke-linecap="round" stroke-linejoin="round"/>
<path d="M154.508 19.2656L160.052 22.7587" stroke="black" stroke-width="1.91462" stroke-linecap="round" stroke-linejoin="round"/>
<path d="M64.3575 36.9809L46.3763 28.8438C46.3763 28.8438 29.9828 37.0339 23.3672 48.9817C29.2022 65.5471 50.7161 58.1112 65.2043 56.4044C66.5274 45.9385 64.3443 36.9677 64.3443 36.9677L64.3575 36.9809Z" fill="white" stroke="black" stroke-width="1.91462" stroke-linecap="round" stroke-linejoin="round"/>
<path d="M23.3694 48.9859C21.9405 51.566 20.9481 54.3313 20.6967 57.2157C19.2678 73.4901 47.5561 90.6775 59.2128 73.3446C62.7852 68.0256 64.492 62.0054 65.2065 56.3954C50.7183 58.1022 29.1912 65.5381 23.3694 48.9727V48.9859Z" fill="#F7DB6F" stroke="black" stroke-width="1.91462" stroke-linecap="round" stroke-linejoin="round"/>
<path d="M64.116 37.5138C64.9942 35.5292 61.6325 32.1176 56.6073 29.8939C51.5822 27.6702 46.7966 27.4765 45.9183 29.4611C45.0401 31.4458 48.4018 34.8573 53.4269 37.081C58.4521 39.3047 63.2377 39.4985 64.116 37.5138Z" fill="white" stroke="black" stroke-width="1.91462" stroke-linecap="round" stroke-linejoin="round"/>
<path d="M27.5354 128.94C28.8217 126.033 23.8948 121.035 16.5308 117.776C9.16687 114.517 2.15444 114.232 0.868131 117.139C-0.418178 120.046 4.50873 125.044 11.8727 128.303C19.2367 131.561 26.2491 131.847 27.5354 128.94Z" fill="white" stroke="black" stroke-width="1.91462" stroke-linecap="round" stroke-linejoin="round"/>
<path d="M35.3878 78.0508L15.0117 123.037" stroke="black" stroke-width="1.91462" stroke-linecap="round" stroke-linejoin="round"/>
<path d="M54.173 66.5295C55.6125 66.5295 56.7795 65.3625 56.7795 63.923C56.7795 62.4834 55.6125 61.3164 54.173 61.3164C52.7334 61.3164 51.5664 62.4834 51.5664 63.923C51.5664 65.3625 52.7334 66.5295 54.173 66.5295Z" fill="white" stroke="black" stroke-width="1.91462" stroke-linecap="round" stroke-linejoin="round"/>
<path d="M45.439 67.839C46.1259 67.839 46.6828 67.2822 46.6828 66.5953C46.6828 65.9084 46.1259 65.3516 45.439 65.3516C44.7521 65.3516 44.1953 65.9084 44.1953 66.5953C44.1953 67.2822 44.7521 67.839 45.439 67.839Z" fill="white" stroke="black" stroke-width="1.91462" stroke-linecap="round" stroke-linejoin="round"/>
<path d="M27.9333 63.1126C28.7809 63.1126 29.4681 62.4254 29.4681 61.5778C29.4681 60.7301 28.7809 60.043 27.9333 60.043C27.0856 60.043 26.3984 60.7301 26.3984 61.5778C26.3984 62.4254 27.0856 63.1126 27.9333 63.1126Z" fill="white" stroke="black" stroke-width="1.91462" stroke-linecap="round" stroke-linejoin="round"/>
<path d="M34.3239 97.0783C34.3239 97.0783 22.8127 95.6625 22.0453 100.69C21.2779 105.718 31.4394 108.722 31.4394 108.722" fill="white"/>
<path d="M34.3239 97.0783C34.3239 97.0783 22.8127 95.6625 22.0453 100.69C21.2779 105.718 31.4394 108.722 31.4394 108.722" stroke="black" stroke-width="1.91462" stroke-linecap="round" stroke-linejoin="round"/>
<path d="M31.2146 81.8638C31.2146 81.8638 29.7592 78.4766 26.3984 78.0664L31.2146 81.8638Z" fill="white"/>
<path d="M31.2146 81.8638C31.2146 81.8638 29.7592 78.4766 26.3984 78.0664" stroke="black" stroke-width="1.91462" stroke-linecap="round" stroke-linejoin="round"/>
<path d="M19.8476 87.2337C19.8476 87.2337 17.3469 84.5213 14.0391 85.249L19.8476 87.2337Z" fill="white"/>
<path d="M19.8476 87.2337C19.8476 87.2337 17.3469 84.5213 14.0391 85.249" stroke="black" stroke-width="1.91462" stroke-linecap="round" stroke-linejoin="round"/>
<path d="M9.96829 100.414C9.96829 100.414 6.88542 98.3759 3.85547 99.8843L9.96829 100.414Z" fill="white"/>
<path d="M9.96829 100.414C9.96829 100.414 6.88542 98.3759 3.85547 99.8843" stroke="black" stroke-width="1.91462" stroke-linecap="round" stroke-linejoin="round"/>
<path d="M95.0352 180.185C95.0352 180.185 99.4279 169.349 103.199 164.043L95.0352 180.185Z" fill="#D8B0C3"/>
<path d="M95.0352 180.185C95.0352 180.185 99.4279 169.349 103.199 164.043" stroke="black" stroke-width="1.91462" stroke-linecap="round" stroke-linejoin="round"/>
<line x1="60.9401" y1="383.628" x2="53.4147" y2="371.802" stroke="black" stroke-width="1.91462" stroke-linecap="round"/>
<line x1="59.3137" y1="388.317" x2="44.6189" y2="382.16" stroke="black" stroke-width="1.91462"/>
<line x1="219.594" y1="368.071" x2="230.456" y2="359.21" stroke="black" stroke-width="1.91462" stroke-linecap="round"/>
<line x1="215.015" y1="366.082" x2="218.878" y2="352.606" stroke="black" stroke-width="1.91462" stroke-linecap="round"/>
</g>
<defs>
<clipPath id="clip0_2028_1414">
<rect width="241.242" height="423.131" fill="white"/>
</clipPath>
</defs>
</svg>
