<svg width="243" height="630" viewBox="0 0 243 630" fill="none" xmlns="http://www.w3.org/2000/svg">
<g clip-path="url(#clip0_2038_1220)">
<path d="M0.999997 236.5C0.999999 216.123 14.2945 197.522 36.1143 183.963C57.9192 170.413 88.1051 162 121.5 162C154.895 162 185.081 170.413 206.886 183.963C228.705 197.522 242 216.123 242 236.5C242 256.877 228.705 275.478 206.886 289.037C185.081 302.587 154.895 311 121.5 311C88.1051 311 57.9192 302.587 36.1143 289.037C14.2945 275.478 0.999998 256.877 0.999997 236.5Z" stroke="#002D50" stroke-width="2"/>
<path d="M0.999998 110.5C0.999999 103.877 4.22542 97.4759 10.249 91.5566C16.2761 85.6339 25.0493 80.2542 35.9707 75.7148C57.8091 66.638 88.0476 61 121.5 61C154.952 61 185.191 66.638 207.029 75.7148C217.951 80.2542 226.724 85.6339 232.751 91.5566C238.775 97.4759 242 103.877 242 110.5C242 117.123 238.775 123.524 232.751 129.443C226.724 135.366 217.951 140.746 207.029 145.285C185.191 154.362 154.952 160 121.5 160C88.0476 160 57.8091 154.362 35.9707 145.285C25.0493 140.746 16.2761 135.366 10.249 129.443C4.22542 123.524 0.999998 117.123 0.999998 110.5Z" stroke="#002D50" stroke-width="2"/>
<path d="M0.999999 30C1 26.4359 3.95151 22.7478 10.0518 19.1865C16.0818 15.6664 24.8744 12.462 35.8262 9.75781C57.7143 4.35333 88.0051 0.999996 121.5 0.999995C154.995 0.999993 185.286 4.35332 207.174 9.7578C218.126 12.462 226.918 15.6664 232.948 19.1865C239.048 22.7477 242 26.4359 242 30C242 33.5641 239.048 37.2522 232.948 40.8135C226.918 44.3336 218.126 47.538 207.174 50.2422C185.286 55.6467 154.995 59 121.5 59C88.0051 59 57.7143 55.6467 35.8262 50.2422C24.8744 47.538 16.0818 44.3336 10.0518 40.8135C3.95151 37.2522 0.999999 33.5641 0.999999 30Z" stroke="#002D50" stroke-width="2"/>
<path d="M121.5 313C154.674 313 184.777 330.594 206.619 359.177C228.462 387.761 242 427.293 242 471C242 514.707 228.462 554.239 206.619 582.823C184.777 611.406 154.674 629 121.5 629C88.3261 629 58.2227 611.406 36.3809 582.823C14.5383 554.239 1 514.707 1 471C1 427.293 14.5383 387.761 36.3809 359.177C58.2227 330.594 88.3261 313 121.5 313Z" stroke="#002D50" stroke-width="2"/>
<circle cx="121.007" cy="443.775" r="36.4211" fill="#E7C37D"/>
<circle cx="120.997" cy="421.85" r="35.5639" stroke="#002D50" stroke-width="1.71439"/>
<circle cx="121.017" cy="523.019" r="35.5639" stroke="#002D50" stroke-width="1.71439"/>
<path d="M121.008 480.959V523.706" stroke="#002D50" stroke-width="1.71439"/>
</g>
<defs>
<clipPath id="clip0_2038_1220">
<rect width="243" height="630" fill="white"/>
</clipPath>
</defs>
</svg>
