<svg width="242" height="295" viewBox="0 0 242 295" fill="none" xmlns="http://www.w3.org/2000/svg">
<g clip-path="url(#clip0_2028_1387)">
<path d="M149.588 187.264C149.588 187.264 144.409 177.873 109.429 184.67C74.4484 191.467 55.015 189.849 41.0957 178.514C27.1764 167.18 20.6954 129.931 10.9787 131.874C1.26199 133.817 -5.21901 160.048 10.9787 180.132C27.1764 200.216 62.4724 217.697 83.8492 216.079C105.226 214.461 128.766 203.356 136.961 203.452C149.875 203.596 151.215 208.631 151.215 208.631" fill="#F08069"/>
<path d="M149.588 187.264C149.588 187.264 144.409 177.873 109.429 184.67C74.4484 191.467 55.015 189.849 41.0957 178.514C27.1764 167.18 20.6954 129.931 10.9787 131.874C1.26199 133.817 -5.21901 160.048 10.9787 180.132C27.1764 200.216 62.4724 217.697 83.8492 216.079C105.226 214.461 128.766 203.356 136.961 203.452C149.875 203.596 151.215 208.631 151.215 208.631" stroke="black" stroke-width="1.91462" stroke-linecap="round" stroke-linejoin="round"/>
<path d="M145.515 186.642C145.515 186.642 140.853 159.741 144.021 155.979C146.07 153.547 151.115 146.233 151.115 146.233C148.08 150.551 146.654 152.973 144.328 155.625C136.181 164.93 127.824 168.807 124.894 171.736C121.132 175.498 119.131 179.605 117.724 184.076C116.317 188.547 111.377 196.061 108.553 195.707C105.729 195.353 106.677 190.768 106.677 190.768C106.677 190.768 105.269 197.115 101.622 196.76C97.9746 196.406 99.7456 191.935 99.7456 191.935C99.7456 191.935 97.046 196.875 95.8685 196.751C94.691 196.626 93.9922 196.397 93.9922 192.405C93.9922 188.413 99.1617 181.357 102.809 177.365C106.456 173.373 112.708 162.508 116.786 153.528C120.864 144.549 138.842 116.806 138.842 116.806C136.688 101.843 140.45 80.3513 140.45 80.3513C140.45 80.3513 130.657 74.3682 127.115 68.9306C123.573 63.4931 127.115 50.7034 127.115 50.7034C127.115 50.7034 112.976 21.6012 119.782 19.4185C126.589 17.2359 137.732 30.3032 137.732 30.3032C144.806 23.7743 159.769 24.32 159.769 24.32C159.769 24.32 162.603 5.86302 169.62 1.75615C176.637 -2.35071 179.557 31.0499 179.557 31.0499C179.557 31.0499 191.207 42.1834 192.059 50.7513C192.059 50.7513 199.938 54.1785 202.168 60.6882C204.399 67.1979 204.399 72.8556 204.399 72.8556C204.399 72.8556 229.93 98.6264 231.682 115.465C233.434 132.305 232.036 157.568 225.019 186.335C225.019 186.335 232.036 202.83 230.629 212.652C229.222 222.474 216.949 237.561 212.737 245.985C208.525 254.41 214.489 266.338 218.002 270.894C221.516 275.451 234.334 280.477 237.302 281.769C240.269 283.062 241.571 284.976 240.288 286.355C239.006 287.733 236.899 285.158 236.899 285.158C236.899 285.158 239.647 288.806 237.531 289.82C235.416 290.835 232.027 287.839 232.027 287.839C232.027 287.839 235.971 291.209 232.237 292.568C230.687 293.133 227.815 290.596 228.561 291.649C230.677 294.617 225.517 295.421 221.027 290.558C216.537 285.694 208.18 277.165 203.231 274.322C198.282 271.478 189.465 270.282 189.56 261.848C189.656 253.414 191.284 250.217 192.394 240.758C193.505 231.3 180.571 225.776 180.571 225.776L150.33 226.628" fill="#F08069"/>
<path d="M145.515 186.642C145.515 186.642 140.853 159.741 144.021 155.979C146.07 153.547 151.115 146.233 151.115 146.233C148.08 150.551 146.654 152.973 144.328 155.625C136.181 164.93 127.824 168.807 124.894 171.736C121.132 175.498 119.131 179.605 117.724 184.076C116.317 188.547 111.377 196.061 108.553 195.707C105.729 195.353 106.677 190.768 106.677 190.768C106.677 190.768 105.269 197.115 101.622 196.76C97.9746 196.406 99.7456 191.935 99.7456 191.935C99.7456 191.935 97.046 196.875 95.8685 196.751C94.691 196.626 93.9922 196.397 93.9922 192.405C93.9922 188.413 99.1617 181.357 102.809 177.365C106.456 173.373 112.708 162.508 116.786 153.528C120.864 144.549 138.842 116.806 138.842 116.806C136.688 101.843 140.45 80.3513 140.45 80.3513C140.45 80.3513 130.657 74.3682 127.115 68.9306C123.573 63.4931 127.115 50.7034 127.115 50.7034C127.115 50.7034 112.976 21.6012 119.782 19.4185C126.589 17.2359 137.732 30.3032 137.732 30.3032C144.806 23.7743 159.769 24.32 159.769 24.32C159.769 24.32 162.603 5.86302 169.62 1.75615C176.637 -2.35071 179.557 31.0499 179.557 31.0499C179.557 31.0499 191.207 42.1834 192.059 50.7513C192.059 50.7513 199.938 54.1785 202.168 60.6882C204.399 67.1979 204.399 72.8556 204.399 72.8556C204.399 72.8556 229.93 98.6264 231.682 115.465C233.434 132.305 232.036 157.568 225.019 186.335C225.019 186.335 232.036 202.83 230.629 212.652C229.222 222.474 216.949 237.561 212.737 245.985C208.525 254.41 214.489 266.338 218.002 270.894C221.516 275.451 234.334 280.477 237.302 281.769C240.269 283.062 241.571 284.976 240.288 286.355C239.006 287.733 236.899 285.158 236.899 285.158C236.899 285.158 239.647 288.806 237.531 289.82C235.416 290.835 232.027 287.839 232.027 287.839C232.027 287.839 235.971 291.209 232.237 292.568C230.687 293.133 227.815 290.596 228.561 291.649C230.677 294.617 225.517 295.421 221.027 290.558C216.538 285.694 208.18 277.165 203.231 274.322C198.282 271.478 189.465 270.282 189.56 261.848C189.656 253.414 191.284 250.217 192.394 240.758C193.505 231.3 180.571 225.776 180.571 225.776L150.33 226.628" stroke="black" stroke-width="1.91462" stroke-linecap="round" stroke-linejoin="round"/>
<path d="M169.676 176.121C174.922 178.428 180.13 181.367 184.754 184.746C190.766 189.131 194.193 195.44 193.054 202.993C192.202 208.651 189.56 213.82 186.429 218.54C183.299 223.259 179.163 227.146 176.847 232.095C173.477 239.332 176.77 247.651 179.336 254.64C180.618 258.134 182.064 261.561 183.375 265.036C184.103 266.97 185.338 269.449 185.118 271.584C184.563 276.916 182.906 277.653 178.493 273.058C178.493 273.058 183.644 277.653 180.331 280.229C177.019 282.804 173.707 276.179 173.707 276.179C173.707 276.179 177.277 285.379 173.161 283.732C169.045 282.086 169.15 280.028 169.15 280.028C169.15 280.028 172.95 284.556 168.02 285.886C163.09 287.217 160.209 272.628 159.692 263.265C159.175 253.903 149.209 240.337 148.07 231.492C146.931 222.646 146.328 214.567 147.764 203.864" fill="#F08069"/>
<path d="M169.676 176.121C174.922 178.428 180.13 181.367 184.754 184.746C190.766 189.131 194.193 195.44 193.054 202.993C192.202 208.651 189.56 213.82 186.429 218.54C183.299 223.259 179.163 227.146 176.847 232.095C173.477 239.332 176.77 247.651 179.336 254.64C180.618 258.134 182.064 261.561 183.375 265.036C184.103 266.97 185.338 269.449 185.118 271.584C184.563 276.916 182.906 277.653 178.493 273.058C178.493 273.058 183.644 277.653 180.331 280.229C177.019 282.804 173.707 276.179 173.707 276.179C173.707 276.179 177.277 285.379 173.161 283.732C169.045 282.086 169.15 280.028 169.15 280.028C169.15 280.028 172.95 284.556 168.02 285.886C163.09 287.217 160.209 272.628 159.692 263.265C159.175 253.903 149.209 240.337 148.07 231.492C146.931 222.646 146.328 214.567 147.764 203.864" stroke="black" stroke-width="1.91462" stroke-linecap="round" stroke-linejoin="round"/>
<path d="M203.655 84.4453C203.655 84.4453 206.316 89.5669 202.832 91.8262C198.083 94.8991 193.67 98.7763 189.63 102.711C185.179 107.038 182.652 115.769 176.4 117.855C171.212 119.588 165.41 119.244 160.423 121.742C158.192 122.862 156.335 125.016 156.795 127.658C157.292 130.54 160.241 129.927 162.462 129.334C162.462 129.334 154.229 134.924 156.785 138.39C159.341 141.855 166.186 136.571 166.186 136.571C166.186 136.571 162.031 142.286 164.367 143.712C166.703 145.139 173.375 138.907 173.375 138.907C173.375 138.907 169.91 143.148 171.556 144.536C173.203 145.924 180.287 141.137 183.264 135.834C186.242 130.53 201.08 127.917 205.531 124.557C209.983 121.196 216.349 116.324 219.106 110.168" fill="#F08069"/>
<path d="M203.655 84.4453C203.655 84.4453 206.316 89.5669 202.832 91.8262C198.083 94.8991 193.67 98.7763 189.63 102.711C185.179 107.038 182.652 115.769 176.4 117.855C171.212 119.588 165.41 119.244 160.423 121.742C158.192 122.862 156.335 125.016 156.795 127.658C157.292 130.54 160.241 129.927 162.462 129.334C162.462 129.334 154.229 134.924 156.785 138.39C159.341 141.855 166.186 136.571 166.186 136.571C166.186 136.571 162.031 142.286 164.367 143.712C166.703 145.139 173.375 138.907 173.375 138.907C173.375 138.907 169.91 143.148 171.556 144.536C173.203 145.924 180.287 141.137 183.264 135.834C186.242 130.53 201.08 127.917 205.531 124.557C209.983 121.196 216.349 116.324 219.106 110.168" stroke="black" stroke-width="1.91462" stroke-linecap="round" stroke-linejoin="round"/>
<path d="M165.25 25.6066C165.25 25.6066 165.7 4.73719 169.625 1.76953" stroke="black" stroke-width="1.91462" stroke-linecap="round" stroke-linejoin="round"/>
<path d="M119.781 19.4297C119.781 19.4297 131.058 26.2745 135.194 34.2967" stroke="black" stroke-width="1.91462" stroke-linecap="round" stroke-linejoin="round"/>
<path d="M174.315 41.1406C174.315 41.1406 175.128 46.1091 172.534 49.4118C169.94 52.7145 164.914 53.0879 164.914 53.0879C164.914 53.0879 164.1 48.1194 166.694 44.8167C169.289 41.514 174.315 41.1406 174.315 41.1406Z" fill="#F7DB6F" stroke="black" stroke-width="1.62743" stroke-linecap="round" stroke-linejoin="round"/>
<path d="M152.602 56.0541C152.602 56.0541 148.887 59.4621 144.704 59.0887C140.52 58.7154 137.457 54.7234 137.457 54.7234C137.457 54.7234 141.171 51.3154 145.355 51.6887C149.538 52.0621 152.602 56.0541 152.602 56.0541Z" fill="#F7DB6F" stroke="black" stroke-width="1.62743" stroke-linecap="round" stroke-linejoin="round"/>
<path d="M145.361 51.7891C145.361 51.7891 146.481 53.5218 146.289 55.513C146.098 57.5042 144.681 58.9976 144.681 58.9976C144.681 58.9976 143.561 57.2649 143.752 55.2737C143.944 53.2825 145.361 51.7891 145.361 51.7891Z" fill="black" stroke="black" stroke-width="1.91462" stroke-linecap="round" stroke-linejoin="round"/>
<path d="M167.709 44.0273C167.709 44.0273 169.642 44.7358 170.696 46.4302C171.749 48.1246 171.519 50.1733 171.519 50.1733C171.519 50.1733 169.585 49.4649 168.532 47.7704C167.479 46.076 167.709 44.0273 167.709 44.0273Z" fill="black" stroke="black" stroke-width="1.91462" stroke-linecap="round" stroke-linejoin="round"/>
<path d="M163.028 65.2313C164.324 64.4832 164.858 62.9822 164.221 61.8787C163.584 60.7752 162.017 60.4871 160.721 61.2353C159.425 61.9834 158.891 63.4844 159.529 64.5879C160.166 65.6913 161.733 65.9794 163.028 65.2313Z" fill="black" stroke="black" stroke-width="1.91462" stroke-linecap="round" stroke-linejoin="round"/>
<path d="M156.293 77.0652C156.293 77.0652 158.571 80.2148 162.18 78.6927C165.789 77.1706 162.822 65.6445 162.822 65.6445C162.822 65.6445 166.843 76.4813 171.045 75.0836C175.248 73.6859 174.434 69.7227 174.434 69.7227" stroke="black" stroke-width="1.62743" stroke-linecap="round" stroke-linejoin="round"/>
<path d="M171.547 58.2063L197.26 38.6484" stroke="black" stroke-width="1.62743" stroke-linecap="round" stroke-linejoin="round"/>
<path d="M173.91 59.1207L201.5 42.3008" stroke="black" stroke-width="1.62743" stroke-linecap="round" stroke-linejoin="round"/>
<path d="M174.504 61.3211L200.907 52.5234" stroke="black" stroke-width="1.62743" stroke-linecap="round" stroke-linejoin="round"/>
<path d="M150.642 64.582L118.457 67.4731" stroke="black" stroke-width="1.62743" stroke-linecap="round" stroke-linejoin="round"/>
<path d="M149.503 66.8477L117.797 73.0319" stroke="black" stroke-width="1.62743" stroke-linecap="round" stroke-linejoin="round"/>
<path d="M150.557 68.8672L125.121 80.173" stroke="black" stroke-width="1.62743" stroke-linecap="round" stroke-linejoin="round"/>
<line x1="229.777" y1="271.513" x2="238.106" y2="266.713" stroke="black" stroke-width="1.91462" stroke-linecap="round"/>
<line x1="155.491" y1="269.761" x2="150.33" y2="261.651" stroke="black" stroke-width="1.91462" stroke-linecap="round"/>
<line x1="226.091" y1="270.435" x2="231.008" y2="260.009" stroke="black" stroke-width="1.91462"/>
<line x1="154.568" y1="273.485" x2="143.936" y2="269.03" stroke="black" stroke-width="1.91462"/>
</g>
<defs>
<clipPath id="clip0_2028_1387">
<rect width="242" height="295" fill="white"/>
</clipPath>
</defs>
</svg>
