<svg width="176" height="646" viewBox="0 0 176 646" fill="none" xmlns="http://www.w3.org/2000/svg">
<mask id="path-1-outside-1_2044_1815" maskUnits="userSpaceOnUse" x="0.0800781" y="96.4395" width="176" height="550" fill="black">
<rect fill="white" x="0.0800781" y="96.4395" width="176" height="550"/>
<path d="M66.6401 177.159H44.3201C30.7201 177.159 20.2401 173.799 12.8801 167.079C5.6801 160.519 2.0801 150.759 2.0801 137.799C2.0801 124.839 5.6801 114.999 12.8801 108.279C20.2401 101.719 30.7201 98.4395 44.3201 98.4395L131.68 98.4395C145.28 98.4395 155.68 101.719 162.88 108.279C170.24 114.999 173.92 124.839 173.92 137.799C173.92 150.759 170.24 160.519 162.88 167.079C155.68 173.799 145.28 177.159 131.68 177.159H115.36V152.199H133.36C139.44 152.199 143.68 150.919 146.08 148.359C148.64 145.959 149.92 142.679 149.92 138.519C149.92 134.359 148.64 130.999 146.08 128.439C143.68 126.039 139.44 124.839 133.36 124.839L42.6401 124.839C36.5601 124.839 32.3201 126.039 29.9201 128.439C27.5201 130.999 26.3201 134.359 26.3201 138.519C26.3201 142.679 27.5201 145.959 29.9201 148.359C32.3201 150.919 36.5601 152.199 42.6401 152.199H66.6401V177.159Z"/>
<path d="M4.0001 219.578L4.0001 193.178L172 193.178V219.578H100L100 249.578L172 249.578V276.458L4.00009 276.458L4.00009 249.578H76.0001V219.578L4.0001 219.578Z"/>
<path d="M101.2 321.999V358.239H77.2001V321.999H28.0001L28.0001 367.599H4.00009L4.00009 295.599H172V367.599H148V321.999L101.2 321.999Z"/>
<path d="M101.2 410.359V446.599H77.2001V410.359H28.0001L28.0001 455.959H4.00008L4.00009 383.959H172L172 455.959H148V410.359H101.2Z"/>
<path d="M4.00008 527.518C5.12008 527.198 6.16008 526.878 7.12008 526.558C8.08008 526.238 9.28008 525.918 10.7201 525.598C12.1601 525.438 14.0001 525.278 16.2401 525.118C18.4801 525.118 21.2801 525.118 24.6401 525.118H51.0401C58.8801 525.118 64.4001 523.758 67.6001 521.038C70.8001 518.318 72.4001 513.918 72.4001 507.838V498.718H4.00008L4.00008 472.318H172V512.158C172 525.918 168.8 535.838 162.4 541.918C156 548.158 146.32 551.278 133.36 551.278H120.16C102.88 551.278 91.5201 545.518 86.0801 533.998C83.3601 540.718 78.8801 545.278 72.6401 547.678C66.5601 550.238 59.1201 551.518 50.3201 551.518L24.4001 551.518C20.2401 551.518 16.5601 551.678 13.3601 551.998C10.3201 552.318 7.20008 553.118 4.00008 554.398L4.00008 527.518ZM148 498.718H96.4001V509.038C96.4001 513.998 97.6801 517.838 100.24 520.558C102.8 523.438 107.44 524.878 114.16 524.878H130.72C136.8 524.878 141.2 523.758 143.92 521.518C146.64 519.438 148 516.078 148 511.438V498.718Z"/>
<path d="M131.68 565.521C145.28 565.521 155.68 568.721 162.88 575.121C170.24 581.681 173.92 591.441 173.92 604.401C173.92 617.361 170.24 627.041 162.88 633.441C155.68 640.001 145.28 643.281 131.68 643.281H126.4L126.4 618.321H133.36C139.44 618.321 143.68 617.121 146.08 614.721C148.64 612.481 149.92 609.281 149.92 605.121C149.92 600.961 148.64 597.681 146.08 595.281C143.68 593.041 139.44 591.921 133.36 591.921C127.6 591.921 122.48 593.201 118 595.761C113.68 598.321 109.52 601.521 105.52 605.361C101.68 609.201 97.7601 613.281 93.7601 617.601C89.9201 622.081 85.6801 626.241 81.0401 630.081C76.4001 633.921 71.1201 637.121 65.2001 639.681C59.2801 642.241 52.3201 643.521 44.3201 643.521C30.7201 643.521 20.2401 640.161 12.8801 633.441C5.68008 626.881 2.08008 617.121 2.08008 604.161C2.08008 591.201 5.68008 581.361 12.8801 574.641C20.2401 568.081 30.7201 564.801 44.3201 564.801H54.6401L54.6401 589.761H42.6401C36.5601 589.761 32.3201 590.961 29.9201 593.361C27.5201 595.921 26.3201 599.281 26.3201 603.441C26.3201 607.601 27.5201 610.881 29.9201 613.281C32.3201 615.841 36.5601 617.121 42.6401 617.121C48.4001 617.121 53.4401 615.841 57.7601 613.281C62.2401 610.721 66.4001 607.521 70.2401 603.681C74.2401 599.841 78.1601 595.681 82.0001 591.201C86.0001 586.881 90.3201 582.801 94.9601 578.961C99.6001 575.121 104.88 571.921 110.8 569.361C116.72 566.801 123.68 565.521 131.68 565.521Z"/>
</mask>
<path d="M66.6401 177.159H44.3201C30.7201 177.159 20.2401 173.799 12.8801 167.079C5.6801 160.519 2.0801 150.759 2.0801 137.799C2.0801 124.839 5.6801 114.999 12.8801 108.279C20.2401 101.719 30.7201 98.4395 44.3201 98.4395L131.68 98.4395C145.28 98.4395 155.68 101.719 162.88 108.279C170.24 114.999 173.92 124.839 173.92 137.799C173.92 150.759 170.24 160.519 162.88 167.079C155.68 173.799 145.28 177.159 131.68 177.159H115.36V152.199H133.36C139.44 152.199 143.68 150.919 146.08 148.359C148.64 145.959 149.92 142.679 149.92 138.519C149.92 134.359 148.64 130.999 146.08 128.439C143.68 126.039 139.44 124.839 133.36 124.839L42.6401 124.839C36.5601 124.839 32.3201 126.039 29.9201 128.439C27.5201 130.999 26.3201 134.359 26.3201 138.519C26.3201 142.679 27.5201 145.959 29.9201 148.359C32.3201 150.919 36.5601 152.199 42.6401 152.199H66.6401V177.159Z" fill="#F5F3F0"/>
<path d="M4.0001 219.578L4.0001 193.178L172 193.178V219.578H100L100 249.578L172 249.578V276.458L4.00009 276.458L4.00009 249.578H76.0001V219.578L4.0001 219.578Z" fill="#F5F3F0"/>
<path d="M101.2 321.999V358.239H77.2001V321.999H28.0001L28.0001 367.599H4.00009L4.00009 295.599H172V367.599H148V321.999L101.2 321.999Z" fill="#F5F3F0"/>
<path d="M101.2 410.359V446.599H77.2001V410.359H28.0001L28.0001 455.959H4.00008L4.00009 383.959H172L172 455.959H148V410.359H101.2Z" fill="#F5F3F0"/>
<path d="M4.00008 527.518C5.12008 527.198 6.16008 526.878 7.12008 526.558C8.08008 526.238 9.28008 525.918 10.7201 525.598C12.1601 525.438 14.0001 525.278 16.2401 525.118C18.4801 525.118 21.2801 525.118 24.6401 525.118H51.0401C58.8801 525.118 64.4001 523.758 67.6001 521.038C70.8001 518.318 72.4001 513.918 72.4001 507.838V498.718H4.00008L4.00008 472.318H172V512.158C172 525.918 168.8 535.838 162.4 541.918C156 548.158 146.32 551.278 133.36 551.278H120.16C102.88 551.278 91.5201 545.518 86.0801 533.998C83.3601 540.718 78.8801 545.278 72.6401 547.678C66.5601 550.238 59.1201 551.518 50.3201 551.518L24.4001 551.518C20.2401 551.518 16.5601 551.678 13.3601 551.998C10.3201 552.318 7.20008 553.118 4.00008 554.398L4.00008 527.518ZM148 498.718H96.4001V509.038C96.4001 513.998 97.6801 517.838 100.24 520.558C102.8 523.438 107.44 524.878 114.16 524.878H130.72C136.8 524.878 141.2 523.758 143.92 521.518C146.64 519.438 148 516.078 148 511.438V498.718Z" fill="#F5F3F0"/>
<path d="M131.68 565.521C145.28 565.521 155.68 568.721 162.88 575.121C170.24 581.681 173.92 591.441 173.92 604.401C173.92 617.361 170.24 627.041 162.88 633.441C155.68 640.001 145.28 643.281 131.68 643.281H126.4L126.4 618.321H133.36C139.44 618.321 143.68 617.121 146.08 614.721C148.64 612.481 149.92 609.281 149.92 605.121C149.92 600.961 148.64 597.681 146.08 595.281C143.68 593.041 139.44 591.921 133.36 591.921C127.6 591.921 122.48 593.201 118 595.761C113.68 598.321 109.52 601.521 105.52 605.361C101.68 609.201 97.7601 613.281 93.7601 617.601C89.9201 622.081 85.6801 626.241 81.0401 630.081C76.4001 633.921 71.1201 637.121 65.2001 639.681C59.2801 642.241 52.3201 643.521 44.3201 643.521C30.7201 643.521 20.2401 640.161 12.8801 633.441C5.68008 626.881 2.08008 617.121 2.08008 604.161C2.08008 591.201 5.68008 581.361 12.8801 574.641C20.2401 568.081 30.7201 564.801 44.3201 564.801H54.6401L54.6401 589.761H42.6401C36.5601 589.761 32.3201 590.961 29.9201 593.361C27.5201 595.921 26.3201 599.281 26.3201 603.441C26.3201 607.601 27.5201 610.881 29.9201 613.281C32.3201 615.841 36.5601 617.121 42.6401 617.121C48.4001 617.121 53.4401 615.841 57.7601 613.281C62.2401 610.721 66.4001 607.521 70.2401 603.681C74.2401 599.841 78.1601 595.681 82.0001 591.201C86.0001 586.881 90.3201 582.801 94.9601 578.961C99.6001 575.121 104.88 571.921 110.8 569.361C116.72 566.801 123.68 565.521 131.68 565.521Z" fill="#F5F3F0"/>
<path d="M66.6401 177.159H44.3201C30.7201 177.159 20.2401 173.799 12.8801 167.079C5.6801 160.519 2.0801 150.759 2.0801 137.799C2.0801 124.839 5.6801 114.999 12.8801 108.279C20.2401 101.719 30.7201 98.4395 44.3201 98.4395L131.68 98.4395C145.28 98.4395 155.68 101.719 162.88 108.279C170.24 114.999 173.92 124.839 173.92 137.799C173.92 150.759 170.24 160.519 162.88 167.079C155.68 173.799 145.28 177.159 131.68 177.159H115.36V152.199H133.36C139.44 152.199 143.68 150.919 146.08 148.359C148.64 145.959 149.92 142.679 149.92 138.519C149.92 134.359 148.64 130.999 146.08 128.439C143.68 126.039 139.44 124.839 133.36 124.839L42.6401 124.839C36.5601 124.839 32.3201 126.039 29.9201 128.439C27.5201 130.999 26.3201 134.359 26.3201 138.519C26.3201 142.679 27.5201 145.959 29.9201 148.359C32.3201 150.919 36.5601 152.199 42.6401 152.199H66.6401V177.159Z" stroke="#002D50" stroke-width="4" mask="url(#path-1-outside-1_2044_1815)"/>
<path d="M4.0001 219.578L4.0001 193.178L172 193.178V219.578H100L100 249.578L172 249.578V276.458L4.00009 276.458L4.00009 249.578H76.0001V219.578L4.0001 219.578Z" stroke="#002D50" stroke-width="4" mask="url(#path-1-outside-1_2044_1815)"/>
<path d="M101.2 321.999V358.239H77.2001V321.999H28.0001L28.0001 367.599H4.00009L4.00009 295.599H172V367.599H148V321.999L101.2 321.999Z" stroke="#002D50" stroke-width="4" mask="url(#path-1-outside-1_2044_1815)"/>
<path d="M101.2 410.359V446.599H77.2001V410.359H28.0001L28.0001 455.959H4.00008L4.00009 383.959H172L172 455.959H148V410.359H101.2Z" stroke="#002D50" stroke-width="4" mask="url(#path-1-outside-1_2044_1815)"/>
<path d="M4.00008 527.518C5.12008 527.198 6.16008 526.878 7.12008 526.558C8.08008 526.238 9.28008 525.918 10.7201 525.598C12.1601 525.438 14.0001 525.278 16.2401 525.118C18.4801 525.118 21.2801 525.118 24.6401 525.118H51.0401C58.8801 525.118 64.4001 523.758 67.6001 521.038C70.8001 518.318 72.4001 513.918 72.4001 507.838V498.718H4.00008L4.00008 472.318H172V512.158C172 525.918 168.8 535.838 162.4 541.918C156 548.158 146.32 551.278 133.36 551.278H120.16C102.88 551.278 91.5201 545.518 86.0801 533.998C83.3601 540.718 78.8801 545.278 72.6401 547.678C66.5601 550.238 59.1201 551.518 50.3201 551.518L24.4001 551.518C20.2401 551.518 16.5601 551.678 13.3601 551.998C10.3201 552.318 7.20008 553.118 4.00008 554.398L4.00008 527.518ZM148 498.718H96.4001V509.038C96.4001 513.998 97.6801 517.838 100.24 520.558C102.8 523.438 107.44 524.878 114.16 524.878H130.72C136.8 524.878 141.2 523.758 143.92 521.518C146.64 519.438 148 516.078 148 511.438V498.718Z" stroke="#002D50" stroke-width="4" mask="url(#path-1-outside-1_2044_1815)"/>
<path d="M131.68 565.521C145.28 565.521 155.68 568.721 162.88 575.121C170.24 581.681 173.92 591.441 173.92 604.401C173.92 617.361 170.24 627.041 162.88 633.441C155.68 640.001 145.28 643.281 131.68 643.281H126.4L126.4 618.321H133.36C139.44 618.321 143.68 617.121 146.08 614.721C148.64 612.481 149.92 609.281 149.92 605.121C149.92 600.961 148.64 597.681 146.08 595.281C143.68 593.041 139.44 591.921 133.36 591.921C127.6 591.921 122.48 593.201 118 595.761C113.68 598.321 109.52 601.521 105.52 605.361C101.68 609.201 97.7601 613.281 93.7601 617.601C89.9201 622.081 85.6801 626.241 81.0401 630.081C76.4001 633.921 71.1201 637.121 65.2001 639.681C59.2801 642.241 52.3201 643.521 44.3201 643.521C30.7201 643.521 20.2401 640.161 12.8801 633.441C5.68008 626.881 2.08008 617.121 2.08008 604.161C2.08008 591.201 5.68008 581.361 12.8801 574.641C20.2401 568.081 30.7201 564.801 44.3201 564.801H54.6401L54.6401 589.761H42.6401C36.5601 589.761 32.3201 590.961 29.9201 593.361C27.5201 595.921 26.3201 599.281 26.3201 603.441C26.3201 607.601 27.5201 610.881 29.9201 613.281C32.3201 615.841 36.5601 617.121 42.6401 617.121C48.4001 617.121 53.4401 615.841 57.7601 613.281C62.2401 610.721 66.4001 607.521 70.2401 603.681C74.2401 599.841 78.1601 595.681 82.0001 591.201C86.0001 586.881 90.3201 582.801 94.9601 578.961C99.6001 575.121 104.88 571.921 110.8 569.361C116.72 566.801 123.68 565.521 131.68 565.521Z" stroke="#002D50" stroke-width="4" mask="url(#path-1-outside-1_2044_1815)"/>
<path d="M111.314 30.4072C112.832 31.0705 112.832 33.224 111.314 33.8873L93.6061 41.6239C93.1677 41.8154 92.8178 42.1653 92.6263 42.6037L84.8897 60.3117C84.2264 61.8299 82.0729 61.8299 81.4096 60.3117L73.673 42.6037C73.4815 42.1653 73.1315 41.8154 72.6932 41.6239L54.9851 33.8873C53.4669 33.224 53.4669 31.0705 54.9851 30.4072L72.6932 22.6706C73.1315 22.4791 73.4815 22.1292 73.673 21.6908L81.4096 3.98274C82.0729 2.46454 84.2264 2.46454 84.8897 3.98274L92.6263 21.6908C92.8178 22.1292 93.1677 22.4791 93.6061 22.6706L111.314 30.4072Z" fill="#E7C37D"/>
</svg>
