<svg width="58" height="62" viewBox="0 0 58 62" fill="none" xmlns="http://www.w3.org/2000/svg">
<mask id="path-1-inside-1_2066_2234" fill="white">
<path d="M56.8632 6.96191C58.4774 10.8637 56.125 15.1065 52.2558 16.0322L28.6903 23.2031L5.12394 16.0322C1.25529 15.106 -1.09657 10.8634 0.517492 6.96191L3.38468 0.03125H53.996L56.8632 6.96191Z"/>
</mask>
<path d="M56.8632 6.96191L55.8925 7.36347V7.36348L56.8632 6.96191ZM52.2558 16.0322L52.0114 15.0106L51.9804 15.018L51.95 15.0273L52.2558 16.0322ZM28.6903 23.2031L28.3846 24.2081L28.6903 24.3011L28.9961 24.2081L28.6903 23.2031ZM5.12394 16.0322L5.42973 15.0273L5.39937 15.018L5.36851 15.0107L5.12394 16.0322ZM0.517492 6.96191L1.48814 7.36348L1.48814 7.36347L0.517492 6.96191ZM3.38468 0.03125V-1.01918H2.68247L2.41403 -0.370305L3.38468 0.03125ZM53.996 0.03125L54.9667 -0.370305L54.6982 -1.01918H53.996V0.03125ZM56.8632 6.96191L55.8925 7.36348C57.2518 10.6489 55.2732 14.2302 52.0114 15.0106L52.2558 16.0322L52.5002 17.0538C56.9767 15.9828 59.703 11.0785 57.8338 6.56035L56.8632 6.96191ZM52.2558 16.0322L51.95 15.0273L28.3845 22.1982L28.6903 23.2031L28.9961 24.2081L52.5616 17.0372L52.2558 16.0322ZM28.6903 23.2031L28.9961 22.1982L5.42973 15.0273L5.12394 16.0322L4.81815 17.0372L28.3846 24.2081L28.6903 23.2031ZM5.12394 16.0322L5.36851 15.0107C2.10714 14.2299 0.12903 10.6487 1.48814 7.36348L0.517492 6.96191L-0.453158 6.56035C-2.32216 11.0781 0.403448 15.9822 4.87937 17.0538L5.12394 16.0322ZM0.517492 6.96191L1.48814 7.36347L4.35533 0.432805L3.38468 0.03125L2.41403 -0.370305L-0.453161 6.56036L0.517492 6.96191ZM3.38468 0.03125V1.08168H53.996V0.03125V-1.01918H3.38468V0.03125ZM53.996 0.03125L53.0254 0.432805L55.8925 7.36347L56.8632 6.96191L57.8338 6.56036L54.9667 -0.370305L53.996 0.03125Z" fill="#002D50" mask="url(#path-1-inside-1_2066_2234)"/>
<path d="M52.9296 8.21094C55.0374 10.1751 53.7656 13.6517 50.9872 13.8838L28.8348 20.6953L6.13074 13.8887C3.2904 13.7246 1.96818 10.1961 4.09851 8.21094H52.9296Z" fill="#F77D68"/>
<path d="M28.6914 22.7734V53.8349" stroke="#002D50" stroke-width="1.05043"/>
<path d="M28.6966 53.7344C28.6966 55.4137 28.3767 56.9841 26.228 58.3484C23.554 60.0464 16.4414 61.1817 16.4414 61.1817H28.5893" stroke="#002D50" stroke-width="1.05043"/>
<path d="M28.695 53.7344C28.695 55.4137 29.1663 56.9841 31.3149 58.3484C33.989 60.0464 41.1016 61.1817 41.1016 61.1817H28.5877" stroke="#002D50" stroke-width="1.05043"/>
</svg>
