<svg width="176" height="189" viewBox="0 0 176 189" fill="none" xmlns="http://www.w3.org/2000/svg">
<g clip-path="url(#clip0_418_13911)">
<mask id="path-1-inside-1_418_13911" fill="white">
<path fill-rule="evenodd" clip-rule="evenodd" d="M174.418 21.2764C179.044 32.482 173.051 44.5996 162.558 48.4893H162.574L162.499 48.5117C161.805 48.7664 161.091 48.9839 160.36 49.1641L88.0016 71.2285L15.6579 49.168C14.9144 48.9855 14.1889 48.7653 13.484 48.5059L13.4294 48.4893H13.4401C2.94743 44.5994 -3.04435 32.4819 1.5817 21.2764L10.3649 0H165.633L174.418 21.2764Z"/>
</mask>
<path d="M174.418 21.2764L176.266 20.5132L176.266 20.5131L174.418 21.2764ZM162.558 48.4893L161.863 46.614L162.558 50.4893V48.4893ZM162.574 48.4893L163.146 50.4056L162.574 46.4893V48.4893ZM162.499 48.5117L161.926 46.5954L161.867 46.613L161.809 46.6342L162.499 48.5117ZM160.36 49.1641L159.881 47.2222L159.829 47.2352L159.777 47.251L160.36 49.1641ZM88.0016 71.2285L87.4183 73.1415L88.0016 73.3194L88.585 73.1415L88.0016 71.2285ZM15.6579 49.168L16.2412 47.2549L16.1883 47.2388L16.1346 47.2256L15.6579 49.168ZM13.484 48.5059L14.1749 46.629L14.1205 46.6089L14.065 46.5921L13.484 48.5059ZM13.4294 48.4893V46.4893L12.8484 50.403L13.4294 48.4893ZM13.4401 48.4893V50.4893L14.1353 46.614L13.4401 48.4893ZM1.5817 21.2764L3.43036 22.0396L3.43037 22.0395L1.5817 21.2764ZM10.3649 0V-2H9.02682L8.51623 -0.763159L10.3649 0ZM165.633 0L167.482 -0.763232L166.971 -2H165.633V0ZM174.418 21.2764L172.569 22.0395C176.742 32.1485 171.344 43.0994 161.863 46.614L162.558 48.4893L163.253 50.3646C174.758 46.0998 181.345 32.8154 176.266 20.5132L174.418 21.2764ZM162.558 48.4893V50.4893H162.574V48.4893V46.4893H162.558V48.4893ZM162.574 48.4893L162.001 46.5729L161.926 46.5954L162.499 48.5117L163.071 50.4281L163.146 50.4056L162.574 48.4893ZM162.499 48.5117L161.809 46.6342C161.186 46.8629 160.543 47.0591 159.881 47.2222L160.36 49.1641L160.839 51.106C161.639 50.9087 162.423 50.6699 163.188 50.3892L162.499 48.5117ZM160.36 49.1641L159.777 47.251L87.4183 69.3155L88.0016 71.2285L88.585 73.1415L160.943 51.0771L160.36 49.1641ZM88.0016 71.2285L88.585 69.3155L16.2412 47.2549L15.6579 49.168L15.0745 51.081L87.4183 73.1415L88.0016 71.2285ZM15.6579 49.168L16.1346 47.2256C15.4603 47.0601 14.8065 46.8615 14.1749 46.629L13.484 48.5059L12.7932 50.3828C13.5713 50.6692 14.3685 50.9109 15.1811 51.1103L15.6579 49.168ZM13.484 48.5059L14.065 46.5921L14.0103 46.5755L13.4294 48.4893L12.8484 50.403L12.9031 50.4196L13.484 48.5059ZM13.4294 48.4893V50.4893H13.4401V48.4893V46.4893H13.4294V48.4893ZM13.4401 48.4893L14.1353 46.614C4.65467 43.0993 -0.742998 32.1485 3.43036 22.0396L1.5817 21.2764L-0.266955 20.5132C-5.34571 32.8152 1.24018 46.0995 12.7449 50.3645L13.4401 48.4893ZM1.5817 21.2764L3.43037 22.0395L12.2136 0.763159L10.3649 0L8.51623 -0.763159L-0.26697 20.5132L1.5817 21.2764ZM10.3649 0V2H165.633V0V-2H10.3649V0ZM165.633 0L163.785 0.763232L172.569 22.0396L174.418 21.2764L176.266 20.5131L167.482 -0.763232L165.633 0Z" fill="#002D50" mask="url(#path-1-inside-1_418_13911)"/>
<path fill-rule="evenodd" clip-rule="evenodd" d="M162.362 27.3125C168.833 33.3549 164.923 44.034 156.388 44.7529L88.4424 65.6875L18.8145 44.7725C10.0825 44.2699 6.01257 33.4217 12.5547 27.3125H162.362Z" fill="#F77D68"/>
<path d="M88.0039 69.9141V165.404" stroke="#002D50" stroke-width="2"/>
<path d="M88.0212 165.105C88.0212 170.268 87.0396 175.096 80.4479 179.29C72.2443 184.51 50.4238 188 50.4238 188H87.692" stroke="#002D50" stroke-width="2"/>
<path d="M88.0185 165.105C88.0185 170.268 89.4643 175.096 96.056 179.29C104.26 184.51 126.08 188 126.08 188H87.6893" stroke="#002D50" stroke-width="2"/>
</g>
<defs>
<clipPath id="clip0_418_13911">
<rect width="176" height="189" fill="white"/>
</clipPath>
</defs>
</svg>
