<svg width="92" height="21" viewBox="0 0 92 21" fill="none" xmlns="http://www.w3.org/2000/svg">
<path d="M23.8425 9.07584L23.3173 9.60104C23.5173 10.2085 23.5976 10.8468 23.5583 11.479L24.902 10.1353C26.3648 8.67247 26.3648 6.30069 24.902 4.83781L24.7237 4.65959C23.2609 3.19672 20.8893 3.19672 19.4265 4.65959L17.7758 6.30962C17.7614 6.32408 17.747 6.33864 17.7329 6.35328L17.4974 6.58881L17.5115 6.60296C16.3191 8.0741 16.4072 10.2385 17.7758 11.6072L18.4169 12.2483L19.4764 11.1888L18.8353 10.5476C17.9688 9.68113 17.9577 8.28309 18.8021 7.403L20.4859 5.7191C21.3636 4.84138 22.7866 4.84138 23.6643 5.7191L23.8425 5.89732C24.7202 6.77504 24.7202 8.19811 23.8425 9.07584Z" fill="black"/>
<path d="M14.0962 9.98953L15.4398 8.64577C15.4004 9.27808 15.4806 9.91646 15.6805 10.5241L15.1556 11.049C14.2779 11.9268 14.2779 13.3498 15.1556 14.2276L15.3338 14.4058C16.2115 15.2835 17.6345 15.2835 18.5122 14.4058L20.201 12.7169C21.0401 11.8365 21.0273 10.4424 20.1626 9.57766L19.5215 8.93653L20.581 7.87702L21.2221 8.51816C22.5906 9.88675 22.6788 12.0509 21.4867 13.522L21.5008 13.5361L21.2717 13.7651C21.2554 13.7821 21.2388 13.7989 21.2221 13.8157L19.661 15.3769L19.5716 15.4653C18.1088 16.9282 15.7372 16.9282 14.2744 15.4653L14.0962 15.2871C12.6334 13.8242 12.6334 11.4524 14.0962 9.98953Z" fill="black"/>
<path d="M41.831 8.27983H40.2372C40.1918 8.01847 40.108 7.78693 39.9858 7.58523C39.8636 7.38068 39.7116 7.20739 39.5298 7.06534C39.348 6.9233 39.1406 6.81676 38.9077 6.74574C38.6776 6.67188 38.429 6.63494 38.1619 6.63494C37.6875 6.63494 37.267 6.75426 36.9006 6.9929C36.5341 7.22869 36.2472 7.57528 36.0398 8.03267C35.8324 8.48722 35.7287 9.04261 35.7287 9.69886C35.7287 10.3665 35.8324 10.929 36.0398 11.3864C36.25 11.8409 36.5369 12.1847 36.9006 12.4176C37.267 12.6477 37.6861 12.7628 38.1577 12.7628C38.419 12.7628 38.6634 12.7287 38.8906 12.6605C39.1207 12.5895 39.3267 12.4858 39.5085 12.3494C39.6932 12.2131 39.848 12.0455 39.973 11.8466C40.1009 11.6477 40.1889 11.4205 40.2372 11.1648L41.831 11.1733C41.7713 11.5881 41.642 11.9773 41.4432 12.3409C41.2472 12.7045 40.9901 13.0256 40.6719 13.304C40.3537 13.5795 39.9815 13.7955 39.5554 13.9517C39.1293 14.1051 38.6563 14.1818 38.1364 14.1818C37.3693 14.1818 36.6847 14.0043 36.0824 13.6491C35.4801 13.294 35.0057 12.7812 34.6591 12.1108C34.3125 11.4403 34.1392 10.6364 34.1392 9.69886C34.1392 8.75852 34.3139 7.95455 34.6634 7.28693C35.0128 6.61648 35.4886 6.10369 36.0909 5.74858C36.6932 5.39347 37.375 5.21591 38.1364 5.21591C38.6222 5.21591 39.0739 5.28409 39.4915 5.42045C39.9091 5.55682 40.2813 5.7571 40.608 6.02131C40.9347 6.28267 41.2031 6.60369 41.4134 6.98438C41.6264 7.36222 41.7656 7.79403 41.831 8.27983ZM46.0657 14.1903C45.4123 14.1903 44.8512 14.0469 44.3825 13.7599C43.9165 13.473 43.5572 13.0767 43.3043 12.571C43.0543 12.0625 42.9293 11.4773 42.9293 10.8153C42.9293 10.1506 43.0572 9.56392 43.3129 9.0554C43.5685 8.54403 43.9293 8.14631 44.3952 7.86222C44.864 7.57528 45.418 7.43182 46.0572 7.43182C46.5884 7.43182 47.0586 7.52983 47.4677 7.72585C47.8796 7.91903 48.2077 8.19318 48.4521 8.5483C48.6964 8.90057 48.8356 9.3125 48.8697 9.78409H47.3952C47.3356 9.46875 47.1935 9.20597 46.9691 8.99574C46.7475 8.78267 46.4506 8.67614 46.0785 8.67614C45.7631 8.67614 45.4862 8.76136 45.2475 8.93182C45.0089 9.09943 44.8228 9.34091 44.6893 9.65625C44.5586 9.97159 44.4933 10.3494 44.4933 10.7898C44.4933 11.2358 44.5586 11.6193 44.6893 11.9403C44.82 12.2585 45.0032 12.5043 45.239 12.6776C45.4776 12.848 45.7575 12.9332 46.0785 12.9332C46.3058 12.9332 46.5089 12.8906 46.6879 12.8054C46.8697 12.7173 47.0217 12.5909 47.1438 12.4261C47.266 12.2614 47.3498 12.0611 47.3952 11.8253H48.8697C48.8327 12.2884 48.6964 12.6989 48.4606 13.0568C48.2248 13.4119 47.9038 13.6903 47.4975 13.892C47.0913 14.0909 46.614 14.1903 46.0657 14.1903ZM51.1804 9.64773H53.1108C53.946 9.64773 54.5923 9.85085 55.0497 10.2571C55.5071 10.6634 55.7372 11.196 55.7401 11.8551C55.7372 12.2841 55.6321 12.6648 55.4247 12.9972C55.2202 13.3295 54.9219 13.5909 54.5298 13.7812C54.1406 13.9688 53.6676 14.0625 53.1108 14.0625H50.1364V7.51705H51.6236V12.7969H53.1108C53.446 12.7969 53.7216 12.7116 53.9375 12.5412C54.1534 12.3679 54.2614 12.1463 54.2614 11.8764C54.2614 11.5923 54.1534 11.3608 53.9375 11.1818C53.7216 11.0028 53.446 10.9134 53.1108 10.9134H51.1804V9.64773ZM56.554 14.0625V7.51705H58.0966V14.0625H56.554ZM59.2354 14.0625L59.2269 12.7926H59.4528C59.6232 12.7926 59.7667 12.7543 59.8832 12.6776C59.9996 12.6009 60.0962 12.473 60.1729 12.294C60.2496 12.1122 60.3093 11.8679 60.3519 11.5611C60.3945 11.2543 60.4244 10.8722 60.4414 10.4148L60.5565 7.51705H65.3292V14.0625H63.8377V8.78267H61.9585L61.8562 10.892C61.8306 11.4375 61.7695 11.9105 61.6729 12.3111C61.5792 12.7088 61.4457 13.0369 61.2724 13.2955C61.1019 13.554 60.8874 13.7472 60.6289 13.875C60.3704 14 60.065 14.0625 59.7127 14.0625H59.2354ZM66.8825 14.0625V7.51705H68.4251V10.1591H68.9876L70.9563 7.51705H72.8143L70.3896 10.7301L72.8398 14.0625H70.9734L69.1793 11.5952H68.4251V14.0625H66.8825ZM75.598 14.1946C75.1832 14.1946 74.8097 14.1207 74.4773 13.973C74.1477 13.8224 73.8864 13.6009 73.6932 13.3082C73.5028 13.0156 73.4077 12.6548 73.4077 12.2259C73.4077 11.8565 73.4759 11.5511 73.6122 11.3097C73.7486 11.0682 73.9347 10.875 74.1705 10.7301C74.4063 10.5852 74.6719 10.4759 74.9673 10.402C75.2656 10.3253 75.5739 10.2699 75.892 10.2358C76.2756 10.196 76.5866 10.1605 76.8253 10.1293C77.0639 10.0952 77.2372 10.044 77.3452 9.97585C77.456 9.90483 77.5114 9.79545 77.5114 9.64773V9.62216C77.5114 9.30114 77.4162 9.05256 77.2259 8.87642C77.0355 8.70028 76.7614 8.61222 76.4034 8.61222C76.0256 8.61222 75.7259 8.6946 75.5043 8.85938C75.2855 9.02415 75.1378 9.21875 75.0611 9.44318L73.6207 9.23864C73.7344 8.84091 73.9219 8.50852 74.1832 8.24148C74.4446 7.97159 74.7642 7.76989 75.142 7.63636C75.5199 7.5 75.9375 7.43182 76.3949 7.43182C76.7102 7.43182 77.0241 7.46875 77.3366 7.54261C77.6491 7.61648 77.9347 7.73864 78.1932 7.90909C78.4517 8.0767 78.6591 8.3054 78.8153 8.59517C78.9744 8.88494 79.054 9.24716 79.054 9.68182V14.0625H77.571V13.1634H77.5199C77.4261 13.3452 77.294 13.5156 77.1236 13.6747C76.956 13.831 76.7443 13.9574 76.4886 14.054C76.2358 14.1477 75.9389 14.1946 75.598 14.1946ZM75.9986 13.0611C76.3082 13.0611 76.5767 13 76.804 12.8778C77.0313 12.7528 77.206 12.5881 77.3281 12.3835C77.4531 12.179 77.5156 11.956 77.5156 11.7145V10.9432C77.4673 10.983 77.3849 11.0199 77.2685 11.054C77.1548 11.0881 77.027 11.1179 76.8849 11.1435C76.7429 11.169 76.6023 11.1918 76.4631 11.2116C76.3239 11.2315 76.2031 11.2486 76.1009 11.2628C75.8707 11.294 75.6648 11.3452 75.483 11.4162C75.3011 11.4872 75.1577 11.5866 75.0526 11.7145C74.9474 11.8395 74.8949 12.0014 74.8949 12.2003C74.8949 12.4844 74.9986 12.6989 75.206 12.8438C75.4134 12.9886 75.6776 13.0611 75.9986 13.0611Z" fill="black"/>
</svg>
