<svg width="102" height="102" viewBox="0 0 102 102" fill="none" xmlns="http://www.w3.org/2000/svg">
<path d="M49.8326 2.67203C50.2776 1.65347 51.7224 1.65347 52.1674 2.67203L66.307 35.0357C66.4355 35.3298 66.6702 35.5645 66.9643 35.693L99.328 49.8326C100.347 50.2776 100.347 51.7224 99.328 52.1674L66.9643 66.307C66.6702 66.4355 66.4355 66.6702 66.307 66.9643L52.1674 99.328C51.7224 100.347 50.2776 100.347 49.8326 99.328L35.693 66.9643C35.5645 66.6702 35.3298 66.4355 35.0357 66.307L2.67203 52.1674C1.65347 51.7224 1.65347 50.2776 2.67203 49.8326L35.0357 35.693C35.3298 35.5645 35.5645 35.3298 35.693 35.0357L49.8326 2.67203Z" fill="#E7C37D"/>
</svg>
