<svg width="160" height="160" viewBox="0 0 160 160" fill="none" xmlns="http://www.w3.org/2000/svg">
<path d="M78.1673 4.19486C78.8659 2.5958 81.1341 2.5958 81.8327 4.19486L104.011 54.9573C104.212 55.419 104.581 55.7876 105.043 55.9893L155.805 78.1673C157.404 78.8659 157.404 81.1341 155.805 81.8327L105.043 104.011C104.581 104.212 104.212 104.581 104.011 105.043L81.8327 155.805C81.1341 157.404 78.8659 157.404 78.1673 155.805L55.9893 105.043C55.7876 104.581 55.419 104.212 54.9573 104.011L4.19486 81.8327C2.5958 81.1341 2.5958 78.8659 4.19486 78.1673L54.9573 55.9893C55.419 55.7876 55.7876 55.419 55.9893 54.9573L78.1673 4.19486Z" fill="#F77D68"/>
</svg>
