<svg width="791" height="888" viewBox="0 0 791 888" fill="none" xmlns="http://www.w3.org/2000/svg">
<path d="M395.5 733C504.669 733 603.476 741.728 674.967 755.827C710.72 762.878 739.59 771.263 759.497 780.545C769.453 785.187 777.113 790.03 782.271 795C787.427 799.969 790 804.984 790 810C790 815.016 787.427 820.031 782.271 825C777.113 829.97 769.453 834.813 759.497 839.455C739.59 848.737 710.72 857.122 674.967 864.173C603.476 878.272 504.669 887 395.5 887C286.331 887 187.524 878.272 116.033 864.173C80.2798 857.122 51.4099 848.737 31.5029 839.455C21.5469 834.813 13.8867 829.97 8.72949 825C3.57328 820.031 1 815.016 1 810C1 804.984 3.57328 799.969 8.72949 795C13.8867 790.03 21.5469 785.187 31.5029 780.545C51.4099 771.263 80.2798 762.878 116.033 755.827C187.524 741.728 286.331 733 395.5 733Z" stroke="#002D50" stroke-width="2"/>
<path d="M395.5 1C594.418 1 756 198.69 756 443C756 687.31 594.418 885 395.5 885C196.582 885 35 687.31 35 443C35 198.69 196.582 1 395.5 1Z" stroke="#002D50" stroke-width="2"/>
</svg>
