<svg width="135" height="328" viewBox="0 0 135 328" fill="none" xmlns="http://www.w3.org/2000/svg">
<path d="M66.7764 0C104.049 0.000242585 134.266 30.2161 134.266 67.4893L134.266 306.941C134.266 318.572 124.837 328 113.207 328L21.3232 328C9.69297 328 0.264648 318.572 0.264648 306.941L0.264648 66.5117C0.264648 29.7786 30.0432 0 66.7764 0ZM66.208 23.1602C46.1044 23.1606 29.8068 39.4272 29.8066 59.4922C29.8067 65.1639 31.1101 70.5317 33.4328 75.3146C34.1159 76.7213 33.1392 78.4483 31.5755 78.4483L2.26563 78.4483C1.16106 78.4483 0.265625 79.3437 0.265625 80.4483L0.265625 93.8242C0.265625 94.9288 1.16106 95.8242 2.26563 95.8242L66.209 95.8242C66.2095 95.8242 66.21 95.8238 66.21 95.8233C66.21 95.8227 66.2104 95.8223 66.211 95.8223C86.3138 95.8209 102.61 79.5565 102.61 59.4922C102.61 39.427 86.312 23.1602 66.208 23.1602Z" fill="#E9511D"/>
<path d="M21.7639 234.139C23.7692 234.139 25.3985 233.92 26.6519 233.481C27.9679 233.042 29.0332 232.447 29.8479 231.695C30.6625 230.943 31.3205 230.066 31.8219 229.063C32.3232 228.06 32.7619 226.995 33.1379 225.867H40.0939L40.0939 291.667H29.7539L29.7539 241.471H21.7639V234.139ZM81.7814 275.875C81.7814 281.202 80.4028 285.306 77.6454 288.189C74.8881 291.009 70.8774 292.419 65.6134 292.419C60.3494 292.419 56.3387 291.009 53.5814 288.189C50.8241 285.306 49.4454 281.202 49.4454 275.875V270.705C49.4454 267.509 49.9467 264.752 50.9494 262.433C51.9521 260.052 53.5814 258.234 55.8374 256.981C51.5761 254.662 49.4454 250.244 49.4454 243.727V241.659C49.4454 236.332 50.8241 232.259 53.5814 229.439C56.3387 226.556 60.3494 225.115 65.6134 225.115C70.8774 225.115 74.8881 226.556 77.6454 229.439C80.4028 232.259 81.7814 236.332 81.7814 241.659V243.727C81.7814 250.182 79.6508 254.6 75.3894 256.981C77.6454 258.234 79.2748 260.052 80.2774 262.433C81.2801 264.752 81.7814 267.509 81.7814 270.705V275.875ZM59.7854 275.593C59.7854 278.538 60.3494 280.512 61.4774 281.515C62.6054 282.518 63.9841 283.019 65.6134 283.019C67.2427 283.019 68.5901 282.518 69.6554 281.515C70.7834 280.512 71.3788 278.538 71.4414 275.593V269.483C71.4414 266.851 70.9088 264.971 69.8434 263.843C68.8408 262.652 67.4308 262.057 65.6134 262.057C63.7961 262.057 62.3547 262.652 61.2894 263.843C60.2867 264.971 59.7854 266.851 59.7854 269.483V275.593ZM59.7854 245.701C59.7854 248.333 60.3181 250.15 61.3834 251.153C62.5114 252.156 63.9214 252.657 65.6134 252.657C67.2427 252.657 68.6214 252.156 69.7494 251.153C70.8774 250.15 71.4414 248.333 71.4414 245.701V242.035C71.4414 239.09 70.8774 237.116 69.7494 236.113C68.6214 235.048 67.2427 234.515 65.6134 234.515C63.9841 234.515 62.6054 235.048 61.4774 236.113C60.3494 237.116 59.7854 239.09 59.7854 242.035V245.701ZM104.669 255.101H117.265V262.433H104.669V275.311H97.337V262.433H84.7409V255.101H97.337V242.411H104.669V255.101Z" fill="#F5F3F0"/>
</svg>
