<svg width="577" height="246" viewBox="0 0 577 246" fill="none" xmlns="http://www.w3.org/2000/svg">
<path d="M333.439 245C354.541 245 373.787 231.579 387.807 209.583C401.819 187.599 410.52 157.166 410.52 123.5C410.52 89.8337 401.819 59.4015 387.807 37.417C373.787 15.4209 354.541 2.00002 333.439 2C312.338 2 293.091 15.4208 279.071 37.417C265.059 59.4015 256.359 89.8338 256.359 123.5C256.359 157.166 265.059 187.599 279.071 209.583C293.091 231.579 312.338 245 333.439 245Z" stroke="#002D50" stroke-width="2"/>
<path d="M463.225 245C470.02 245 476.581 241.741 482.644 235.667C488.71 229.589 494.218 220.742 498.866 209.731C508.16 187.714 513.933 157.227 513.933 123.5C513.933 89.7731 508.16 59.2864 498.866 37.2686C494.218 26.2576 488.71 17.4113 482.644 11.333C476.581 5.25874 470.02 2.00011 463.225 2C456.429 2 449.867 5.25855 443.805 11.333C437.739 17.4113 432.23 26.2576 427.582 37.2686C418.288 59.2864 412.516 89.7731 412.516 123.5C412.516 157.227 418.288 187.714 427.582 209.731C432.23 220.742 437.739 229.589 443.805 235.667C449.867 241.741 456.429 245 463.225 245Z" stroke="#002D50" stroke-width="2"/>
<path d="M545.963 245C549.681 245 553.502 242.002 557.181 235.859C560.821 229.78 564.135 220.916 566.932 209.875C572.52 187.808 575.988 157.269 575.988 123.5C575.988 89.7305 572.52 59.1919 566.932 37.125C564.135 26.0839 560.821 17.2202 557.181 11.1406C553.502 4.99785 549.681 2.00012 545.963 2C542.245 2 538.422 4.99772 534.744 11.1406C531.104 17.2202 527.79 26.0841 524.994 37.125C519.405 59.1919 515.938 89.7305 515.938 123.5C515.938 157.27 519.405 187.808 524.994 209.875C527.79 220.916 531.104 229.78 534.744 235.859C538.422 242.002 542.245 245 545.963 245Z" stroke="#002D50" stroke-width="2"/>
<ellipse cx="122" cy="126.169" rx="122" ry="126.169" transform="matrix(-4.37114e-08 -1 -1 4.37114e-08 254.32 245)" stroke="#002D50" stroke-width="2"/>
</svg>
