<svg width="244" height="72" viewBox="0 0 244 72" fill="none" xmlns="http://www.w3.org/2000/svg">
<path fill-rule="evenodd" clip-rule="evenodd" d="M207.662 2.00042C226.601 2.00071 242 17.3163 242 36.1534C242 54.8708 226.789 69.9996 207.97 69.9996L2.00016 70L2 2L207.662 2.00042ZM232.268 36.4218C232.268 33.6065 229.973 31.324 227.143 31.3239C224.312 31.3239 222.017 33.6063 222.017 36.4218C222.017 39.2372 224.312 41.52 227.143 41.52C229.974 41.5197 232.268 39.2371 232.268 36.4218Z" fill="white" stroke="#002D50" stroke-width="2"/>
<path d="M17.304 23.4H30.224V27.2H25.854V50H21.674V27.2H17.304V23.4ZM36.2449 34.61H41.9829V38.41H36.2449V46.2H43.4649V50H32.0649V23.4H43.4649V27.2H36.2449V34.61ZM50.2352 50H46.0552V23.4H59.2412V50H54.9852V27.2H50.2352V50ZM66.452 34.61H72.19V38.41H66.452V46.2H73.672V50H62.272V23.4H73.672V27.2H66.452V34.61ZM82.4182 23.4C84.5209 23.4 86.0789 23.9573 87.0922 25.072C88.1309 26.1867 88.6502 27.8207 88.6502 29.974V33.432C88.6502 35.5853 88.1309 37.2193 87.0922 38.334C86.0789 39.4487 84.5209 40.006 82.4182 40.006H80.4422V50H76.2622V23.4H82.4182ZM80.4422 27.2V36.206H82.4182C83.0769 36.206 83.5835 36.0287 83.9382 35.674C84.2929 35.3193 84.4702 34.6607 84.4702 33.698V29.708C84.4702 28.7453 84.2929 28.0867 83.9382 27.732C83.5835 27.3773 83.0769 27.2 82.4182 27.2H80.4422ZM90.5864 50V23.4H94.7664V33.394H96.7424C98.8451 33.394 100.403 33.9513 101.416 35.066C102.455 36.1807 102.974 37.8147 102.974 39.968V43.426C102.974 45.5793 102.455 47.2133 101.416 48.328C100.403 49.4427 98.8451 50 96.7424 50H90.5864ZM96.7424 46.2C97.4011 46.2 97.9077 46.0227 98.2624 45.668C98.6171 45.3133 98.7944 44.6547 98.7944 43.692V39.702C98.7944 38.7393 98.6171 38.0807 98.2624 37.726C97.9077 37.3713 97.4011 37.194 96.7424 37.194H94.7664V46.2H96.7424ZM120.222 42.286L123.072 23.4H128.886V50H124.934V30.924L122.046 50H118.094L114.978 31.19V50H111.33V23.4H117.144L120.222 42.286ZM135.764 43.882C135.764 44.8447 135.954 45.5287 136.334 45.934C136.74 46.314 137.272 46.504 137.93 46.504C138.589 46.504 139.108 46.314 139.488 45.934C139.894 45.5287 140.096 44.8447 140.096 43.882V29.518C140.096 28.5553 139.894 27.884 139.488 27.504C139.108 27.0987 138.589 26.896 137.93 26.896C137.272 26.896 136.74 27.0987 136.334 27.504C135.954 27.884 135.764 28.5553 135.764 29.518V43.882ZM131.584 29.784C131.584 27.6307 132.129 25.984 133.218 24.844C134.308 23.6787 135.878 23.096 137.93 23.096C139.982 23.096 141.553 23.6787 142.642 24.844C143.732 25.984 144.276 27.6307 144.276 29.784V43.616C144.276 45.7693 143.732 47.4287 142.642 48.594C141.553 49.734 139.982 50.304 137.93 50.304C135.878 50.304 134.308 49.734 133.218 48.594C132.129 47.4287 131.584 45.7693 131.584 43.616V29.784ZM159.039 34.154L163.979 23.4H168.159L163.029 34.192L168.159 50H163.865L160.065 38.22L159.039 40.234V50H154.897V40.234L153.871 38.182L150.071 50H145.777L150.945 34.306L145.777 23.4H149.957L154.897 34.154V23.4H159.039V34.154ZM174.106 50H169.926V23.4H174.106V34.8H178.856V23.4H183.112V50H178.856V38.6H174.106V50ZM189.981 43.882C189.981 44.8447 190.171 45.5287 190.551 45.934C190.956 46.314 191.488 46.504 192.147 46.504C192.806 46.504 193.325 46.314 193.705 45.934C194.11 45.5287 194.313 44.8447 194.313 43.882V29.518C194.313 28.5553 194.11 27.884 193.705 27.504C193.325 27.0987 192.806 26.896 192.147 26.896C191.488 26.896 190.956 27.0987 190.551 27.504C190.171 27.884 189.981 28.5553 189.981 29.518V43.882ZM185.801 29.784C185.801 27.6307 186.346 25.984 187.435 24.844C188.524 23.6787 190.095 23.096 192.147 23.096C194.199 23.096 195.77 23.6787 196.859 24.844C197.948 25.984 198.493 27.6307 198.493 29.784V43.616C198.493 45.7693 197.948 47.4287 196.859 48.594C195.77 49.734 194.199 50.304 192.147 50.304C190.095 50.304 188.524 49.734 187.435 48.594C186.346 47.4287 185.801 45.7693 185.801 43.616V29.784ZM201.741 44.11L201.209 34.496V23.4H205.389V34.496L204.857 44.11H201.741ZM205.313 45.972V50H201.285V45.972H205.313Z" fill="#002D50"/>
</svg>
