<svg width="194" height="60" viewBox="0 0 194 60" fill="none" xmlns="http://www.w3.org/2000/svg">
<path fill-rule="evenodd" clip-rule="evenodd" d="M163.679 2.00034C179.3 2.00059 192 14.6134 192 30.1263C192 45.5407 179.455 57.9996 163.933 57.9997L2.00013 58L2 2L163.679 2.00034ZM187.369 30.3634C187.369 28.4603 185.821 26.9175 183.912 26.9174C182.003 26.9174 180.454 28.4603 180.454 30.3634C180.454 32.2666 182.003 33.8097 183.912 33.8097C185.821 33.8095 187.369 32.2665 187.369 30.3634Z" fill="white" stroke="#002D50" stroke-width="0.861538"/>
<path d="M18.24 19H28.44V22H24.99V40H21.69V22H18.24V19ZM33.1934 27.85H37.7234V30.85H33.1934V37H38.8934V40H29.8934V19H38.8934V22H33.1934V27.85ZM44.2383 40H40.9383V19H51.3483V40H47.9883V22H44.2383V40ZM57.041 27.85H61.571V30.85H57.041V37H62.741V40H53.741V19L62.741 19V22H57.041V27.85ZM69.6459 19C71.3059 19 72.5359 19.44 73.3359 20.32C74.1559 21.2 74.5659 22.49 74.5659 24.19V26.92C74.5659 28.62 74.1559 29.91 73.3359 30.79C72.5359 31.67 71.3059 32.11 69.6459 32.11H68.0859V40H64.7859V19H69.6459ZM68.0859 22V29.11H69.6459C70.1659 29.11 70.5659 28.97 70.8459 28.69C71.1259 28.41 71.2659 27.89 71.2659 27.13V23.98C71.2659 23.22 71.1259 22.7 70.8459 22.42C70.5659 22.14 70.1659 22 69.6459 22H68.0859ZM76.0945 40V19H79.3945V26.89H80.9545C82.6145 26.89 83.8445 27.33 84.6445 28.21C85.4645 29.09 85.8745 30.38 85.8745 32.08V34.81C85.8745 36.51 85.4645 37.8 84.6445 38.68C83.8445 39.56 82.6145 40 80.9545 40H76.0945ZM80.9545 37C81.4745 37 81.8745 36.86 82.1545 36.58C82.4345 36.3 82.5745 35.78 82.5745 35.02V31.87C82.5745 31.11 82.4345 30.59 82.1545 30.31C81.8745 30.03 81.4745 29.89 80.9545 29.89H79.3945V37H80.9545ZM99.4908 33.91L101.741 19L106.331 19V40H103.211V24.94L100.931 40H97.8108L95.3508 25.15V40H92.4708V19H97.0608L99.4908 33.91ZM111.761 35.17C111.761 35.93 111.911 36.47 112.211 36.79C112.531 37.09 112.951 37.24 113.471 37.24C113.991 37.24 114.401 37.09 114.701 36.79C115.021 36.47 115.181 35.93 115.181 35.17V23.83C115.181 23.07 115.021 22.54 114.701 22.24C114.401 21.92 113.991 21.76 113.471 21.76C112.951 21.76 112.531 21.92 112.211 22.24C111.911 22.54 111.761 23.07 111.761 23.83V35.17ZM108.461 24.04C108.461 22.34 108.891 21.04 109.751 20.14C110.611 19.22 111.851 18.76 113.471 18.76C115.091 18.76 116.331 19.22 117.191 20.14C118.051 21.04 118.481 22.34 118.481 24.04V34.96C118.481 36.66 118.051 37.97 117.191 38.89C116.331 39.79 115.091 40.24 113.471 40.24C111.851 40.24 110.611 39.79 109.751 38.89C108.891 37.97 108.461 36.66 108.461 34.96V24.04ZM130.136 27.49L134.036 19H137.336L133.286 27.52L137.336 40H133.946L130.946 30.7L130.136 32.29V40H126.866V32.29L126.056 30.67L123.056 40H119.666L123.746 27.61L119.666 19H122.966L126.866 27.49V19H130.136V27.49ZM142.031 40H138.731V19H142.031V28H145.781V19H149.141V40H145.781V31H142.031V40ZM154.564 35.17C154.564 35.93 154.714 36.47 155.014 36.79C155.334 37.09 155.754 37.24 156.274 37.24C156.794 37.24 157.204 37.09 157.504 36.79C157.824 36.47 157.984 35.93 157.984 35.17V23.83C157.984 23.07 157.824 22.54 157.504 22.24C157.204 21.92 156.794 21.76 156.274 21.76C155.754 21.76 155.334 21.92 155.014 22.24C154.714 22.54 154.564 23.07 154.564 23.83V35.17ZM151.264 24.04C151.264 22.34 151.694 21.04 152.554 20.14C153.414 19.22 154.654 18.76 156.274 18.76C157.894 18.76 159.134 19.22 159.994 20.14C160.854 21.04 161.284 22.34 161.284 24.04V34.96C161.284 36.66 160.854 37.97 159.994 38.89C159.134 39.79 157.894 40.24 156.274 40.24C154.654 40.24 153.414 39.79 152.554 38.89C151.694 37.97 151.264 36.66 151.264 34.96V24.04ZM163.849 35.35L163.429 27.76V19H166.729V27.76L166.309 35.35H163.849ZM166.669 36.82V40H163.489V36.82H166.669Z" fill="#002D50"/>
</svg>
