<svg width="176" height="259" viewBox="0 0 176 259" fill="none" xmlns="http://www.w3.org/2000/svg">
<path d="M173 208.28V236.68H44.8398V257.08H24.1201V256.08C24.1201 251.021 23.565 246.985 22.4961 243.931L22.4941 243.923L22.4912 243.916C21.4051 240.658 19.9483 238.071 18.1455 236.118C16.3084 234.128 14.166 232.52 11.7129 231.294C9.19772 230.036 6.52134 228.934 3.68359 227.988L3 227.761V208.28H173ZM49.5996 97.0439C65.5646 97.0439 76.9482 102.097 83.4375 112.403C86.6989 107.205 91.2171 103.385 96.9717 100.962C103.044 98.3379 110.223 97.0439 118.48 97.0439H131.68C145.018 97.0439 155.535 100.39 163.09 107.21L163.812 107.881L163.819 107.889L164.507 108.581C171.494 115.835 174.92 126.133 174.92 139.323C174.92 152.939 171.27 163.474 163.819 170.759L163.812 170.767C156.21 178.038 145.449 181.604 131.68 181.604H118.48C110.223 181.604 103.044 180.31 96.9717 177.686L96.3867 177.433C90.9159 175.003 86.5975 171.272 83.4482 166.26C77.0936 176.561 65.6991 181.604 49.5996 181.604H44.3203C30.5577 181.604 19.873 178.041 12.4287 170.767L11.7266 170.074C4.58462 162.821 1.08008 152.52 1.08008 139.323C1.08016 125.702 4.81424 115.164 12.4287 107.881C19.873 100.607 30.5577 97.0439 44.3203 97.0439H49.5996ZM45.2803 125.443C37.803 125.443 33.1607 126.893 30.9072 129.428L30.8975 129.439L30.8867 129.45C28.3517 132.134 27.0802 135.405 27.0801 139.323C27.0801 143.12 28.2739 146.307 30.6533 148.943L30.8867 149.197L30.8975 149.208L30.9072 149.22C33.1607 151.755 37.803 153.204 45.2803 153.204H54.6396C61.2727 153.204 65.5462 151.852 67.8164 149.453C70.1906 146.78 71.4004 143.427 71.4004 139.323C71.4003 135.387 70.1962 132.109 67.8125 129.428C65.5437 126.876 61.2743 125.443 54.6396 125.443H45.2803ZM115.36 125.443C108.73 125.443 104.248 126.794 101.646 129.251L101.626 129.271L101.604 129.289C98.8291 131.626 97.4005 134.924 97.4004 139.323C97.4004 143.722 98.8293 147.115 101.627 149.618H101.626C104.229 151.93 108.721 153.204 115.36 153.204H130.96C138.437 153.204 143.08 151.755 145.333 149.22C147.717 146.538 148.92 143.259 148.92 139.323C148.92 135.387 147.716 132.202 145.352 129.689L145.342 129.679L145.333 129.668C143.071 127.123 138.415 125.602 130.938 125.443H115.36ZM98.3604 1.64746V33.8076H131.24V54.5273H98.3604V86.6875H77.6396V54.5273H45.2402V33.8076H77.6396V1.64746H98.3604Z" stroke="#002D50" stroke-width="2"/>
</svg>
