<svg width="92" height="21" viewBox="0 0 92 21" fill="none" xmlns="http://www.w3.org/2000/svg">
<path d="M21.2286 5.66924C21.5658 5.36242 21.1536 5.21541 20.7102 5.49027L11.2353 11.6075L7.14431 10.3035C6.25741 10.0223 6.25117 9.40222 7.34418 8.95477L23.2834 2.66497C24.0142 2.32619 24.7137 2.84394 24.4389 3.98173L21.722 17.0791C21.5346 18.0124 20.985 18.2297 20.223 17.8014L13.5525 12.7581" fill="black"/>
<path d="M30.9773 6.66051V5.33523H37.9403V6.66051H35.2429V14.0625H33.6747V6.66051H30.9773ZM41.163 14.1903C40.5067 14.1903 39.94 14.054 39.4627 13.7812C38.9883 13.5057 38.6232 13.1165 38.3675 12.6136C38.1119 12.108 37.984 11.5128 37.984 10.8281C37.984 10.1548 38.1119 9.56392 38.3675 9.0554C38.6261 8.54403 38.9869 8.14631 39.4499 7.86222C39.913 7.57528 40.457 7.43182 41.082 7.43182C41.4854 7.43182 41.8661 7.49716 42.2241 7.62784C42.5849 7.75568 42.9031 7.95455 43.1786 8.22443C43.457 8.49432 43.6758 8.83807 43.8349 9.25568C43.994 9.67045 44.0735 10.1648 44.0735 10.7386V11.2116H38.7085V10.1719H42.5948C42.592 9.87642 42.5281 9.61364 42.4031 9.38352C42.2781 9.15057 42.1033 8.96733 41.8789 8.83381C41.6573 8.70028 41.3988 8.63352 41.1033 8.63352C40.788 8.63352 40.511 8.71023 40.2724 8.86364C40.0337 9.0142 39.8477 9.21307 39.7141 9.46023C39.5835 9.70455 39.5167 9.97301 39.5138 10.2656V11.1733C39.5138 11.554 39.5835 11.8807 39.7227 12.1534C39.8619 12.4233 40.0565 12.6307 40.3065 12.7756C40.5565 12.9176 40.8491 12.9886 41.1843 12.9886C41.4087 12.9886 41.6119 12.9574 41.7937 12.8949C41.9755 12.8295 42.1332 12.7344 42.2667 12.6094C42.4002 12.4844 42.5011 12.3295 42.5692 12.1449L44.0096 12.3068C43.9187 12.6875 43.7454 13.0199 43.4897 13.304C43.2369 13.5852 42.913 13.804 42.5181 13.9602C42.1232 14.1136 41.6715 14.1903 41.163 14.1903ZM46.9212 5.33523V14.0625H45.3786V5.33523H46.9212ZM51.4052 14.1903C50.7489 14.1903 50.1822 14.054 49.7049 13.7812C49.2305 13.5057 48.8654 13.1165 48.6097 12.6136C48.354 12.108 48.2262 11.5128 48.2262 10.8281C48.2262 10.1548 48.354 9.56392 48.6097 9.0554C48.8683 8.54403 49.229 8.14631 49.6921 7.86222C50.1552 7.57528 50.6992 7.43182 51.3242 7.43182C51.7276 7.43182 52.1083 7.49716 52.4663 7.62784C52.8271 7.75568 53.1452 7.95455 53.4208 8.22443C53.6992 8.49432 53.918 8.83807 54.0771 9.25568C54.2362 9.67045 54.3157 10.1648 54.3157 10.7386V11.2116H48.9506V10.1719H52.837C52.8342 9.87642 52.7702 9.61364 52.6452 9.38352C52.5202 9.15057 52.3455 8.96733 52.1211 8.83381C51.8995 8.70028 51.641 8.63352 51.3455 8.63352C51.0302 8.63352 50.7532 8.71023 50.5146 8.86364C50.2759 9.0142 50.0898 9.21307 49.9563 9.46023C49.8256 9.70455 49.7589 9.97301 49.756 10.2656V11.1733C49.756 11.554 49.8256 11.8807 49.9648 12.1534C50.104 12.4233 50.2987 12.6307 50.5487 12.7756C50.7987 12.9176 51.0913 12.9886 51.4265 12.9886C51.6509 12.9886 51.854 12.9574 52.0359 12.8949C52.2177 12.8295 52.3754 12.7344 52.5089 12.6094C52.6424 12.4844 52.7433 12.3295 52.8114 12.1449L54.2518 12.3068C54.1609 12.6875 53.9876 13.0199 53.7319 13.304C53.479 13.5852 53.1552 13.804 52.7603 13.9602C52.3654 14.1136 51.9137 14.1903 51.4052 14.1903ZM58.4673 16.6534C57.9134 16.6534 57.4375 16.5781 57.0398 16.4276C56.642 16.2798 56.3224 16.081 56.081 15.831C55.8395 15.581 55.6719 15.304 55.5781 15L56.9673 14.6634C57.0298 14.7912 57.1207 14.9176 57.2401 15.0426C57.3594 15.1705 57.5199 15.2756 57.7216 15.358C57.9261 15.4432 58.1832 15.4858 58.4929 15.4858C58.9304 15.4858 59.2926 15.3793 59.5795 15.1662C59.8665 14.956 60.0099 14.6094 60.0099 14.1264V12.8864H59.9332C59.8537 13.0455 59.7372 13.2088 59.5838 13.3764C59.4332 13.544 59.233 13.6847 58.983 13.7983C58.7358 13.9119 58.4247 13.9688 58.0497 13.9688C57.5469 13.9688 57.0909 13.8509 56.6818 13.6151C56.2756 13.3764 55.9517 13.0213 55.7102 12.5497C55.4716 12.0753 55.3523 11.4815 55.3523 10.7685C55.3523 10.0497 55.4716 9.44318 55.7102 8.94886C55.9517 8.4517 56.277 8.07528 56.6861 7.8196C57.0952 7.56108 57.5511 7.43182 58.054 7.43182C58.4375 7.43182 58.7528 7.49716 59 7.62784C59.25 7.75568 59.4489 7.91051 59.5966 8.09233C59.7443 8.27131 59.8565 8.44034 59.9332 8.59943H60.0185V7.51705H61.5398V14.169C61.5398 14.7287 61.4063 15.1918 61.1392 15.5582C60.8722 15.9247 60.5071 16.1989 60.044 16.3807C59.581 16.5625 59.0554 16.6534 58.4673 16.6534ZM58.4801 12.7585C58.8068 12.7585 59.0852 12.679 59.3153 12.5199C59.5455 12.3608 59.7202 12.1321 59.8395 11.8338C59.9588 11.5355 60.0185 11.1776 60.0185 10.7599C60.0185 10.348 59.9588 9.98722 59.8395 9.67756C59.723 9.3679 59.5497 9.12784 59.3196 8.95739C59.0923 8.78409 58.8125 8.69744 58.4801 8.69744C58.1364 8.69744 57.8494 8.78693 57.6193 8.96591C57.3892 9.14489 57.2159 9.39062 57.0994 9.70312C56.983 10.0128 56.9247 10.3651 56.9247 10.7599C56.9247 11.1605 56.983 11.5114 57.0994 11.8125C57.2188 12.1108 57.3935 12.3437 57.6236 12.5114C57.8565 12.6761 58.142 12.7585 58.4801 12.7585ZM63.1207 14.0625V7.51705H64.6165V8.60795H64.6847C64.804 8.23011 65.0085 7.93892 65.2983 7.73438C65.5909 7.52699 65.9247 7.4233 66.2997 7.4233C66.3849 7.4233 66.4801 7.42756 66.5852 7.43608C66.6932 7.44176 66.7827 7.4517 66.8537 7.46591V8.88494C66.7884 8.86222 66.6847 8.84233 66.5426 8.82528C66.4034 8.8054 66.2685 8.79545 66.1378 8.79545C65.8565 8.79545 65.6037 8.85653 65.3793 8.97869C65.1577 9.09801 64.983 9.2642 64.8551 9.47727C64.7273 9.69034 64.6634 9.93608 64.6634 10.2145V14.0625H63.1207ZM69.6449 14.1946C69.2301 14.1946 68.8565 14.1207 68.5241 13.973C68.1946 13.8224 67.9332 13.6009 67.7401 13.3082C67.5497 13.0156 67.4545 12.6548 67.4545 12.2259C67.4545 11.8565 67.5227 11.5511 67.6591 11.3097C67.7955 11.0682 67.9815 10.875 68.2173 10.7301C68.4531 10.5852 68.7188 10.4759 69.0142 10.402C69.3125 10.3253 69.6207 10.2699 69.9389 10.2358C70.3224 10.196 70.6335 10.1605 70.8722 10.1293C71.1108 10.0952 71.2841 10.044 71.392 9.97585C71.5028 9.90483 71.5582 9.79545 71.5582 9.64773V9.62216C71.5582 9.30114 71.4631 9.05256 71.2727 8.87642C71.0824 8.70028 70.8082 8.61222 70.4503 8.61222C70.0724 8.61222 69.7727 8.6946 69.5511 8.85938C69.3324 9.02415 69.1847 9.21875 69.108 9.44318L67.6676 9.23864C67.7813 8.84091 67.9688 8.50852 68.2301 8.24148C68.4915 7.97159 68.8111 7.76989 69.1889 7.63636C69.5668 7.5 69.9844 7.43182 70.4418 7.43182C70.7571 7.43182 71.071 7.46875 71.3835 7.54261C71.696 7.61648 71.9815 7.73864 72.2401 7.90909C72.4986 8.0767 72.706 8.3054 72.8622 8.59517C73.0213 8.88494 73.1009 9.24716 73.1009 9.68182V14.0625H71.6179V13.1634H71.5668C71.473 13.3452 71.3409 13.5156 71.1705 13.6747C71.0028 13.831 70.7912 13.9574 70.5355 14.054C70.2827 14.1477 69.9858 14.1946 69.6449 14.1946ZM70.0455 13.0611C70.3551 13.0611 70.6236 13 70.8509 12.8778C71.0781 12.7528 71.2528 12.5881 71.375 12.3835C71.5 12.179 71.5625 11.956 71.5625 11.7145V10.9432C71.5142 10.983 71.4318 11.0199 71.3153 11.054C71.2017 11.0881 71.0739 11.1179 70.9318 11.1435C70.7898 11.169 70.6491 11.1918 70.5099 11.2116C70.3707 11.2315 70.25 11.2486 70.1477 11.2628C69.9176 11.294 69.7116 11.3452 69.5298 11.4162C69.348 11.4872 69.2045 11.5866 69.0994 11.7145C68.9943 11.8395 68.9418 12.0014 68.9418 12.2003C68.9418 12.4844 69.0455 12.6989 69.2528 12.8438C69.4602 12.9886 69.7244 13.0611 70.0455 13.0611ZM74.652 14.0625V7.51705H76.1264V8.62926H76.2031C76.3395 8.25426 76.5653 7.96165 76.8807 7.75142C77.196 7.53835 77.5724 7.43182 78.0099 7.43182C78.4531 7.43182 78.8267 7.53977 79.1307 7.75568C79.4375 7.96875 79.6534 8.25994 79.7784 8.62926H79.8466C79.9915 8.26562 80.2358 7.97585 80.5795 7.75994C80.9261 7.54119 81.3366 7.43182 81.8111 7.43182C82.4134 7.43182 82.9048 7.62216 83.2855 8.00284C83.6662 8.38352 83.8565 8.93892 83.8565 9.66903V14.0625H82.3097V9.90767C82.3097 9.50142 82.2017 9.20455 81.9858 9.01705C81.7699 8.8267 81.5057 8.73153 81.1932 8.73153C80.821 8.73153 80.5298 8.84801 80.3196 9.08097C80.1122 9.31108 80.0085 9.6108 80.0085 9.98011V14.0625H78.4957V9.84375C78.4957 9.50568 78.3935 9.2358 78.1889 9.03409C77.9872 8.83239 77.723 8.73153 77.3963 8.73153C77.1747 8.73153 76.973 8.78835 76.7912 8.90199C76.6094 9.01278 76.4645 9.17045 76.3565 9.375C76.2486 9.5767 76.1946 9.8125 76.1946 10.0824V14.0625H74.652Z" fill="black"/>
</svg>
