<svg width="92" height="21" viewBox="0 0 92 21" fill="none" xmlns="http://www.w3.org/2000/svg">
<path fill-rule="evenodd" clip-rule="evenodd" d="M12.0292 16.5081C12.0292 16.5081 12.4083 16.4628 12.6021 16.2368C12.7802 16.0291 12.7746 15.6394 12.7746 15.6394C12.7746 15.6394 12.75 13.8144 13.5316 13.5456C14.3024 13.2807 15.292 15.3094 16.3408 16.0895C17.134 16.6797 17.7367 16.5505 17.7367 16.5505L20.5414 16.5081C20.5414 16.5081 22.0085 16.41 21.3128 15.1601C21.2558 15.0581 20.9075 14.2356 19.2274 12.5459C17.4686 10.7773 17.7044 11.0634 19.8228 8.00423C21.1129 6.14118 21.5816 4.55 21.4204 4.0629C21.2668 3.5988 20.3179 3.72139 20.3179 3.72139L17.1601 3.74255C17.1601 3.74255 16.9258 3.70801 16.7523 3.82051C16.5826 3.93053 16.4737 4.18758 16.4737 4.18758C16.4737 4.18758 16.0207 6.08301 15.3543 7.3092C13.9482 9.89622 13.3859 10.0332 13.156 9.87226C12.6212 9.49782 12.7549 8.36834 12.7549 7.56569C12.7549 5.05849 13.1059 4.01314 12.0714 3.74255C11.7282 3.6528 11.4753 3.59343 10.5974 3.58373C9.47061 3.57131 8.51713 3.5875 7.97712 3.87404C7.61785 4.06474 7.34067 4.48942 7.50958 4.51386C7.71835 4.54399 8.19092 4.65208 8.44147 5.02147C8.76517 5.49863 8.75385 6.56978 8.75385 6.56978C8.75385 6.56978 8.93984 9.52114 8.3196 9.88764C7.89399 10.1391 7.31006 9.62578 6.05632 7.27868C5.41419 6.07644 4.93071 4.15585 4.93071 4.15585C4.93071 4.15585 4.8373 3.90753 4.67046 3.7746C4.46813 3.61354 4.1854 3.5625 4.1854 3.5625L1.18452 3.58373C1.18452 3.58373 0.734143 3.59736 0.568635 3.80961C0.421393 3.99856 0.556876 4.38886 0.556876 4.38886C0.556876 4.38886 2.9045 10.9356 5.56475 13.9367C8.00426 16.6887 10.7739 16.5081 10.7739 16.5081H12.0292Z" fill="black"/>
<path d="M28.3608 14.0625V5.33523H31.7017C32.3324 5.33523 32.8565 5.43466 33.2741 5.63352C33.6946 5.82955 34.0085 6.09801 34.2159 6.43892C34.4261 6.77983 34.5312 7.16619 34.5312 7.59801C34.5312 7.95312 34.4631 8.2571 34.3267 8.50994C34.1903 8.75994 34.0071 8.96307 33.777 9.11932C33.5469 9.27557 33.2898 9.38778 33.0057 9.45597V9.54119C33.3153 9.55824 33.6122 9.65341 33.8963 9.8267C34.1832 9.99716 34.4176 10.2386 34.5994 10.5511C34.7813 10.8636 34.8722 11.2415 34.8722 11.6847C34.8722 12.1364 34.7628 12.5426 34.544 12.9034C34.3253 13.2614 33.9957 13.544 33.5554 13.7514C33.1151 13.9588 32.5611 14.0625 31.8935 14.0625H28.3608ZM29.9418 12.7415H31.642C32.2159 12.7415 32.6293 12.6321 32.8821 12.4134C33.1378 12.1918 33.2656 11.9077 33.2656 11.5611C33.2656 11.3026 33.2017 11.0696 33.0739 10.8622C32.946 10.652 32.7642 10.4872 32.5284 10.3679C32.2926 10.2457 32.0114 10.1847 31.6847 10.1847H29.9418V12.7415ZM29.9418 9.04688H31.5057C31.7784 9.04688 32.0241 8.99716 32.2429 8.89773C32.4616 8.79545 32.6335 8.65199 32.7585 8.46733C32.8864 8.27983 32.9503 8.05824 32.9503 7.80256C32.9503 7.46449 32.831 7.18608 32.5923 6.96733C32.3565 6.74858 32.0057 6.6392 31.5398 6.6392H29.9418V9.04688ZM41.4762 14.0625L38.604 10.2486H37.8285V14.0625H36.2475V5.33523H37.8285V8.9233H38.2248L41.3271 5.33523H43.2745L39.8271 9.31534L43.4237 14.0625H41.4762ZM46.804 14.1903C46.1648 14.1903 45.6108 14.0497 45.142 13.7685C44.6733 13.4872 44.3097 13.0937 44.0511 12.5881C43.7955 12.0824 43.6676 11.4915 43.6676 10.8153C43.6676 10.1392 43.7955 9.54687 44.0511 9.03835C44.3097 8.52983 44.6733 8.13494 45.142 7.85369C45.6108 7.57244 46.1648 7.43182 46.804 7.43182C47.4432 7.43182 47.9972 7.57244 48.4659 7.85369C48.9347 8.13494 49.2969 8.52983 49.5526 9.03835C49.8111 9.54687 49.9403 10.1392 49.9403 10.8153C49.9403 11.4915 49.8111 12.0824 49.5526 12.5881C49.2969 13.0937 48.9347 13.4872 48.4659 13.7685C47.9972 14.0497 47.4432 14.1903 46.804 14.1903ZM46.8125 12.9545C47.1591 12.9545 47.4489 12.8594 47.6818 12.669C47.9148 12.4759 48.0881 12.2173 48.2017 11.8935C48.3182 11.5696 48.3764 11.2088 48.3764 10.8111C48.3764 10.4105 48.3182 10.0483 48.2017 9.72443C48.0881 9.39773 47.9148 9.13778 47.6818 8.9446C47.4489 8.75142 47.1591 8.65483 46.8125 8.65483C46.4574 8.65483 46.1619 8.75142 45.9261 8.9446C45.6932 9.13778 45.5185 9.39773 45.402 9.72443C45.2884 10.0483 45.2315 10.4105 45.2315 10.8111C45.2315 11.2088 45.2884 11.5696 45.402 11.8935C45.5185 12.2173 45.6932 12.4759 45.9261 12.669C46.1619 12.8594 46.4574 12.9545 46.8125 12.9545ZM55.7454 10.1506V11.4162H52.2596V10.1506H55.7454ZM52.7369 7.51705V14.0625H51.2496V7.51705H52.7369ZM56.7553 7.51705V14.0625H55.2724V7.51705H56.7553ZM57.5831 8.78267V7.51705H63.3104V8.78267H61.1925V14.0625H59.701V8.78267H57.5831ZM66.1527 14.1946C65.7379 14.1946 65.3643 14.1207 65.032 13.973C64.7024 13.8224 64.4411 13.6009 64.2479 13.3082C64.0575 13.0156 63.9624 12.6548 63.9624 12.2259C63.9624 11.8565 64.0305 11.5511 64.1669 11.3097C64.3033 11.0682 64.4893 10.875 64.7251 10.7301C64.9609 10.5852 65.2266 10.4759 65.522 10.402C65.8203 10.3253 66.1286 10.2699 66.4467 10.2358C66.8303 10.196 67.1413 10.1605 67.38 10.1293C67.6186 10.0952 67.7919 10.044 67.8999 9.97585C68.0107 9.90483 68.0661 9.79545 68.0661 9.64773V9.62216C68.0661 9.30114 67.9709 9.05256 67.7805 8.87642C67.5902 8.70028 67.3161 8.61222 66.9581 8.61222C66.5803 8.61222 66.2805 8.6946 66.0589 8.85938C65.8402 9.02415 65.6925 9.21875 65.6158 9.44318L64.1754 9.23864C64.2891 8.84091 64.4766 8.50852 64.7379 8.24148C64.9993 7.97159 65.3189 7.76989 65.6967 7.63636C66.0746 7.5 66.4922 7.43182 66.9496 7.43182C67.2649 7.43182 67.5788 7.46875 67.8913 7.54261C68.2038 7.61648 68.4893 7.73864 68.7479 7.90909C69.0064 8.0767 69.2138 8.3054 69.37 8.59517C69.5291 8.88494 69.6087 9.24716 69.6087 9.68182V14.0625H68.1257V13.1634H68.0746C67.9808 13.3452 67.8487 13.5156 67.6783 13.6747C67.5107 13.831 67.299 13.9574 67.0433 14.054C66.7905 14.1477 66.4936 14.1946 66.1527 14.1946ZM66.5533 13.0611C66.8629 13.0611 67.1314 13 67.3587 12.8778C67.5859 12.7528 67.7607 12.5881 67.8828 12.3835C68.0078 12.179 68.0703 11.956 68.0703 11.7145V10.9432C68.022 10.983 67.9396 11.0199 67.8232 11.054C67.7095 11.0881 67.5817 11.1179 67.4396 11.1435C67.2976 11.169 67.157 11.1918 67.0178 11.2116C66.8786 11.2315 66.7578 11.2486 66.6555 11.2628C66.4254 11.294 66.2195 11.3452 66.0376 11.4162C65.8558 11.4872 65.7124 11.5866 65.6072 11.7145C65.5021 11.8395 65.4496 12.0014 65.4496 12.2003C65.4496 12.4844 65.5533 12.6989 65.7607 12.8438C65.968 12.9886 66.2322 13.0611 66.5533 13.0611ZM71.1598 14.0625V7.51705H72.7024V10.1591H73.2649L75.2337 7.51705H77.0916L74.6669 10.7301L77.1172 14.0625H75.2507L73.4567 11.5952H72.7024V14.0625H71.1598ZM77.6339 8.78267V7.51705H83.3612V8.78267H81.2433V14.0625H79.7518V8.78267H77.6339ZM87.2177 14.1903C86.5614 14.1903 85.9947 14.054 85.5174 13.7812C85.043 13.5057 84.6779 13.1165 84.4222 12.6136C84.1665 12.108 84.0387 11.5128 84.0387 10.8281C84.0387 10.1548 84.1665 9.56392 84.4222 9.0554C84.6808 8.54403 85.0415 8.14631 85.5046 7.86222C85.9677 7.57528 86.5117 7.43182 87.1367 7.43182C87.5401 7.43182 87.9208 7.49716 88.2788 7.62784C88.6396 7.75568 88.9577 7.95455 89.2333 8.22443C89.5117 8.49432 89.7305 8.83807 89.8896 9.25568C90.0487 9.67045 90.1282 10.1648 90.1282 10.7386V11.2116H84.7631V10.1719H88.6495C88.6467 9.87642 88.5827 9.61364 88.4577 9.38352C88.3327 9.15057 88.158 8.96733 87.9336 8.83381C87.712 8.70028 87.4535 8.63352 87.158 8.63352C86.8427 8.63352 86.5657 8.71023 86.3271 8.86364C86.0884 9.0142 85.9023 9.21307 85.7688 9.46023C85.6381 9.70455 85.5714 9.97301 85.5685 10.2656V11.1733C85.5685 11.554 85.6381 11.8807 85.7773 12.1534C85.9165 12.4233 86.1112 12.6307 86.3612 12.7756C86.6112 12.9176 86.9038 12.9886 87.239 12.9886C87.4634 12.9886 87.6665 12.9574 87.8484 12.8949C88.0302 12.8295 88.1879 12.7344 88.3214 12.6094C88.4549 12.4844 88.5558 12.3295 88.6239 12.1449L90.0643 12.3068C89.9734 12.6875 89.8001 13.0199 89.5444 13.304C89.2915 13.5852 88.9677 13.804 88.5728 13.9602C88.1779 14.1136 87.7262 14.1903 87.2177 14.1903Z" fill="black"/>
</svg>
