<svg width="92" height="21" viewBox="0 0 92 21" fill="none" xmlns="http://www.w3.org/2000/svg">
<path d="M11.7538 3.73686C11.6119 3.73592 11.4961 3.84425 11.4951 3.97882C11.4941 4.11339 11.6083 4.22324 11.7502 4.22418C13.118 4.23321 14.2482 4.66042 15.1584 5.50195C16.0602 6.33565 16.529 7.48475 16.541 8.9794C16.5421 9.11397 16.658 9.22223 16.7999 9.2212C16.9418 9.22018 17.0559 9.11026 17.0549 8.97569C17.0421 7.38063 16.5375 6.09634 15.5171 5.15299C14.5052 4.21746 13.2449 3.74671 11.7538 3.73686Z" fill="black"/>
<path d="M12.2237 5.0015C12.0822 4.99168 11.959 5.09251 11.9487 5.22673C11.9383 5.36094 12.0447 5.47771 12.1862 5.48753C13.1644 5.55543 13.8991 5.86595 14.4247 6.40998C14.9518 6.95628 15.2106 7.63726 15.1915 8.47164C15.1884 8.60618 15.301 8.71761 15.4428 8.72052C15.5847 8.72344 15.7022 8.61673 15.7052 8.48219C15.7268 7.53604 15.4295 6.7294 14.8037 6.08098C14.1712 5.42611 13.3026 5.07638 12.2237 5.0015Z" fill="black"/>
<path d="M12.5813 6.79549C12.4396 6.78848 12.3308 6.67385 12.3382 6.53946C12.3455 6.40507 12.4664 6.30181 12.6081 6.30882C13.1383 6.33505 13.5794 6.48725 13.8935 6.7953C14.2065 7.10217 14.3599 7.53087 14.3868 8.04573C14.3939 8.18013 14.2847 8.2945 14.1429 8.30116C14.0012 8.30783 13.8806 8.20428 13.8736 8.06987C13.8505 7.62914 13.723 7.32911 13.5242 7.1341C13.3265 6.94027 13.0248 6.81744 12.5813 6.79549Z" fill="black"/>
<path d="M13.2012 11.1231C13.0068 11.3503 12.6456 11.3214 12.6456 11.3214C10.0059 10.6823 9.29947 8.14653 9.29947 8.14653C9.29947 8.14653 9.26777 7.80402 9.50854 7.61961L9.98552 7.26003C10.222 7.08718 10.3729 6.66778 10.1321 6.2582C9.94744 5.95076 9.74665 5.65228 9.53049 5.36389C9.3205 5.0919 8.83133 4.53491 8.8295 4.53317C8.5936 4.26927 8.24676 4.20799 7.88103 4.38865L7.87694 4.38957L7.87341 4.39038C7.50965 4.58915 7.18165 4.84167 6.90177 5.13843L6.89891 5.14197L6.89629 5.14508C6.67034 5.40368 6.54101 5.65718 6.5083 5.90556C6.50151 5.94218 6.49916 5.97942 6.50129 6.01656C6.50008 6.12624 6.51768 6.23538 6.55341 6.33971L6.5659 6.3478C6.67989 6.73165 6.96517 7.37102 7.58509 8.43703C7.93967 9.05361 8.34862 9.64063 8.80755 10.1918C9.03749 10.4681 9.28395 10.7317 9.54573 10.9812C9.55067 10.9859 9.55553 10.9906 9.56039 10.9952C9.56482 10.9995 9.56926 11.0037 9.57377 11.0078L9.65789 11.0876C9.92099 11.3358 10.1989 11.5696 10.4902 11.7876C11.0715 12.223 11.6906 12.6108 12.3409 12.947C13.4646 13.5349 14.1394 13.8055 14.5435 13.9136L14.552 13.9254C14.662 13.9594 14.7771 13.9762 14.8928 13.9751C14.9319 13.9769 14.9712 13.9746 15.0098 13.9682C15.2721 13.9387 15.5392 13.8163 15.8111 13.6008L15.8143 13.5983L15.8181 13.5956C16.131 13.3301 16.3973 13.0191 16.6071 12.6742L16.6079 12.6708L16.6087 12.6669C16.7992 12.3201 16.7345 11.9911 16.4548 11.7671C16.4548 11.7671 16.4316 11.7493 16.393 11.7191C16.2344 11.5952 15.8094 11.2632 15.5788 11.1023C15.275 10.8973 14.9606 10.7069 14.6368 10.5317C14.2046 10.3034 13.7633 10.4465 13.5804 10.6708L13.2012 11.1231Z" fill="black"/>
<path fill-rule="evenodd" clip-rule="evenodd" d="M19.7424 2.01327C19.2184 1.55467 17.1006 0.0966639 12.3835 0.0768555C12.3835 0.0768555 6.82069 -0.241277 4.10894 2.11771C2.59942 3.54961 2.06839 5.64478 2.01238 8.24237C1.95637 10.84 1.8839 15.708 6.83177 17.0279H6.83652L6.83335 19.0421C6.83335 19.0421 6.80171 19.8575 7.36786 20.0238C7.93938 20.1921 8.31386 19.7883 8.80216 19.2617C8.89896 19.1574 9.00023 19.0482 9.10839 18.9376C9.46726 18.5709 9.96284 18.0322 10.3363 17.6204C13.7202 17.8905 16.3228 17.2731 16.6183 17.1819C16.6793 17.1632 16.7657 17.1423 16.8728 17.1165C17.9661 16.8529 21.2239 16.0672 21.7966 11.6344C22.4457 6.61719 21.4827 3.44366 19.7424 2.01327ZM18.1499 14.3453C17.4305 14.8923 16.6555 15.0674 16.1952 15.169L15.9251 15.2339L15.909 15.2387C15.7201 15.2964 13.5009 15.8255 10.6994 15.652L10.4266 15.6351L10.2468 15.8409L10.1541 15.9467C10.0952 16.0138 10.0105 16.1102 9.9069 16.2278L9.90318 16.232L9.69349 16.4675L9.69452 16.4684C9.5182 16.6677 9.31239 16.8996 9.09643 17.1411C8.706 17.5777 8.29166 18.0353 7.95898 18.3904L7.97572 15.2945L7.55933 15.1849C5.73815 14.7053 4.87941 13.6131 4.45601 12.3776C4.01761 11.0984 4.0469 9.665 4.07403 8.54157L4.07923 8.31935C4.12559 6.20055 4.54548 4.61777 5.64866 3.57855C6.66378 2.71232 8.27045 2.30936 9.71208 2.13978C10.4208 2.0564 11.062 2.03236 11.526 2.02928C11.7576 2.02774 11.944 2.03142 12.0715 2.03543C12.1352 2.03743 12.184 2.03951 12.2164 2.04105L12.2522 2.04288L12.2604 2.04334L12.2622 2.04345L12.278 2.04443L12.2941 2.0445C16.1889 2.06061 17.9612 3.17362 18.2796 3.44779L18.2857 3.45302L18.2919 3.45807C18.8968 3.9492 19.4069 4.83004 19.6939 6.14529C19.9797 7.45476 20.0334 9.15056 19.765 11.2014C19.5444 12.8911 18.8501 13.813 18.1499 14.3453Z" fill="black"/>
<path d="M30.6974 14.0625L28.2344 5.33523H29.9347L31.5071 11.7486H31.5881L33.267 5.33523H34.8139L36.4972 11.7528H36.5739L38.1463 5.33523H39.8466L37.3835 14.0625H35.8239L34.0767 7.93892H34.0085L32.2571 14.0625H30.6974ZM42.4173 10.2273V14.0625H40.8746V5.33523H42.3832V8.62926H42.4599C42.6133 8.25994 42.8505 7.96875 43.1715 7.75568C43.4954 7.53977 43.9073 7.43182 44.4073 7.43182C44.8619 7.43182 45.2582 7.52699 45.5962 7.71733C45.9343 7.90767 46.1957 8.18608 46.3803 8.55256C46.5678 8.91903 46.6616 9.36648 46.6616 9.89489V14.0625H45.119V10.1335C45.119 9.69318 45.0053 9.35085 44.7781 9.10653C44.5536 8.85937 44.2383 8.7358 43.832 8.7358C43.5593 8.7358 43.315 8.79545 43.0991 8.91477C42.886 9.03125 42.7184 9.20028 42.5962 9.42188C42.4769 9.64347 42.4173 9.91193 42.4173 10.2273ZM50.1175 14.1946C49.7028 14.1946 49.3292 14.1207 48.9968 13.973C48.6673 13.8224 48.4059 13.6009 48.2127 13.3082C48.0224 13.0156 47.9272 12.6548 47.9272 12.2259C47.9272 11.8565 47.9954 11.5511 48.1317 11.3097C48.2681 11.0682 48.4542 10.875 48.69 10.7301C48.9258 10.5852 49.1914 10.4759 49.4869 10.402C49.7852 10.3253 50.0934 10.2699 50.4116 10.2358C50.7951 10.196 51.1062 10.1605 51.3448 10.1293C51.5835 10.0952 51.7567 10.044 51.8647 9.97585C51.9755 9.90483 52.0309 9.79545 52.0309 9.64773V9.62216C52.0309 9.30114 51.9357 9.05256 51.7454 8.87642C51.555 8.70028 51.2809 8.61222 50.9229 8.61222C50.5451 8.61222 50.2454 8.6946 50.0238 8.85938C49.805 9.02415 49.6573 9.21875 49.5806 9.44318L48.1403 9.23864C48.2539 8.84091 48.4414 8.50852 48.7028 8.24148C48.9641 7.97159 49.2837 7.76989 49.6616 7.63636C50.0394 7.5 50.457 7.43182 50.9144 7.43182C51.2298 7.43182 51.5437 7.46875 51.8562 7.54261C52.1687 7.61648 52.4542 7.73864 52.7127 7.90909C52.9712 8.0767 53.1786 8.3054 53.3349 8.59517C53.494 8.88494 53.5735 9.24716 53.5735 9.68182V14.0625H52.0906V13.1634H52.0394C51.9457 13.3452 51.8136 13.5156 51.6431 13.6747C51.4755 13.831 51.2638 13.9574 51.0082 14.054C50.7553 14.1477 50.4585 14.1946 50.1175 14.1946ZM50.5181 13.0611C50.8278 13.0611 51.0962 13 51.3235 12.8778C51.5508 12.7528 51.7255 12.5881 51.8477 12.3835C51.9727 12.179 52.0352 11.956 52.0352 11.7145V10.9432C51.9869 10.983 51.9045 11.0199 51.788 11.054C51.6744 11.0881 51.5465 11.1179 51.4045 11.1435C51.2624 11.169 51.1218 11.1918 50.9826 11.2116C50.8434 11.2315 50.7227 11.2486 50.6204 11.2628C50.3903 11.294 50.1843 11.3452 50.0025 11.4162C49.8207 11.4872 49.6772 11.5866 49.5721 11.7145C49.467 11.8395 49.4144 12.0014 49.4144 12.2003C49.4144 12.4844 49.5181 12.6989 49.7255 12.8438C49.9329 12.9886 50.1971 13.0611 50.5181 13.0611ZM58.3931 7.51705V8.71023H54.6303V7.51705H58.3931ZM55.5593 5.94886H57.1019V12.0938C57.1019 12.3011 57.1332 12.4602 57.1957 12.571C57.261 12.679 57.3462 12.7528 57.4513 12.7926C57.5565 12.8324 57.6729 12.8523 57.8008 12.8523C57.8974 12.8523 57.9854 12.8452 58.065 12.831C58.1474 12.8168 58.2099 12.804 58.2525 12.7926L58.5124 13.9986C58.43 14.027 58.3121 14.0582 58.1587 14.0923C58.0082 14.1264 57.8235 14.1463 57.6048 14.152C57.2184 14.1634 56.8704 14.1051 56.5607 13.9773C56.2511 13.8466 56.0053 13.6449 55.8235 13.3722C55.6445 13.0994 55.5565 12.7585 55.5593 12.3494V5.94886ZM64.7628 9.24716L63.3565 9.40057C63.3168 9.25852 63.2472 9.125 63.1477 9C63.0511 8.875 62.9205 8.77415 62.7557 8.69744C62.5909 8.62074 62.3892 8.58239 62.1506 8.58239C61.8295 8.58239 61.5597 8.65199 61.3409 8.79119C61.125 8.9304 61.0185 9.1108 61.0213 9.33239C61.0185 9.52273 61.0881 9.67756 61.2301 9.79688C61.375 9.91619 61.6136 10.0142 61.946 10.0909L63.0625 10.3295C63.6818 10.4631 64.142 10.6747 64.4432 10.9645C64.7472 11.2543 64.9006 11.6335 64.9034 12.1023C64.9006 12.5142 64.7798 12.8778 64.5412 13.1932C64.3054 13.5057 63.9773 13.75 63.5568 13.9261C63.1364 14.1023 62.6534 14.1903 62.108 14.1903C61.3068 14.1903 60.6619 14.0227 60.1733 13.6875C59.6847 13.3494 59.3935 12.8793 59.2997 12.277L60.804 12.1321C60.8722 12.4276 61.017 12.6506 61.2386 12.8011C61.4602 12.9517 61.7486 13.027 62.1037 13.027C62.4702 13.027 62.7642 12.9517 62.9858 12.8011C63.2102 12.6506 63.3224 12.4645 63.3224 12.2429C63.3224 12.0554 63.25 11.9006 63.1051 11.7784C62.9631 11.6562 62.7415 11.5625 62.4403 11.4972L61.3239 11.2628C60.696 11.1321 60.2315 10.9119 59.9304 10.6023C59.6293 10.2898 59.4801 9.89489 59.483 9.41761C59.4801 9.0142 59.5895 8.66477 59.8111 8.36932C60.0355 8.07102 60.3466 7.84091 60.7443 7.67898C61.1449 7.5142 61.6065 7.43182 62.1293 7.43182C62.8963 7.43182 63.5 7.59517 63.9403 7.92188C64.3835 8.24858 64.6577 8.69034 64.7628 9.24716ZM67.3643 14.0625H65.6768L68.7493 5.33523H70.701L73.7777 14.0625H72.0902L69.7592 7.125H69.6911L67.3643 14.0625ZM67.4197 10.6406H72.022V11.9105H67.4197V10.6406ZM74.859 16.517V7.51705H76.3761V8.59943H76.4656C76.5451 8.44034 76.6573 8.27131 76.8022 8.09233C76.9471 7.91051 77.1431 7.75568 77.3903 7.62784C77.6374 7.49716 77.9528 7.43182 78.3363 7.43182C78.842 7.43182 79.2979 7.56108 79.7042 7.8196C80.1133 8.07528 80.4371 8.45455 80.6758 8.95739C80.9173 9.45739 81.038 10.071 81.038 10.7983C81.038 11.517 80.9201 12.1278 80.6843 12.6307C80.4485 13.1335 80.1275 13.517 79.7212 13.7812C79.315 14.0455 78.8548 14.1776 78.3406 14.1776C77.9656 14.1776 77.6545 14.1151 77.4073 13.9901C77.1602 13.8651 76.9613 13.7145 76.8107 13.5384C76.663 13.3594 76.5479 13.1903 76.4656 13.0312H76.4016V16.517H74.859ZM76.3718 10.7898C76.3718 11.2131 76.4315 11.5838 76.5508 11.902C76.6729 12.2202 76.8477 12.4687 77.0749 12.6477C77.305 12.8239 77.5835 12.9119 77.9102 12.9119C78.2511 12.9119 78.5366 12.821 78.7667 12.6392C78.9968 12.4545 79.1701 12.2031 79.2866 11.8849C79.4059 11.5639 79.4656 11.1989 79.4656 10.7898C79.4656 10.3835 79.4073 10.0227 79.2908 9.70739C79.1744 9.39205 79.0011 9.14489 78.771 8.96591C78.5408 8.78693 78.2539 8.69744 77.9102 8.69744C77.5806 8.69744 77.3008 8.78409 77.0707 8.95739C76.8406 9.13068 76.6658 9.37358 76.5465 9.68608C76.43 9.99858 76.3718 10.3665 76.3718 10.7898ZM82.359 16.517V7.51705H83.8761V8.59943H83.9656C84.0451 8.44034 84.1573 8.27131 84.3022 8.09233C84.4471 7.91051 84.6431 7.75568 84.8903 7.62784C85.1374 7.49716 85.4528 7.43182 85.8363 7.43182C86.342 7.43182 86.7979 7.56108 87.2042 7.8196C87.6133 8.07528 87.9371 8.45455 88.1758 8.95739C88.4173 9.45739 88.538 10.071 88.538 10.7983C88.538 11.517 88.4201 12.1278 88.1843 12.6307C87.9485 13.1335 87.6275 13.517 87.2212 13.7812C86.815 14.0455 86.3548 14.1776 85.8406 14.1776C85.4656 14.1776 85.1545 14.1151 84.9073 13.9901C84.6602 13.8651 84.4613 13.7145 84.3107 13.5384C84.163 13.3594 84.0479 13.1903 83.9656 13.0312H83.9016V16.517H82.359ZM83.8718 10.7898C83.8718 11.2131 83.9315 11.5838 84.0508 11.902C84.1729 12.2202 84.3477 12.4687 84.5749 12.6477C84.805 12.8239 85.0835 12.9119 85.4102 12.9119C85.7511 12.9119 86.0366 12.821 86.2667 12.6392C86.4968 12.4545 86.6701 12.2031 86.7866 11.8849C86.9059 11.5639 86.9656 11.1989 86.9656 10.7898C86.9656 10.3835 86.9073 10.0227 86.7908 9.70739C86.6744 9.39205 86.5011 9.14489 86.271 8.96591C86.0408 8.78693 85.7539 8.69744 85.4102 8.69744C85.0806 8.69744 84.8008 8.78409 84.5707 8.95739C84.3406 9.13068 84.1658 9.37358 84.0465 9.68608C83.93 9.99858 83.8718 10.3665 83.8718 10.7898Z" fill="black"/>
</svg>
